<svg width="270" height="277" viewBox="0 0 270 277" fill="none" xmlns="http://www.w3.org/2000/svg">
<g clip-path="url(#clip0_276_546)">
<path d="M189.34 277H115.716C114.86 276.999 114.04 276.659 113.435 276.055C112.83 275.451 112.489 274.632 112.488 273.777V222.385C112.489 221.53 112.83 220.711 113.435 220.107C114.04 219.503 114.86 219.163 115.716 219.162H189.34C190.195 219.163 191.016 219.503 191.621 220.107C192.226 220.711 192.567 221.53 192.568 222.385V273.777C192.567 274.632 192.226 275.451 191.621 276.055C191.016 276.659 190.195 276.999 189.34 277Z" fill="#F2F2F2"/>
<path d="M69.0252 143.032C69.5188 142.401 69.8679 141.67 70.0479 140.89C70.2279 140.11 70.2344 139.3 70.067 138.518C69.8995 137.735 69.5623 136.998 69.0789 136.36C68.5955 135.721 67.9777 135.196 67.2692 134.822L66.8052 85.6566L57.6016 89.8736L59.6259 137.424C59.0749 138.654 58.9949 140.043 59.4012 141.328C59.8075 142.613 60.6719 143.705 61.8305 144.396C62.989 145.087 64.3614 145.33 65.6874 145.079C67.0135 144.828 68.2011 144.099 69.0252 143.032Z" fill="#9E616A"/>
<path d="M68.7764 73.2089C68.7764 73.2089 59.8233 68.8728 58.5851 77.0537C57.3469 85.2346 52.2539 106.526 52.2539 106.526L67.7084 105.435L68.7764 73.2089Z" fill="#9E616A"/>
<path d="M69.0252 143.032C69.5188 142.401 69.8679 141.67 70.0479 140.89C70.2279 140.11 70.2344 139.3 70.067 138.518C69.8995 137.735 69.5623 136.998 69.0789 136.36C68.5955 135.721 67.9777 135.196 67.2692 134.822L66.8052 85.6566L57.6016 89.8736L59.6259 137.424C59.0749 138.654 58.9949 140.043 59.4012 141.328C59.8075 142.613 60.6719 143.705 61.8305 144.396C62.989 145.087 64.3614 145.33 65.6874 145.079C67.0135 144.828 68.2011 144.099 69.0252 143.032Z" fill="#9E616A"/>
<path d="M68.7764 73.2089C68.7764 73.2089 59.8233 68.8728 58.5851 77.0537C57.3469 85.2346 52.2539 106.526 52.2539 106.526L67.7084 105.435L68.7764 73.2089Z" fill="#2563EB"/>
<path d="M42.8542 262.6C42.4927 262.617 42.1348 262.522 41.829 262.329C41.5233 262.135 41.2844 261.853 41.1448 261.52C41.0052 261.186 40.9716 260.818 41.0486 260.465C41.1255 260.112 41.3093 259.791 41.5751 259.546C41.6196 259.369 41.6515 259.243 41.696 259.066C41.6801 259.028 41.6641 258.989 41.6479 258.951C41.2838 258.092 40.6735 257.36 39.8939 256.846C39.1142 256.332 38.1999 256.06 37.2658 256.064C36.3317 256.067 35.4194 256.346 34.6436 256.865C33.8678 257.385 33.263 258.122 32.9053 258.983C31.4753 262.422 29.6548 265.866 29.2066 269.501C29.0091 271.108 29.0924 272.738 29.4527 274.316C26.0942 267.002 24.3503 259.052 24.339 251.005C24.3383 248.986 24.4507 246.968 24.6756 244.962C24.8615 243.317 25.1193 241.683 25.4492 240.062C27.2493 231.263 31.1141 223.016 36.7263 215.998C39.4426 214.519 41.6393 212.243 43.0204 209.479C43.5207 208.485 43.8743 207.424 44.0702 206.329C43.7638 206.369 43.4524 206.394 43.146 206.414C43.0505 206.419 42.9501 206.424 42.8546 206.429L42.8186 206.431C42.4818 206.446 42.1479 206.364 41.8569 206.194C41.566 206.024 41.3305 205.773 41.1788 205.473C41.027 205.172 40.9655 204.834 41.0017 204.5C41.0378 204.165 41.17 203.848 41.3825 203.587C41.5148 203.424 41.6472 203.262 41.7796 203.099C41.9806 202.848 42.1865 202.603 42.3874 202.352C42.4106 202.328 42.4324 202.303 42.4527 202.277C42.6838 201.991 42.9149 201.71 43.146 201.424C42.7242 200.77 42.1569 200.223 41.4883 199.824C39.1726 198.47 35.9778 199.408 34.3051 201.499C32.6273 203.591 32.3109 206.525 32.8935 209.138C33.4666 211.361 34.4144 213.471 35.6965 215.377C35.5709 215.537 35.4403 215.693 35.3147 215.853C33.0191 218.8 31.0183 221.965 29.341 225.302C29.7489 221.564 29.2621 217.782 27.9206 214.268C26.561 210.993 24.0126 208.235 21.7684 205.404C19.0728 202.004 13.5452 203.488 13.0703 207.799C13.0657 207.84 13.0613 207.882 13.0569 207.924C13.3902 208.112 13.7165 208.311 14.0357 208.522C14.4368 208.789 14.7476 209.171 14.9273 209.618C15.1071 210.065 15.1474 210.556 15.0431 211.026C14.9388 211.496 14.6946 211.924 14.3426 212.253C13.9906 212.583 13.5473 212.798 13.0705 212.871L13.0217 212.879C13.1405 214.078 13.3504 215.267 13.6496 216.435C14.5167 219.695 16.049 222.74 18.1503 225.381C20.2516 228.022 22.8768 230.201 25.8611 231.782C26.057 231.882 26.2479 231.982 26.4438 232.077C24.7586 236.846 23.7016 241.812 23.2992 246.852C23.0715 249.826 23.0849 252.813 23.3394 255.785L23.3244 255.679C22.6813 252.375 20.9159 249.394 18.3262 247.239C14.4799 244.084 9.04579 242.922 4.89629 240.387C4.4553 240.104 3.94254 239.953 3.41848 239.952C2.89442 239.951 2.38092 240.099 1.93855 240.379C1.49618 240.66 1.1434 241.061 0.921801 241.535C0.700201 242.009 0.619035 242.537 0.687871 243.056C0.693437 243.092 0.699088 243.129 0.704835 243.166C1.3234 243.418 1.92567 243.708 2.50815 244.034C2.84148 244.222 3.16777 244.421 3.48702 244.632C3.88808 244.899 4.19886 245.281 4.37862 245.728C4.55837 246.175 4.59871 246.666 4.49438 247.136C4.39005 247.606 4.1459 248.034 3.79392 248.363C3.44194 248.693 2.99855 248.908 2.52183 248.981L2.47298 248.989C2.43781 248.994 2.40768 248.999 2.37257 249.004C3.42947 251.524 4.91287 253.843 6.7578 255.86C9.0369 258.302 11.7915 260.253 14.8527 261.594C17.9139 262.935 21.2172 263.637 24.5601 263.659H24.5651C25.4725 267.596 26.7873 271.428 28.4882 275.094H42.503C42.5533 274.938 42.5984 274.778 42.6437 274.622C41.3464 274.703 40.0441 274.626 38.7657 274.391C39.8055 273.117 40.8453 271.834 41.8851 270.56C41.9083 270.536 41.9301 270.511 41.9504 270.484C42.4779 269.832 43.0103 269.185 43.5378 268.534L43.538 268.533C43.5662 266.534 43.3365 264.54 42.8546 262.6L42.8542 262.6Z" fill="#F2F2F2"/>
<path d="M249.471 262.6C249.11 262.617 248.752 262.522 248.446 262.329C248.14 262.135 247.902 261.853 247.762 261.52C247.622 261.186 247.589 260.818 247.666 260.465C247.743 260.112 247.927 259.791 248.192 259.546C248.237 259.369 248.269 259.243 248.313 259.066C248.297 259.028 248.281 258.989 248.265 258.951C247.901 258.092 247.291 257.36 246.511 256.846C245.731 256.332 244.817 256.06 243.883 256.064C242.949 256.067 242.037 256.346 241.261 256.865C240.485 257.385 239.88 258.122 239.522 258.983C238.093 262.422 236.272 265.866 235.824 269.501C235.626 271.108 235.71 272.738 236.07 274.316C232.711 267.002 230.967 259.052 230.956 251.005C230.956 248.986 231.068 246.968 231.293 244.962C231.479 243.317 231.737 241.683 232.066 240.062C233.866 231.263 237.731 223.016 243.343 215.998C246.06 214.519 248.256 212.243 249.638 209.479C250.138 208.485 250.491 207.424 250.687 206.329C250.381 206.369 250.07 206.394 249.763 206.414C249.668 206.419 249.567 206.424 249.472 206.429L249.436 206.431C249.099 206.446 248.765 206.364 248.474 206.194C248.183 206.024 247.948 205.773 247.796 205.473C247.644 205.172 247.583 204.834 247.619 204.5C247.655 204.165 247.787 203.848 248 203.587C248.132 203.424 248.264 203.262 248.397 203.099C248.598 202.848 248.804 202.603 249.005 202.352C249.028 202.328 249.05 202.303 249.07 202.277C249.301 201.991 249.532 201.71 249.763 201.424C249.341 200.77 248.774 200.223 248.105 199.824C245.79 198.47 242.595 199.408 240.922 201.499C239.244 203.591 238.928 206.525 239.511 209.138C240.084 211.361 241.032 213.471 242.314 215.377C242.188 215.537 242.057 215.693 241.932 215.853C239.636 218.8 237.635 221.965 235.958 225.302C236.366 221.564 235.879 217.782 234.538 214.268C233.178 210.993 230.63 208.235 228.386 205.404C225.69 202.004 220.162 203.488 219.688 207.799C219.683 207.84 219.678 207.882 219.674 207.924C220.007 208.112 220.334 208.311 220.653 208.522C221.054 208.789 221.365 209.171 221.544 209.618C221.724 210.065 221.765 210.556 221.66 211.026C221.556 211.496 221.312 211.924 220.96 212.253C220.608 212.583 220.164 212.798 219.688 212.871L219.639 212.879C219.758 214.078 219.968 215.267 220.267 216.435C221.134 219.695 222.666 222.74 224.767 225.381C226.869 228.022 229.494 230.201 232.478 231.782C232.674 231.882 232.865 231.982 233.061 232.077C231.376 236.846 230.319 241.812 229.916 246.852C229.689 249.826 229.702 252.813 229.957 255.785L229.942 255.679C229.299 252.375 227.533 249.394 224.943 247.239C221.097 244.084 215.663 242.922 211.513 240.387C211.073 240.104 210.56 239.953 210.036 239.952C209.512 239.951 208.998 240.099 208.556 240.379C208.113 240.66 207.761 241.061 207.539 241.535C207.317 242.009 207.236 242.537 207.305 243.056C207.311 243.092 207.316 243.129 207.322 243.166C207.941 243.418 208.543 243.708 209.125 244.034C209.459 244.222 209.785 244.421 210.104 244.632C210.505 244.899 210.816 245.281 210.996 245.728C211.176 246.175 211.216 246.666 211.112 247.136C211.007 247.606 210.763 248.034 210.411 248.363C210.059 248.693 209.616 248.908 209.139 248.981L209.09 248.989C209.055 248.994 209.025 248.999 208.99 249.004C210.047 251.524 211.53 253.843 213.375 255.86C215.654 258.302 218.409 260.253 221.47 261.594C224.531 262.935 227.834 263.637 231.177 263.659H231.182C232.09 267.596 233.405 271.428 235.105 275.094H249.12C249.17 274.938 249.216 274.778 249.261 274.622C247.964 274.703 246.661 274.626 245.383 274.391C246.423 273.117 247.463 271.834 248.502 270.56C248.526 270.536 248.547 270.511 248.568 270.484C249.095 269.832 249.628 269.185 250.155 268.534L250.155 268.533C250.183 266.534 249.954 264.54 249.472 262.6L249.471 262.6Z" fill="#F2F2F2"/>
<path d="M195.503 275.002C195.463 275.002 195.423 275.001 195.382 275C194.357 274.942 193.394 274.49 192.693 273.741C191.992 272.991 191.608 272 191.62 270.974C191.62 264.734 187.156 261.094 182.732 260.255C178.307 259.417 172.817 261.168 170.525 266.974L168.442 272.195C166.641 273.99 164.2 274.997 161.656 274.997C159.111 274.997 156.671 273.99 154.869 272.195L154.746 272.073L154.823 271.916L191.62 196.747V194.904C191.569 194.337 191.57 193.765 191.621 193.198L191.62 3.87544C191.62 3.35649 191.725 2.84283 191.927 2.36492C192.13 1.887 192.426 1.45458 192.8 1.0933C193.173 0.732022 193.615 0.449251 194.099 0.261754C194.584 0.074258 195.101 -0.0141461 195.621 0.00179927C196.647 0.0603247 197.61 0.511477 198.311 1.26135C199.012 2.01123 199.396 3.00206 199.383 4.02761V193.219C199.434 193.787 199.434 194.359 199.382 194.926L199.383 196.746L236.258 272.073L236.134 272.195C234.333 273.99 231.892 274.997 229.348 274.997C226.804 274.997 224.363 273.99 222.562 272.195L222.507 272.113L220.478 266.974C218.187 261.168 212.697 259.418 208.272 260.255C203.848 261.094 199.383 264.734 199.383 270.974V271.127C199.383 272.154 198.975 273.14 198.247 273.866C197.519 274.593 196.533 275.002 195.503 275.002Z" fill="#94A3A9"/>
<path d="M262.86 137.033H128.141C126.575 137.032 125.074 136.41 123.966 135.304C122.859 134.199 122.236 132.7 122.234 131.136V37.0962C122.236 35.5327 122.859 34.0336 123.966 32.928C125.074 31.8224 126.575 31.2005 128.141 31.1988H262.86C264.426 31.2006 265.927 31.8225 267.035 32.9281C268.142 34.0337 268.765 35.5327 268.767 37.0962V131.136C268.765 132.7 268.142 134.199 267.035 135.304C265.927 136.41 264.426 137.032 262.86 137.033Z" fill="#C3C3C3"/>
<path d="M262.86 137.765H128.141C126.381 137.763 124.694 137.064 123.449 135.821C122.204 134.579 121.504 132.894 121.502 131.136V37.0961C121.504 35.3387 122.204 33.6537 123.449 32.411C124.694 31.1683 126.381 30.4693 128.141 30.4673H262.86C264.621 30.4694 266.308 31.1684 267.553 32.4111C268.797 33.6538 269.498 35.3387 269.5 37.0961V131.136C269.498 132.894 268.797 134.579 267.553 135.821C266.308 137.064 264.621 137.763 262.86 137.765ZM128.141 31.9304C126.77 31.9319 125.455 32.4766 124.485 33.4451C123.515 34.4135 122.969 35.7265 122.967 37.0961V131.136C122.969 132.506 123.515 133.819 124.485 134.787C125.455 135.756 126.77 136.3 128.141 136.302H262.86C264.232 136.3 265.547 135.756 266.517 134.787C267.487 133.819 268.033 132.506 268.034 131.136V37.0961C268.033 35.7266 267.487 34.4135 266.517 33.4451C265.547 32.4767 264.232 31.9319 262.86 31.9304H128.141Z" fill="#F8FAFC"/>
<path d="M215.42 37.0785H175.583C173.057 37.0757 170.636 36.0727 168.85 34.2896C167.064 32.5065 166.059 30.0889 166.057 27.5672V27.3943H224.947V27.5672C224.944 30.0889 223.939 32.5065 222.153 34.2896C220.367 36.0727 217.946 37.0757 215.42 37.0785Z" fill="#94A3A9"/>
<path d="M215.592 142.913H175.755C173.229 142.91 170.808 141.907 169.022 140.124C167.236 138.341 166.231 135.924 166.229 133.402V133.229H225.119V133.402C225.116 135.924 224.111 138.341 222.325 140.124C220.539 141.907 218.118 142.91 215.592 142.913Z" fill="#94A3A9"/>
<path d="M268.992 275.486C268.992 275.563 268.977 275.638 268.948 275.709C268.919 275.779 268.876 275.843 268.822 275.897C268.768 275.951 268.704 275.994 268.633 276.023C268.563 276.052 268.487 276.067 268.411 276.067H1.08127C0.927107 276.067 0.779272 276.006 0.670263 275.897C0.561255 275.788 0.5 275.64 0.5 275.486C0.5 275.333 0.561255 275.185 0.670263 275.076C0.779272 274.967 0.927107 274.906 1.08127 274.906H268.411C268.487 274.906 268.563 274.921 268.633 274.95C268.704 274.979 268.768 275.022 268.822 275.076C268.876 275.129 268.919 275.194 268.948 275.264C268.977 275.335 268.992 275.41 268.992 275.486Z" fill="#CCCCCC"/>
<path d="M90.5269 261.977H97.5685L100.918 234.858L90.5254 234.859L90.5269 261.977Z" fill="#9E616A"/>
<path d="M88.1419 258.509L99.2734 257.845V262.607L109.857 269.905C110.379 270.265 110.773 270.783 110.98 271.382C111.187 271.982 111.197 272.632 111.008 273.237C110.819 273.843 110.441 274.372 109.929 274.748C109.418 275.124 108.799 275.326 108.164 275.326H94.9112L92.6269 270.616L91.735 275.326H86.7383L88.1419 258.509Z" fill="#2F2E41"/>
<path d="M66.5771 111.14L65.8874 114.422L65.3008 126.529L88.866 123.344L90.6758 109.325L88.1744 105.221L66.5771 111.14Z" fill="#9E616A"/>
<path d="M54.8882 261.977H61.9298L65.2797 234.858L54.8867 234.859L54.8882 261.977Z" fill="#9E616A"/>
<path d="M51.0684 214.067L51.0681 213.994L53.704 201.708L55.3294 195.592L50.8114 159.781C49.7476 133.764 64.8656 121.257 64.9845 121.134L65.3124 120.794L89.5575 120.202C102.602 128.005 101.126 170.687 103.514 199.714C103.685 201.784 105.825 204.839 105.299 206.808C101.125 222.427 102.348 239.317 99.1676 239.817L89.4174 239.681L84.3816 216.863L89.03 199.459C86.9684 199.08 85.5437 189.017 85.5437 189.017C84.6454 187.952 81.5442 178.895 81.5442 178.895L77.4091 153.823L70.7655 196.946L72.3655 207.063L71.0414 210.542L65.3713 239.259L65.311 239.722L54.6209 238.656L51.0684 214.067Z" fill="#2F2E41"/>
<path d="M52.5052 258.509L63.6367 257.845V262.607L74.2198 269.904C74.7425 270.265 75.1362 270.783 75.3434 271.382C75.5505 271.982 75.5603 272.632 75.3712 273.237C75.1822 273.843 74.8042 274.372 74.2925 274.748C73.7809 275.124 73.1622 275.326 72.527 275.326H59.2745L56.9902 270.616L56.0983 275.326H51.1016L52.5052 258.509Z" fill="#2F2E41"/>
<path d="M86.0196 63.7927L91.9631 70.3862L99.1021 83.8207L95.5953 100.387L97.1285 108.16L99.3926 116.706C90.6689 121.524 80.3065 114.87 70.7866 111.914L61.4199 116.046L61.9152 104.672L62.1692 76.0156C62.179 74.915 62.4152 73.8281 62.8633 72.8224C63.3113 71.8167 63.9616 70.9137 64.7738 70.1694C65.586 69.4251 66.5427 68.8555 67.5846 68.4958C68.6265 68.1361 69.7313 67.994 70.8305 68.0784L77.1043 63.463L86.0196 63.7927Z" fill="#2563EB"/>
<path d="M84.3548 60.3412C91.2764 60.3412 96.8874 54.7391 96.8874 47.8285C96.8874 40.9179 91.2764 35.3157 84.3548 35.3157C77.4333 35.3157 71.8223 40.9179 71.8223 47.8285C71.8223 54.7391 77.4333 60.3412 84.3548 60.3412Z" fill="#9E616A"/>
<path d="M99.1022 43.3128C98.8814 44.5388 93.6055 45.1305 93.7643 42.9492C92.7378 45.0029 91.2039 47.9831 93.1577 51.397C92.3924 52.2292 91.9103 53.2818 91.7803 54.4041C91.6504 55.5265 91.8792 56.6611 92.4341 57.6458C92.99 58.5481 93.4558 59.5028 93.8247 60.4961C93.8991 60.7372 93.9522 60.9844 93.9835 61.2348C94.015 61.4864 93.978 61.7418 93.8766 61.9743C93.7751 62.2068 93.6129 62.4077 93.4069 62.556C93.2009 62.7044 92.9588 62.7946 92.7058 62.8173C92.4528 62.84 92.1984 62.7944 91.9692 62.6851C86.6546 60.0862 77.3866 60.5267 71.5723 62.1124C71.611 60.983 71.5955 59.8563 71.5258 58.7321C71.3135 60.1379 70.7456 61.4664 69.8756 62.5919C68.8801 62.8858 67.9039 63.1914 66.9588 63.4931C66.8146 63.5397 66.6605 63.5464 66.5129 63.5126C66.3652 63.4787 66.2295 63.4055 66.1202 63.3007C66.0109 63.1959 65.9321 63.0636 65.8922 62.9176C65.8523 62.7717 65.8527 62.6177 65.8935 62.472C66.0778 61.8045 66.1122 61.1046 65.9942 60.4223C65.7541 59.0067 65.0413 57.7266 64.5377 56.3846C64.0342 55.0426 63.7475 53.4994 64.3634 52.2038C65.3202 50.1927 68.0163 49.5777 69.2055 47.6943C70.5419 45.5788 69.5038 42.8212 69.7129 40.3267C70.0073 36.7995 72.9009 33.9337 76.1625 32.5491C81.8103 30.1512 88.8758 32.0931 93.1097 36.5253C93.7036 36.1249 94.3969 35.8967 95.1129 35.866C95.8288 35.8353 96.5393 36.0032 97.1654 36.3513C98.4166 37.0203 99.3152 37.3684 99.8769 38.6718C100.369 39.8165 99.3268 42.0829 99.1022 43.3128Z" fill="#2F2E41"/>
<path d="M93.7176 190.458L64.2319 161.019C63.8895 160.677 63.6973 160.212 63.6973 159.728C63.6973 159.244 63.8895 158.78 64.2319 158.438L84.8468 137.855C85.1899 137.513 85.6549 137.322 86.1396 137.322C86.6243 137.322 87.0893 137.513 87.4324 137.855L116.918 167.294C117.26 167.637 117.453 168.101 117.453 168.585C117.453 169.069 117.26 169.533 116.918 169.876L96.3031 190.458C95.9599 190.8 95.495 190.992 95.0103 190.992C94.5256 190.992 94.0607 190.8 93.7176 190.458Z" fill="white"/>
<path d="M95.0106 191.479C94.7064 191.48 94.4049 191.421 94.1238 191.305C93.8426 191.189 93.5872 191.018 93.3726 190.803L63.8868 161.364C63.4528 160.93 63.209 160.342 63.209 159.729C63.209 159.115 63.4528 158.527 63.8868 158.093L84.5018 137.511C84.9365 137.077 85.5257 136.834 86.14 136.834C86.7543 136.834 87.3435 137.077 87.7782 137.511L117.264 166.95C117.698 167.384 117.942 167.972 117.942 168.585C117.942 169.198 117.698 169.787 117.264 170.221L96.6487 190.803C96.434 191.018 96.1787 191.189 95.8975 191.305C95.6163 191.421 95.3149 191.48 95.0106 191.479ZM86.1399 137.809C85.9639 137.809 85.7896 137.843 85.627 137.91C85.4644 137.977 85.3168 138.076 85.1928 138.2L64.5775 158.783C64.3267 159.034 64.1859 159.374 64.1859 159.729C64.1859 160.083 64.3267 160.423 64.5775 160.674L94.0633 190.113C94.3188 190.356 94.658 190.491 95.0106 190.491C95.3633 190.491 95.7024 190.356 95.958 190.113L116.573 169.531C116.824 169.28 116.965 168.94 116.965 168.585C116.965 168.23 116.824 167.89 116.573 167.639L87.0872 138.2C86.9631 138.076 86.8154 137.977 86.6528 137.91C86.4902 137.843 86.3158 137.809 86.1399 137.809Z" fill="#E6E6E6"/>
<path d="M82.608 140.594C82.1144 139.963 81.7653 139.232 81.5853 138.452C81.4053 137.672 81.3988 136.862 81.5662 136.079C81.7336 135.296 82.0709 134.56 82.5543 133.921C83.0377 133.283 83.6554 132.758 84.364 132.383L84.828 83.2181L94.0316 87.4351L92.0073 134.985C92.5583 136.215 92.6383 137.604 92.232 138.89C91.8257 140.175 90.9613 141.266 89.8027 141.958C88.6442 142.649 87.2718 142.892 85.9458 142.641C84.6197 142.389 83.4321 141.661 82.608 140.594Z" fill="#9E616A"/>
<path d="M82.8574 70.7705C82.8574 70.7705 91.8105 66.4344 93.0487 74.6153C94.2869 82.7962 99.3799 104.088 99.3799 104.088L83.9254 102.997L82.8574 70.7705Z" fill="#9E616A"/>
<path d="M82.608 140.594C82.1144 139.963 81.7653 139.232 81.5853 138.452C81.4053 137.672 81.3988 136.862 81.5662 136.079C81.7336 135.296 82.0709 134.56 82.5543 133.921C83.0377 133.283 83.6554 132.758 84.364 132.383L84.828 83.2181L94.0316 87.4351L92.0073 134.985C92.5583 136.215 92.6383 137.604 92.232 138.89C91.8257 140.175 90.9613 141.266 89.8027 141.958C88.6442 142.649 87.2718 142.892 85.9458 142.641C84.6197 142.389 83.4321 141.661 82.608 140.594Z" fill="#9E616A"/>
<path d="M82.8574 70.7705C82.8574 70.7705 91.8105 66.4344 93.0487 74.6153C94.2869 82.7962 99.3799 104.088 99.3799 104.088L83.9254 102.997L82.8574 70.7705Z" fill="#2563EB"/>
</g>
<defs>
<clipPath id="clip0_276_546">
<rect width="269" height="277" fill="white" transform="translate(0.5 -3.05176e-05)"/>
</clipPath>
</defs>
</svg>
