<svg width="183" height="182" viewBox="0 0 183 182" fill="none" xmlns="http://www.w3.org/2000/svg">
<path d="M92.5555 166.068C137.518 166.068 173.968 146.252 173.968 121.809C173.968 97.3655 137.518 77.5502 92.5555 77.5502C47.5928 77.5502 11.1433 97.3655 11.1433 121.809C11.1433 146.252 47.5928 166.068 92.5555 166.068Z" fill="#F5F5F5"/>
<path d="M133.742 116.48C143.118 116.48 150.719 112.091 150.719 106.677C150.719 101.264 143.118 96.875 133.742 96.875C124.366 96.875 116.765 101.264 116.765 106.677C116.765 112.091 124.366 116.48 133.742 116.48Z" fill="#E0E0E0"/>
<path d="M41.9049 141.338C51.2811 141.338 58.8819 136.949 58.8819 131.535C58.8819 126.121 51.2811 121.733 41.9049 121.733C32.5288 121.733 24.928 126.121 24.928 131.535C24.928 136.949 32.5288 141.338 41.9049 141.338Z" fill="#E0E0E0"/>
<path d="M159.255 103.249L156.802 101.847C156.802 101.847 155.626 95.3644 156.503 89.7952C157.741 81.9619 163.073 79.2574 165.013 80.0363C166.954 80.8153 167.405 83.1376 163.921 87.6803C161.843 90.3339 159.204 95.9759 159.255 103.249Z" fill="#2563EB"/>
<g opacity="0.1">
<path d="M159.255 103.249L156.802 101.847C156.802 101.847 155.626 95.3644 156.503 89.7952C157.741 81.9619 163.073 79.2574 165.013 80.0363C166.954 80.8153 167.405 83.1376 163.921 87.6803C161.843 90.3339 159.204 95.9759 159.255 103.249Z" fill="black"/>
</g>
<path d="M158.087 100.06H158.112C158.135 100.058 158.157 100.051 158.178 100.04C158.198 100.029 158.216 100.014 158.231 99.9962C158.245 99.9782 158.256 99.9576 158.262 99.9354C158.269 99.9133 158.271 99.89 158.269 99.867C157.468 92.507 160.649 84.5791 164.056 81.4232C164.09 81.3913 164.111 81.3471 164.112 81.3004C164.114 81.2536 164.097 81.2081 164.065 81.1738C164.033 81.1396 163.989 81.1193 163.942 81.1176C163.896 81.1159 163.85 81.1329 163.816 81.1647C160.351 84.3643 157.107 92.4487 157.919 99.9071C157.925 99.948 157.945 99.9857 157.975 100.014C158.006 100.041 158.045 100.058 158.087 100.06Z" fill="white"/>
<path d="M166.058 107.176C166.444 107.398 167.241 106.914 167.547 106.707C168.072 106.351 168.495 105.866 168.777 105.298C169.093 104.653 169.201 103.925 169.087 103.216C169.022 102.847 168.935 102.482 168.825 102.124C168.719 101.76 168.617 101.396 168.515 101.05C168.389 100.701 168.335 100.329 168.359 99.958C168.45 99.23 169.087 98.7095 169.694 98.2654C170.35 97.774 171.034 97.1261 171.03 96.2416C170.981 95.5553 170.707 94.9043 170.251 94.3888C169.829 93.8538 169.327 93.3806 168.945 92.8164C168.642 92.4228 168.485 91.9366 168.501 91.4404C168.54 91.1377 168.641 90.8465 168.799 90.585C169.158 90.0373 169.472 89.4615 169.738 88.8633C169.953 88.2445 169.924 87.4728 169.44 87.0433C169.223 86.8845 168.977 86.7706 168.716 86.7081C168.454 86.6456 168.183 86.6358 167.918 86.6793C167.416 86.7403 166.933 86.9092 166.502 87.1744C165.097 87.957 164.296 89.6204 162.808 90.221C162.222 90.3936 161.626 90.5321 161.024 90.636C160.718 90.6916 160.427 90.8111 160.171 90.9867C159.914 91.1623 159.698 91.3901 159.535 91.6552C158.989 92.7472 160.005 94.094 159.619 95.2515C159.277 96.278 158.279 96.6711 157.723 97.5957C157.494 98.0038 157.402 98.4746 157.46 98.9388C157.508 99.7241 157.699 100.494 158.025 101.21C158.39 101.922 158.807 102.606 159.273 103.256C159.277 103.27 165.996 107.143 166.058 107.176Z" fill="#2563EB"/>
<path d="M162.076 105.058C162.099 105.057 162.122 105.052 162.143 105.043C162.165 105.033 162.184 105.02 162.2 105.003C162.216 104.986 162.228 104.966 162.236 104.944C162.244 104.922 162.248 104.899 162.247 104.876C161.96 97.9342 165.228 90.272 167.609 88.0443C167.626 88.0285 167.639 88.0096 167.648 87.9887C167.658 87.9677 167.663 87.9451 167.664 87.9221C167.664 87.8991 167.661 87.8762 167.652 87.8547C167.644 87.8332 167.632 87.8135 167.616 87.7968C167.6 87.7801 167.581 87.7666 167.56 87.7572C167.539 87.7478 167.517 87.7426 167.494 87.7419C167.471 87.7412 167.448 87.7451 167.426 87.7532C167.405 87.7614 167.385 87.7737 167.369 87.7895C164.941 90.0609 161.606 97.8505 161.909 104.898C161.912 104.94 161.931 104.98 161.962 105.009C161.993 105.039 162.033 105.056 162.076 105.058Z" fill="white"/>
<path d="M163.117 96.8568H163.168C164.812 96.4021 166.502 96.1299 168.206 96.045C168.252 96.0422 168.295 96.0217 168.326 95.9878C168.357 95.9539 168.374 95.9091 168.373 95.863C168.373 95.8398 168.368 95.8168 168.359 95.7954C168.35 95.7741 168.336 95.7549 168.319 95.7392C168.302 95.7234 168.282 95.7114 168.26 95.7039C168.238 95.6964 168.214 95.6936 168.191 95.6956C166.458 95.7829 164.739 96.06 163.066 96.5219C163.044 96.5286 163.024 96.5395 163.006 96.5541C162.988 96.5687 162.973 96.5866 162.962 96.6069C162.952 96.6272 162.945 96.6494 162.943 96.6723C162.94 96.6952 162.943 96.7183 162.95 96.7403C162.961 96.7751 162.984 96.8052 163.014 96.8262C163.044 96.8472 163.08 96.8579 163.117 96.8568Z" fill="white"/>
<path d="M18.1285 111.133L20.5673 109.724C20.5673 109.724 21.7503 103.241 20.8694 97.6721C19.6354 89.8388 14.3174 87.138 12.3627 87.9133C10.408 88.6886 9.97124 91.0146 13.4547 95.5573C15.5332 98.2108 18.194 103.864 18.1285 111.133Z" fill="#2563EB"/>
<g opacity="0.1">
<path d="M18.1285 111.133L20.5673 109.724C20.5673 109.724 21.7503 103.241 20.8694 97.6721C19.6354 89.8388 14.3174 87.138 12.3627 87.9133C10.408 88.6886 9.97124 91.0146 13.4547 95.5573C15.5332 98.2108 18.194 103.864 18.1285 111.133Z" fill="black"/>
</g>
<path d="M19.4281 110.758C19.3804 110.755 19.3358 110.734 19.3038 110.698C19.2718 110.663 19.255 110.616 19.257 110.569C19.8321 99.6486 18.296 93.4352 14.1173 89.7478C14.0837 89.7132 14.0649 89.6669 14.0649 89.6186C14.0649 89.5704 14.0837 89.524 14.1173 89.4894C14.1519 89.4558 14.1983 89.437 14.2465 89.437C14.2948 89.437 14.3411 89.4558 14.3757 89.4894C18.6455 93.2568 20.2216 99.5722 19.6392 110.601C19.6361 110.626 19.6281 110.649 19.6157 110.67C19.6033 110.692 19.5867 110.71 19.567 110.725C19.5473 110.739 19.5248 110.75 19.5009 110.756C19.4771 110.761 19.4523 110.762 19.4281 110.758Z" fill="white"/>
<path d="M18.8675 110.703C18.9184 108.359 17.5534 100.595 12.9597 97.7704C8.36605 94.9458 6.13473 98.4656 7.99477 100.599C9.35977 102.16 11.9005 103.289 14.292 106.517C15.9336 108.738 16.88 111.857 16.88 111.857L18.8675 110.703Z" fill="#2563EB"/>
<path d="M18.0448 111.613C17.9984 111.613 17.9537 111.596 17.9199 111.564C17.886 111.532 17.8656 111.489 17.8628 111.442C17.4224 105.524 14.0627 100.213 9.69104 98.5312C9.66858 98.5226 9.64802 98.5096 9.63056 98.4931C9.6131 98.4765 9.59906 98.4567 9.58926 98.4347C9.57946 98.4127 9.57408 98.3891 9.57343 98.365C9.57278 98.341 9.57688 98.317 9.58548 98.2946C9.59409 98.2721 9.60703 98.2515 9.62358 98.2341C9.64012 98.2166 9.65995 98.2026 9.68192 98.1928C9.70389 98.183 9.72758 98.1776 9.75162 98.1769C9.77567 98.1763 9.79962 98.1804 9.82208 98.189C14.332 99.9253 17.7755 105.363 18.2268 111.417C18.2288 111.441 18.2259 111.465 18.2184 111.488C18.2108 111.511 18.1987 111.533 18.1827 111.551C18.1668 111.569 18.1473 111.584 18.1255 111.595C18.1037 111.606 18.08 111.612 18.0558 111.613H18.0448Z" fill="white"/>
<path d="M110.603 41.6598C111.156 42.1148 111.789 42.3514 112.517 43.0576C112.978 43.5812 113.559 43.9848 114.21 44.2333C115.051 44.5682 115.841 44.4699 118.174 44.095C121.024 43.64 122.251 43.1595 123.481 42.1112C124.919 40.8845 128.137 37.1826 129.691 35.7302C131.336 34.1942 133.597 34.7875 133.597 34.7875C132.897 37.0642 131.856 39.2218 130.51 41.1866C129.265 42.9593 126.939 44.6592 125.887 45.5328C124.202 46.9342 123.306 47.4874 119.608 47.7677C116.816 47.9788 116.445 48.0444 114.148 47.9788C113.322 47.9534 112.809 47.9461 111.454 47.8332C110.867 47.7947 110.284 47.6935 109.718 47.5311C109.078 47.3837 108.464 47.1381 107.898 46.8031C107.16 46.3238 106.564 45.655 106.173 44.8666C105.959 44.4332 105.849 43.9558 105.852 43.4725C105.858 42.9854 106.036 42.5161 106.355 42.1476C106.417 42.0723 106.497 42.0136 106.588 41.9765C106.764 41.9464 106.945 41.9855 107.094 42.0857C107.967 42.5334 108.848 43.1522 109.765 43.5053C110.537 43.8001 111.127 43.9057 111.069 43.7492C111.01 43.5926 110.544 43.4507 110.064 42.9083C109.583 42.366 109.463 41.6125 109.773 41.3759C110.082 41.1393 110.064 41.2012 110.603 41.6598Z" fill="#FFA8A7"/>
<path d="M134.259 34.7766C133.379 34.3537 132.381 34.2445 131.431 34.4672C129.993 34.8821 128.839 35.8212 127.467 37.2954C126.095 38.7696 123.776 41.1502 123.776 41.1502C123.776 41.1502 124.919 44.0367 127.481 45.0632L132.854 40.0946L134.259 34.7766Z" fill="#E0E0E0"/>
<path d="M142.154 100.733H138.896V106.31H142.154V100.733Z" fill="#FFA8A7"/>
<path d="M133.138 102.138L129.884 102.251L129.72 96.3508L133.138 96.238V102.138Z" fill="#FFA8A7"/>
<path d="M143.552 59.1027C143.552 62.2113 143.002 80.3021 143.002 80.3021C143.075 81.1975 143.938 82.7882 144.007 86.0132C144.102 90.687 142.303 103.522 142.303 103.522C141.739 103.8 141.121 103.951 140.492 103.964C139.862 103.976 139.238 103.85 138.663 103.594C138.663 103.594 137.186 86.1952 136.6 81.5688C136.09 77.5284 135.227 66.5574 135.227 66.5574L133.695 79.7415C134.068 81.4399 134.201 83.1823 134.088 84.9176C133.935 87.0579 133.331 100.311 133.331 100.311C132.764 100.632 132.133 100.824 131.483 100.874C130.833 100.924 130.18 100.83 129.571 100.599C129.571 100.599 127.274 81.7035 127.238 79.7415C127.194 77.5029 128.086 54.6473 128.086 54.6473L143.552 59.1027Z" fill="#37474F"/>
<path d="M141.401 36.2216C142.118 36.5394 142.681 37.1264 142.97 37.856C143.304 38.7556 143.466 39.7102 143.446 40.6697V47.0506L143.541 59.1027C138.864 61.5669 132.923 61.7308 127.933 58.0871C127.933 58.0871 128.213 42.5771 128.213 40.04C128.213 39.9272 128.213 39.8107 128.213 39.676C128.395 36.036 131.962 33.5644 135.493 34.4672L138.456 35.2461L141.419 36.2216H141.401Z" fill="#F0F0F0"/>
<path d="M134.065 28.7168C136.471 28.1488 137.962 25.7375 137.394 23.3309C136.826 20.9243 134.414 19.4339 132.008 20.0019C129.601 20.5699 128.111 22.9812 128.679 25.3878C129.247 27.7944 131.658 29.2848 134.065 28.7168Z" fill="#2563EB"/>
<path opacity="0.5" d="M134.065 28.7168C136.471 28.1488 137.962 25.7375 137.394 23.3309C136.826 20.9243 134.414 19.4339 132.008 20.0019C129.601 20.5699 128.111 22.9812 128.679 25.3878C129.247 27.7944 131.658 29.2848 134.065 28.7168Z" fill="black"/>
<path d="M140.775 27.533C140.775 27.533 140.047 30.9436 139.759 31.5006C139.567 31.8489 139.247 32.1097 138.867 32.2286L138.918 29.8298L140.775 27.533Z" fill="#2563EB"/>
<path opacity="0.5" d="M140.775 27.533C140.775 27.533 140.047 30.9436 139.759 31.5006C139.567 31.8489 139.247 32.1097 138.867 32.2286L138.918 29.8298L140.775 27.533Z" fill="black"/>
<path d="M139.865 22.6517C140.119 22.6221 140.376 22.6509 140.617 22.7361C140.858 22.8213 141.076 22.9605 141.255 23.1431C141.852 23.751 141.517 25.662 140.775 27.533L139.41 27.6931L139.865 22.6517Z" fill="#2563EB"/>
<path opacity="0.5" d="M139.865 22.6517C140.119 22.6221 140.376 22.6509 140.617 22.7361C140.858 22.8213 141.076 22.9605 141.255 23.1431C141.852 23.751 141.517 25.662 140.775 27.533L139.41 27.6931L139.865 22.6517Z" fill="black"/>
<path d="M138.998 27.6931C139.271 27.8569 139.664 27.3291 139.999 26.9651C140.334 26.6011 141.455 26.1279 141.99 27.2891C142.526 28.4502 141.506 30.03 140.636 30.303C139.14 30.7726 138.918 29.8116 138.918 29.8116L138.82 35.3881C136.96 37.7723 131.798 37.5721 133.95 35.0787V33.437C133.283 33.5426 132.607 33.5767 131.933 33.539C130.841 33.3679 130.139 32.5016 129.804 31.3113C129.269 29.3966 129.076 27.8533 129.52 24.0895C130.018 19.9654 134.816 19.9217 137.408 21.5415C139.999 23.1613 138.998 27.6931 138.998 27.6931Z" fill="#FFA8A7"/>
<path d="M138.998 28.1518C139.137 28.1518 139.661 27.2854 139.999 26.976C140.473 26.5465 139.865 22.6517 139.865 22.6517C139.989 22.3149 140.012 21.949 139.931 21.5991C139.851 21.2492 139.669 20.9306 139.41 20.6825C138.762 19.9545 137.681 19.8926 135.832 19.5905C134.863 19.4376 133.393 19.1682 132.425 18.9862C131.271 18.7715 130.313 18.5458 129.513 19.2556C129.192 19.5319 128.965 19.9009 128.863 20.3118C128.762 20.7226 128.79 21.1548 128.945 21.5488C129.173 22.0395 129.581 22.4239 130.084 22.6226C130.084 22.6226 130.586 23.0703 132.341 23.2851C133.959 23.4049 135.584 23.3732 137.197 23.1904C137.706 23.1213 137.815 23.6163 138.088 24.9595C138.336 26.1425 138.536 28.1445 138.998 28.1518Z" fill="#2563EB"/>
<path opacity="0.5" d="M138.998 28.1518C139.137 28.1518 139.661 27.2854 139.999 26.976C140.473 26.5465 139.865 22.6517 139.865 22.6517C139.989 22.3149 140.012 21.949 139.931 21.5991C139.851 21.2492 139.669 20.9306 139.41 20.6825C138.762 19.9545 137.681 19.8926 135.832 19.5905C134.863 19.4376 133.393 19.1682 132.425 18.9862C131.271 18.7715 130.313 18.5458 129.513 19.2556C129.192 19.5319 128.965 19.9009 128.863 20.3118C128.762 20.7226 128.79 21.1548 128.945 21.5488C129.173 22.0395 129.581 22.4239 130.084 22.6226C130.084 22.6226 130.586 23.0703 132.341 23.2851C133.959 23.4049 135.584 23.3732 137.197 23.1904C137.706 23.1213 137.815 23.6163 138.088 24.9595C138.336 26.1425 138.536 28.1445 138.998 28.1518Z" fill="black"/>
<path d="M139.861 22.9538L141.517 22.0657C141.464 21.9558 141.39 21.8577 141.298 21.7771C141.207 21.6965 141.1 21.6351 140.984 21.5964C140.868 21.5577 140.746 21.5426 140.625 21.5519C140.503 21.5613 140.384 21.5949 140.276 21.6507C140.052 21.7729 139.885 21.9764 139.807 22.2191C139.73 22.4618 139.749 22.725 139.861 22.9538Z" fill="#2563EB"/>
<path opacity="0.5" d="M139.861 22.9538L141.517 22.0657C141.464 21.9558 141.39 21.8577 141.298 21.7771C141.207 21.6965 141.1 21.6351 140.984 21.5964C140.868 21.5577 140.746 21.5426 140.625 21.5519C140.503 21.5613 140.384 21.5949 140.276 21.6507C140.052 21.7729 139.885 21.9764 139.807 22.2191C139.73 22.4618 139.749 22.725 139.861 22.9538Z" fill="black"/>
<path d="M133.939 33.4371C133.939 33.4371 136.396 32.942 137.255 32.4834C137.766 32.2215 138.185 31.8101 138.456 31.304C138.327 31.8057 138.098 32.2761 137.783 32.6872C137.153 33.4917 133.953 34.0813 133.953 34.0813L133.939 33.4371Z" fill="#F28F8F"/>
<path d="M134.059 27.078C134.062 27.1745 134.093 27.268 134.149 27.3469C134.204 27.4257 134.282 27.4865 134.372 27.5214C134.462 27.5564 134.56 27.5641 134.655 27.5435C134.749 27.5229 134.835 27.475 134.903 27.4058C134.97 27.3365 135.015 27.2489 135.033 27.154C135.051 27.0591 135.04 26.9611 135.003 26.8721C134.965 26.7832 134.902 26.7073 134.822 26.6539C134.741 26.6005 134.647 26.572 134.55 26.572C134.418 26.5749 134.293 26.6295 134.201 26.7242C134.109 26.8189 134.058 26.946 134.059 27.078Z" fill="#263238"/>
<path d="M134.579 25.2179L135.635 25.8003C135.709 25.6557 135.725 25.4881 135.678 25.3323C135.632 25.1764 135.528 25.0443 135.387 24.9631C135.318 24.925 135.242 24.9013 135.163 24.8935C135.084 24.8857 135.004 24.894 134.929 24.9178C134.853 24.9416 134.783 24.9805 134.723 25.0321C134.663 25.0836 134.614 25.1469 134.579 25.2179Z" fill="#263238"/>
<path d="M134.161 30.4777L133.036 30.9C133.061 30.9748 133.101 31.0438 133.154 31.1028C133.206 31.1619 133.27 31.2098 133.341 31.2437C133.412 31.2777 133.49 31.297 133.569 31.3004C133.648 31.3039 133.726 31.2915 133.8 31.264C133.95 31.2044 134.071 31.0895 134.138 30.9431C134.205 30.7966 134.213 30.63 134.161 30.4777Z" fill="#F28F8F"/>
<path d="M129.811 25.6292L130.772 24.9012C130.729 24.8345 130.673 24.7773 130.606 24.7333C130.54 24.6893 130.466 24.6593 130.388 24.6453C130.309 24.6313 130.229 24.6336 130.152 24.6519C130.075 24.6703 130.002 24.7043 129.938 24.752C129.807 24.8525 129.719 25.0006 129.696 25.1646C129.672 25.3286 129.713 25.4954 129.811 25.6292Z" fill="#263238"/>
<path d="M130.106 26.936C130.109 27.0331 130.141 27.1269 130.198 27.2059C130.254 27.2849 130.333 27.3455 130.424 27.3802C130.514 27.4149 130.613 27.4221 130.708 27.401C130.803 27.3799 130.889 27.3314 130.957 27.2615C131.024 27.1916 131.07 27.1034 131.087 27.0079C131.105 26.9124 131.094 26.8138 131.056 26.7244C131.018 26.635 130.955 26.5587 130.874 26.5051C130.793 26.4515 130.698 26.4228 130.601 26.4228C130.535 26.4237 130.469 26.4378 130.408 26.4641C130.348 26.4905 130.293 26.5286 130.246 26.5763C130.2 26.624 130.164 26.6804 130.14 26.7421C130.116 26.8038 130.104 26.8697 130.106 26.936Z" fill="#263238"/>
<path d="M132.614 26.4701L132.454 29.4331L130.907 28.9053L132.614 26.4701Z" fill="#F28F8F"/>
<path d="M138.896 104.701V104.235C138.583 104.373 137.859 107.147 136.567 108.312C135.54 109.251 134.139 110.332 133.782 111.377C133.426 112.421 135.733 113.062 136.694 112.895C137.808 112.694 139.741 111.912 140.229 111.184C140.716 110.456 140.938 109.382 141.321 108.847C141.703 108.312 142.624 107.719 142.835 107.1C142.951 106.761 142.813 106.008 142.649 105.393C142.485 104.777 142.336 104.184 142.14 104.235C142.14 104.308 142.14 104.599 142.14 104.599C141.675 104.963 141.099 105.157 140.509 105.149C140.047 105.16 138.893 105.065 138.896 104.701Z" fill="#263238"/>
<path d="M129.851 101.247C129.68 101.247 129.542 101.49 129.17 101.895C128.613 102.458 127.966 102.924 127.256 103.274C126.036 103.882 123.663 104.821 122.589 105.305C121.919 105.607 121.952 106.419 122.644 106.878C123.335 107.336 125.01 107.671 127.012 107.223C128.104 106.976 129.531 105.968 130.433 106.022C131.336 106.077 133.021 106.062 133.688 105.604C134.354 105.145 134.088 104.166 133.899 103.321C133.695 102.404 133.436 100.97 133.134 101.035V101.352C132.741 101.945 130.721 102.186 129.858 101.749L129.851 101.247Z" fill="#263238"/>
<path d="M135.231 66.5574C133.547 66.0334 131.999 65.1462 130.695 63.9584C130.695 63.9584 131.569 65.5964 134.172 67.1216L133.808 78.6349L135.231 66.5574Z" fill="#263238"/>
<path d="M38.6217 45.6237H39.7828C41.5118 45.6237 43.17 46.3106 44.3926 47.5332C45.6152 48.7558 46.3021 50.414 46.3021 52.143V65.975H32.1061V52.143C32.1061 50.414 32.7929 48.7558 34.0155 47.5332C35.2381 46.3106 36.8963 45.6237 38.6253 45.6237H38.6217Z" fill="#263238"/>
<path d="M38.1558 133.977L37.2422 133.166C36.3576 132.358 35.6842 130.982 35.2948 130.057C35.0749 129.524 34.9612 128.953 34.9599 128.376V126.556H31.7712V129.515V129.584C31.9241 130.246 33.391 132.012 34.221 133.162C34.7815 133.934 35.8408 134.913 37.1075 135.084C38.3196 135.266 38.9348 134.887 38.1558 133.977Z" fill="#FFA8A7"/>
<path d="M47.376 129.122C47.4654 129.07 47.5434 129.001 47.6053 128.918C47.8528 128.576 47.6562 128.39 47.4742 128.117C47.2557 127.738 47.0729 127.34 46.9282 126.927C46.779 126.563 46.5861 125.915 46.5861 125.915C46.5861 125.915 46.5861 125.438 46.5861 125.245V123.425H43.3938V126.465C43.5576 127.193 44.2055 127.859 44.6278 128.423C44.9554 128.86 45.7998 129.082 46.3094 129.191C46.5328 129.248 46.7647 129.264 46.9938 129.238C47.1275 129.224 47.2573 129.185 47.376 129.122Z" fill="#FFA8A7"/>
<path d="M32.4046 80.029C29.9294 85.4344 32.4956 104.472 32.4956 104.472C32.4192 105.349 31.4036 107.074 31.0396 110.933C30.5992 115.494 31.7312 126.949 31.7312 126.949C32.2184 127.231 32.7672 127.39 33.3298 127.412C33.8924 127.434 34.4519 127.319 34.9599 127.076C34.9599 127.076 37.9993 109.83 38.5708 105.294C39.0695 101.338 40.0268 92.638 40.0268 92.638L41.9305 105.291C41.5349 106.567 41.2488 107.875 41.0751 109.2C40.8167 111.864 43.4011 124.284 43.4011 124.284C43.4011 124.284 44.4931 124.688 46.5933 124.379C46.5933 124.379 47.507 107.901 47.7472 104.686C48.1513 99.2919 47.5361 82.4387 46.546 79.2464L32.4046 80.029Z" fill="#37474F"/>
<path d="M40.0341 92.6343L40.8349 87.6148C40.8349 87.6148 44.2346 86.9086 45.7743 85.4599C45.7743 85.4599 44.1582 87.4728 41.7703 88.1317L40.8676 91.9937L41.6757 103.46L40.0341 92.6343Z" fill="#263238"/>
<path d="M34.9708 129.038V128.576C35.2765 128.71 35.99 131.426 37.2603 132.58C38.2686 133.501 39.6482 134.564 39.9976 135.59C40.3471 136.616 38.0793 137.246 37.1366 137.082C36.0446 136.886 34.1445 136.114 33.6677 135.401C33.1908 134.687 32.9652 133.632 32.5757 133.108C32.1862 132.583 31.2944 132.001 31.076 131.404C30.9595 131.073 31.0978 130.341 31.258 129.726C31.4182 129.111 31.5674 128.539 31.7603 128.59V128.954C32.2159 129.311 32.7795 129.503 33.3583 129.497C33.8387 129.489 34.9744 129.395 34.9708 129.038Z" fill="#263238"/>
<path d="M46.586 125.915C46.7498 125.915 46.95 126.17 47.314 126.566C47.8615 127.119 48.4976 127.577 49.1959 127.92C50.3935 128.521 52.7231 129.442 53.7787 129.919C54.4375 130.214 54.4047 131.011 53.7241 131.462C53.0434 131.914 51.4017 132.241 49.4289 131.801C48.3369 131.56 46.9537 130.567 46.0655 130.621C45.1773 130.676 43.5175 130.661 42.8696 130.21C42.2217 129.759 42.4765 128.798 42.6621 127.971C42.8659 127.069 43.1171 125.66 43.4156 125.722V126.035C43.8014 126.617 45.7852 126.854 46.6297 126.424L46.586 125.915Z" fill="#263238"/>
<path d="M42.0506 61.1083C42.8268 61.0401 43.6074 61.1715 44.3184 61.49C45.0294 61.8086 45.6472 62.3037 46.1129 62.9283C47.3905 64.5954 50.7539 71.4241 50.7539 71.4241C50.7539 71.4241 58.1394 70.929 58.4925 70.5031C58.8456 70.0773 58.649 69.2109 58.5508 68.7341C58.4525 68.2573 58.2923 67.2017 58.1868 66.9141C58.0011 66.3936 58.7692 66.5501 59.2205 67.0197C59.6719 67.4892 59.8721 68.4502 60.0978 68.614C60.3234 68.7778 62.0379 66.794 62.8678 65.8512C63.6977 64.9085 64.0908 64.2351 64.6478 64.6282C65.0518 64.9121 64.7934 65.4763 64.1964 66.2917C63.9176 66.6399 63.6599 67.0046 63.4247 67.3837C63.3556 67.5329 63.574 67.6494 63.6613 67.7258C63.8251 67.8714 64.109 68.108 64.1309 68.3337C64.1273 68.4554 64.1346 68.5773 64.1527 68.6977C64.2292 68.9707 64.5677 69.0981 64.6623 69.3638C64.7315 69.5567 64.6623 69.7715 64.6914 69.9717C64.7169 70.0991 64.7897 70.2156 64.8116 70.3357C64.8202 70.4645 64.801 70.5936 64.7551 70.7142C64.7093 70.8348 64.6379 70.9441 64.5458 71.0346C63.9598 71.7298 63.1626 71.9955 62.3946 72.4214C61.7576 72.7854 61.1024 72.9274 60.3671 73.255C59.6318 73.5826 50.6556 75.9049 49.3124 75.1587C47.9693 74.4125 42.8187 66.3244 42.8187 66.3244C40.8094 62.9938 42.0506 61.1083 42.0506 61.1083Z" fill="#FFA8A7"/>
<path d="M36.769 61.2539C33.5985 61.4723 33.3765 63.0047 32.583 64.6791C31.9751 65.9568 32.1753 67.4783 32.6376 68.8105L34.6432 75.1623C34.6432 75.1623 33.6058 77.6667 32.4046 80.029C37.952 83.1267 44.8789 81.485 46.546 79.2391C46.6188 78.7587 46.182 75.0131 45.9272 72.5634C46.9027 70.1137 47.1612 68.5594 46.7498 66.9396C45.9818 63.9329 43.0116 61.0027 41.6975 61.1156L36.769 61.2539Z" fill="#2563EB"/>
<path d="M31.7604 48.554L32.7213 50.0973C32.6232 50.1654 32.5123 50.2128 32.3954 50.2369C32.2784 50.2609 32.1578 50.2611 32.0408 50.2373C31.9238 50.2135 31.8129 50.1662 31.7146 50.0984C31.6164 50.0305 31.5329 49.9435 31.4692 49.8425C31.3438 49.6312 31.3041 49.3799 31.3582 49.1403C31.4124 48.9006 31.5563 48.6908 31.7604 48.554Z" fill="#263238"/>
<path d="M43.9726 48.4957C44.7224 48.9361 45.647 50.8217 45.556 54.7783C45.4795 58.1271 44.3912 58.9571 43.8488 59.1937C43.3064 59.4303 42.2508 59.2883 41.228 59.1172V61.1301C41.228 61.1301 42.6403 62.7718 42.553 63.6781C42.4656 64.5845 40.5109 64.8175 39.1896 63.9184C38.3271 63.3018 37.5865 62.5304 37.0056 61.6434V56.784C37.0056 56.784 36.3176 57.7049 35.1856 56.9551C34.0536 56.2052 34.0135 54.3488 34.6687 53.6791C35.3239 53.0093 36.7399 53.2241 37.002 54.145C37.002 54.145 38.6327 54.2032 40.8058 53.0129C41.651 52.5612 42.3781 51.917 42.9282 51.1322C43.4783 50.3475 43.8361 49.4443 43.9726 48.4957Z" fill="#FFA8A7"/>
<path d="M41.4392 53.9339C41.4405 54.0167 41.4174 54.0981 41.3728 54.1679C41.3281 54.2378 41.264 54.2929 41.1882 54.3265C41.1125 54.3601 41.0285 54.3707 40.9468 54.3569C40.8651 54.3432 40.7892 54.3057 40.7287 54.2491C40.6681 54.1925 40.6256 54.1194 40.6063 54.0388C40.587 53.9582 40.5919 53.8737 40.6203 53.7959C40.6487 53.718 40.6994 53.6502 40.766 53.601C40.8327 53.5517 40.9123 53.5232 40.9951 53.5189C41.0515 53.517 41.1077 53.5261 41.1606 53.546C41.2134 53.5658 41.2619 53.5958 41.3031 53.6343C41.3444 53.6729 41.3776 53.7192 41.401 53.7706C41.4243 53.822 41.4373 53.8774 41.4392 53.9339Z" fill="#263238"/>
<path d="M41.9268 56.784L42.906 57.097C42.8896 57.1637 42.8599 57.2263 42.8186 57.2811C42.7773 57.3359 42.7252 57.3817 42.6656 57.4158C42.606 57.4498 42.5402 57.4714 42.472 57.4792C42.4038 57.487 42.3347 57.4808 42.269 57.461C42.1342 57.4161 42.0226 57.3198 41.9585 57.193C41.8945 57.0661 41.8831 56.9192 41.9268 56.784Z" fill="#F28F8F"/>
<path d="M44.9081 52.6417L44.0417 52.052C44.0775 51.9944 44.1246 51.9446 44.1803 51.9058C44.2359 51.867 44.2989 51.84 44.3653 51.8264C44.4317 51.8127 44.5003 51.8128 44.5667 51.8266C44.6331 51.8403 44.696 51.8675 44.7515 51.9064C44.8676 51.985 44.9487 52.1054 44.9779 52.2425C45.007 52.3796 44.982 52.5226 44.9081 52.6417Z" fill="#263238"/>
<path d="M44.6969 53.6317C44.7013 53.6878 44.6945 53.7442 44.6769 53.7976C44.6593 53.851 44.6312 53.9003 44.5942 53.9427C44.5572 53.9851 44.5122 54.0197 44.4617 54.0444C44.4112 54.0691 44.3563 54.0835 44.3001 54.0867C44.2132 54.0946 44.126 54.0764 44.0496 54.0342C43.9732 53.9921 43.9112 53.9281 43.8715 53.8504C43.8319 53.7727 43.8163 53.685 43.827 53.5984C43.8377 53.5118 43.874 53.4304 43.9313 53.3647C43.9886 53.2989 44.0643 53.2518 44.1487 53.2295C44.233 53.2072 44.3221 53.2106 44.4044 53.2393C44.4868 53.268 44.5586 53.3208 44.6108 53.3907C44.6629 53.4607 44.6929 53.5446 44.6969 53.6317Z" fill="#263238"/>
<path d="M42.6403 53.3879L42.7058 55.925L44.0417 55.5136L42.6403 53.3879Z" fill="#F28F8F"/>
<path d="M41.228 59.1172C40.136 58.9753 37.952 58.3383 37.588 57.461C37.7245 57.9058 37.9953 58.2975 38.3633 58.5821C39.0258 59.15 41.228 59.787 41.228 59.787V59.1172Z" fill="#F28F8F"/>
<path opacity="0.1" d="M38.1886 80.6296C36.678 80.2656 35.1455 78.6204 35.8371 77.0078C36.0343 76.5551 36.3727 76.1784 36.8017 75.934C36.96 75.844 37.1425 75.8061 37.3235 75.8257C37.5045 75.8453 37.6748 75.9214 37.81 76.0432C37.082 75.5664 35.8335 73.2477 35.6661 72.4032L34.8107 69.5495C34.7311 68.8967 34.7894 68.2345 34.9817 67.6057L32.7504 65.0286L32.3391 65.3125C31.9751 66.43 32.2517 67.6931 32.6376 68.8106L34.6432 75.1624C34.6432 75.1624 33.6058 77.6667 32.4046 80.029C34.2097 80.9984 36.2016 81.5694 38.2461 81.7038C40.2905 81.8382 42.34 81.5327 44.2565 80.808C42.2407 81.1315 40.1819 81.071 38.1886 80.6296Z" fill="black"/>
<path d="M64.3893 143.958L57.1749 139.794C56.425 139.35 56.0064 138.236 56.0064 136.802L55.9773 105.16L63.2573 109.357L63.2282 141.101C63.2173 142.499 63.6686 143.496 64.3893 143.958Z" fill="#2563EB"/>
<path opacity="0.2" d="M64.3893 143.958L57.1749 139.794C56.425 139.35 56.0064 138.236 56.0064 136.802L55.9773 105.16L63.2573 109.357L63.2282 141.101C63.2173 142.499 63.6686 143.496 64.3893 143.958Z" fill="black"/>
<path d="M64.4402 143.987L64.3893 143.958C63.6613 143.496 63.2172 142.502 63.2172 141.101L63.2463 109.357L55.9663 105.16L62.2526 101.494L62.3108 101.461L63.2026 100.944L64.2073 100.246L64.2473 100.22L64.2873 100.191C64.3419 100.155 64.3856 100.115 64.4329 100.078L64.4912 100.038L64.6659 99.9071L64.8333 99.776C64.8795 99.7324 64.9268 99.6923 64.9753 99.6559L65.0299 99.6122L65.0809 99.5686C65.1755 99.4958 65.2665 99.4157 65.3539 99.3392L65.4922 99.2118L65.5431 99.1572C65.7142 99.0007 65.8853 98.8296 66.0418 98.6586L66.1001 98.604C66.1656 98.5336 66.2275 98.4644 66.2857 98.3965C66.3167 98.3638 66.3447 98.3285 66.3694 98.2909C66.3989 98.2631 66.4257 98.2327 66.4495 98.1999V98.1744L66.4713 98.1417L66.5114 98.098L66.7043 97.8541C66.7553 97.7813 66.8099 97.7049 66.8572 97.6284L66.8972 97.5811V97.5593C66.9664 97.461 67.0283 97.3627 67.0901 97.2644C67.152 97.1662 67.1957 97.0934 67.2467 97.006L67.2649 96.9732C67.3049 96.8932 67.3486 96.8204 67.3886 96.7403L67.4505 96.6274C67.5015 96.5292 67.5488 96.4309 67.5925 96.329L67.6725 96.1433C67.7045 96.0826 67.7313 96.0192 67.7526 95.954C67.7794 95.9028 67.8014 95.8492 67.8181 95.7939C67.8363 95.7429 67.8618 95.6847 67.88 95.6337C67.9273 95.5063 67.9674 95.3753 68.0111 95.2406C68.0438 95.135 68.0802 95.0222 68.1093 94.9094C68.1093 94.9094 68.1093 94.8802 68.1093 94.862C68.1457 94.7419 68.1712 94.6182 68.1967 94.498V94.458C68.1967 94.3634 68.2404 94.2651 68.2586 94.1632C68.2841 94.0248 68.3132 93.8647 68.3314 93.7154V93.639C68.3314 93.6062 68.3314 93.5735 68.3314 93.5371C68.3334 93.5238 68.3334 93.5103 68.3314 93.497C68.3297 93.4631 68.3297 93.4291 68.3314 93.3951C68.3496 93.2168 68.3641 93.0311 68.3787 92.871V92.7909V92.5907C68.3787 92.3286 68.386 92.0629 68.4005 91.7935V91.728C68.4005 91.6516 68.4005 91.5824 68.4005 91.5023V91.3058C68.4005 91.2184 68.4005 91.1238 68.4005 91.04C68.4025 91.017 68.4025 90.9939 68.4005 90.9709C68.4024 90.9479 68.4024 90.9247 68.4005 90.9017V90.8034C68.4005 90.6688 68.3823 90.5377 68.3714 90.4176V90.3958C68.3714 90.2793 68.3459 90.1701 68.335 90.0645C68.2692 89.5726 68.1683 89.086 68.0329 88.6085C67.9492 88.3173 67.8582 88.0516 67.7781 87.8004C67.5656 87.2301 67.4166 86.6381 67.334 86.035C67.334 85.9149 67.3049 85.7912 67.294 85.671C67.2831 85.5509 67.294 85.3908 67.2685 85.2415V85.176C67.2649 85.1409 67.2649 85.1055 67.2685 85.0704C67.2615 84.9942 67.2615 84.9174 67.2685 84.8411C67.2685 83.1631 68.2877 81.2011 69.5508 80.4731C69.676 80.3993 69.8107 80.343 69.9512 80.3057C70.0415 80.2811 70.1343 80.2664 70.2278 80.262C70.3173 80.2509 70.4077 80.2509 70.4972 80.262C70.5404 80.2679 70.5831 80.2776 70.6246 80.2911C70.7516 80.3288 70.8738 80.3814 70.9886 80.4476L78.396 84.6664C78.4389 84.6905 78.4802 84.7172 78.5197 84.7465C78.9493 85.0741 79.1895 85.6965 79.1895 86.5046C79.1895 86.6138 79.1895 86.7266 79.1677 86.9014V86.9487C79.1175 87.9992 78.949 89.0408 78.6653 90.0536C78.6035 90.312 78.5416 90.5705 78.4833 90.8435C78.4579 90.9345 78.4397 91.0291 78.4215 91.1201C78.3559 91.3968 78.2977 91.6843 78.2504 91.9937C78.2322 92.092 78.2176 92.1976 78.2031 92.2995L83.2991 89.413L90.5791 93.6099V101.96C90.5791 104.304 90.4007 105.869 90.0367 106.743C89.7819 107.347 89.3924 107.726 88.4933 108.243C87.7875 108.678 86.9784 108.918 86.1492 108.938C85.8871 108.938 85.6396 108.985 85.3884 109.018L85.0936 109.069C84.9989 109.087 84.9079 109.105 84.8097 109.131C84.6349 109.171 84.4457 109.229 84.2709 109.287L84.1253 109.342C83.8507 109.448 83.5821 109.57 83.3209 109.706C83.2875 109.719 83.2558 109.736 83.2263 109.757H83.2008L83.1571 109.779C83.0588 109.822 82.946 109.877 82.8295 109.943C81.7505 110.614 80.8342 111.516 80.1468 112.585C79.7826 113.126 79.4625 113.696 79.1895 114.289C78.9294 114.849 78.708 115.427 78.527 116.018L78.9274 115.592C79.3062 115.166 79.7097 114.762 80.1359 114.383C80.4914 114.076 80.8753 113.803 81.2825 113.568C81.8649 113.233 82.3308 112.964 82.6766 113.179L89.8911 117.477L89.9748 117.539C89.9949 117.558 90.0132 117.579 90.0294 117.601C90.0427 117.61 90.0529 117.623 90.0585 117.638C90.0796 117.661 90.0979 117.686 90.1131 117.714C90.1131 117.714 90.1131 117.714 90.1131 117.732C90.1355 117.767 90.1549 117.803 90.1714 117.841C90.357 118.234 90.4808 118.933 90.5354 120.105C90.5354 120.233 90.5354 120.368 90.5354 120.513C90.5354 120.877 90.5354 121.292 90.5354 121.747V130.094L66.7662 143.816C66.3798 144.054 65.9437 144.198 65.4922 144.239C65.3493 144.251 65.2056 144.251 65.0627 144.239C65.0153 144.236 64.9686 144.226 64.9243 144.21C64.753 144.16 64.5898 144.085 64.4402 143.987Z" fill="#2563EB"/>
<path opacity="0.1" d="M82.673 113.179L89.8802 117.477C89.538 117.259 89.0684 117.536 88.486 117.87C88.0792 118.104 87.6963 118.377 87.3431 118.686C86.9139 119.061 86.5091 119.464 86.131 119.891C85.2982 120.856 84.3396 121.706 83.2808 122.417C83.1389 122.519 82.9714 122.624 82.8149 122.715C80.1759 124.24 78.0283 122.617 78.0283 119.097C78.0415 118.049 78.2095 117.009 78.527 116.01C78.6617 115.868 78.7891 115.727 78.9201 115.592C79.2989 115.166 79.7024 114.762 80.1286 114.383C80.4828 114.076 80.8655 113.803 81.2716 113.568C81.8576 113.233 82.3308 112.964 82.673 113.179Z" fill="black"/>
<path opacity="0.1" d="M78.1813 92.3031L83.3027 89.413L90.5827 93.6135L84.3256 97.2244L82.4437 98.2072H82.4218H82.4036L82.269 98.2654L82.1998 98.2909L81.8868 98.4183L81.7121 98.4802L81.6647 98.4984C81.5628 98.5312 81.4645 98.5676 81.3699 98.593L81.1661 98.6476C81.0605 98.6768 80.9622 98.695 80.8639 98.7132H80.8312L80.6965 98.735C80.5758 98.7515 80.4543 98.7612 80.3325 98.7641H80.216C80.0742 98.7624 79.9329 98.7478 79.7938 98.7204L79.721 98.7022C79.6138 98.673 79.5091 98.6353 79.4079 98.5894C79.3779 98.5793 79.3497 98.5645 79.3242 98.5457C79.233 98.4934 79.1455 98.4351 79.0621 98.371H79.0439L78.9821 98.3164C78.8878 98.2292 78.8025 98.1329 78.7273 98.0288L78.6909 97.9852C78.4943 97.6823 78.3492 97.349 78.2613 96.9987L78.2431 96.9368C78.1958 96.7512 78.1631 96.5728 78.1303 96.3726V96.2744C78.0975 96.056 78.0721 95.823 78.0575 95.5864C78.0357 95.2734 78.0284 95.0004 78.0284 94.7274C78.0182 93.9166 78.0693 93.1062 78.1813 92.3031Z" fill="black"/>
<path opacity="0.1" d="M63.2463 109.357L55.9663 105.16L62.2526 101.494L62.3072 101.461H62.329L63.2208 100.944L64.2291 100.246L64.2655 100.22L64.3055 100.191C64.3601 100.155 64.4038 100.115 64.4511 100.078L64.5057 100.038L64.6841 99.9071L64.8515 99.776C64.8977 99.7324 64.945 99.6923 64.9935 99.6559L65.0481 99.6123L65.0991 99.5686C65.1937 99.4958 65.2847 99.4157 65.3721 99.3393L65.5104 99.2119L65.5613 99.1573C65.7324 99.0007 65.9035 98.8297 66.06 98.6586L66.1183 98.604C66.1838 98.5336 66.2457 98.4644 66.3039 98.3965C66.3349 98.3639 66.3629 98.3285 66.3876 98.2909C66.4167 98.2618 66.4386 98.2291 66.4641 98.1999L66.4859 98.1745L66.5114 98.1453L66.5478 98.098C66.6133 98.0179 66.6825 97.9378 66.7407 97.8541L66.8972 97.6321L66.9336 97.5811V97.5593C67.0028 97.461 67.0647 97.3627 67.1265 97.2645C67.1884 97.1662 67.2321 97.0934 67.2831 97.006V96.9696C67.3267 96.8932 67.3704 96.8204 67.4105 96.7403C67.4344 96.704 67.4563 96.6663 67.476 96.6275C67.5197 96.5255 67.5706 96.4273 67.6143 96.329L67.6944 96.1433C67.7235 96.0851 67.749 96.0232 67.7781 95.9577C67.8072 95.8922 67.8218 95.8521 67.84 95.7939C67.8582 95.7357 67.8837 95.6847 67.9019 95.6337C67.9492 95.5027 67.9892 95.3789 68.0329 95.2406C68.0657 95.1351 68.1021 95.0222 68.1312 94.9094C68.1312 94.9094 68.1312 94.8802 68.1312 94.862C68.1603 94.7456 68.1931 94.6182 68.2185 94.498V94.4617C68.2367 94.3597 68.2586 94.2651 68.2768 94.1632C68.3023 94.0249 68.3314 93.8647 68.3496 93.7155V93.639C68.3496 93.6099 68.3496 93.5735 68.3496 93.5371C68.3516 93.5238 68.3516 93.5103 68.3496 93.497C68.3496 93.4643 68.3496 93.4279 68.3496 93.3915C68.3714 93.2095 68.386 93.0275 68.3969 92.871V92.7909C68.3969 92.7217 68.3969 92.6635 68.3969 92.5907C68.3969 92.3286 68.4042 92.0629 68.4187 91.7935V91.728C68.4187 91.6516 68.4187 91.5824 68.4187 91.5023V91.3058C68.4187 91.2184 68.4187 91.1238 68.4187 91.0364V90.9709C68.4206 90.9479 68.4206 90.9248 68.4187 90.9017V90.8035C68.4187 90.6688 68.4005 90.5377 68.3896 90.4176V90.3921L68.3569 90.0645C68.2911 89.5726 68.1901 89.086 68.0547 88.6085C67.9747 88.3137 67.8837 88.048 67.7999 87.8005C67.5874 87.2301 67.4385 86.6381 67.3559 86.0351C67.3559 85.9149 67.3267 85.7912 67.3158 85.6711C67.3049 85.5509 67.3158 85.3944 67.294 85.2415V85.176C67.294 85.1396 67.294 85.1032 67.294 85.0668C67.287 84.9905 67.287 84.9138 67.294 84.8375C67.294 83.1595 68.3132 81.1975 69.5763 80.4695C69.7015 80.3957 69.8362 80.3394 69.9767 80.3021C70.067 80.2774 70.1598 80.2628 70.2533 80.2584C70.3425 80.2437 70.4335 80.2437 70.5227 80.2584C70.5659 80.2642 70.6086 80.274 70.6501 80.2875C70.7771 80.3252 70.8993 80.3777 71.0141 80.444L78.396 84.6664C78.2414 84.5771 78.0682 84.5248 77.89 84.5135C77.7606 84.5086 77.631 84.5196 77.5042 84.5463C77.2924 84.5938 77.0897 84.6749 76.9036 84.7865C76.6811 84.9189 76.4747 85.0764 76.2884 85.2561C75.7794 85.7577 75.3749 86.3553 75.0981 87.0142C75.0326 87.1562 74.9817 87.3018 74.9271 87.451C74.858 87.6599 74.8008 87.8726 74.756 88.088C74.6762 88.4343 74.6347 88.7883 74.6322 89.1436C74.6322 89.2419 74.6322 89.3547 74.6322 89.4785V89.5149C74.6472 90.1051 74.7315 90.6915 74.8834 91.2621C74.9052 91.3567 74.9343 91.4477 74.9598 91.5387C75.0181 91.7244 75.0763 91.9027 75.1345 92.0847C75.2183 92.3359 75.3093 92.598 75.393 92.8928C75.4221 92.9947 75.4476 93.0967 75.4731 93.1986C75.4985 93.3005 75.524 93.4133 75.5531 93.5262C75.634 93.906 75.6935 94.29 75.7315 94.6764V94.6946C75.728 94.7589 75.728 94.8233 75.7315 94.8875V95.0841V95.135V95.186C75.7315 95.2297 75.7315 95.2734 75.7315 95.3207C75.7351 95.3655 75.7351 95.4106 75.7315 95.4554C75.7315 95.4991 75.7315 95.5464 75.7315 95.59V95.7903C75.7315 95.8594 75.7315 95.9322 75.7315 96.0123V96.045C75.7315 96.1797 75.7315 96.3144 75.7315 96.4491C75.7315 96.5838 75.7315 96.7148 75.7133 96.8495C75.7133 96.915 75.7133 96.9842 75.7133 97.046V97.1261C75.7133 97.2972 75.6878 97.4719 75.666 97.6467C75.666 97.7304 75.6441 97.8105 75.6332 97.8978V97.967L75.5568 98.422L75.4913 98.7168V98.7532C75.4913 98.8224 75.4621 98.8915 75.4403 98.9643C75.4185 99.0371 75.4039 99.1027 75.3857 99.1645C75.3675 99.2264 75.3857 99.2228 75.3675 99.2519C75.3493 99.281 75.3129 99.4157 75.2911 99.4994C75.251 99.6305 75.2073 99.7615 75.16 99.8889C75.1127 100.016 75.0763 100.107 75.0363 100.213C74.9962 100.318 74.9307 100.464 74.8761 100.577L74.7269 100.883C74.6977 100.937 74.6686 100.999 74.6359 101.054L74.5449 101.225L74.523 101.261C74.5003 101.306 74.4748 101.35 74.4466 101.392L74.4211 101.436C74.4054 101.464 74.3872 101.491 74.3665 101.516C74.3046 101.618 74.2427 101.716 74.1772 101.814V101.836L74.1408 101.887C74.1165 101.925 74.0898 101.962 74.0607 101.996C74.0374 102.034 74.0118 102.071 73.9843 102.106L73.9151 102.197C73.8768 102.251 73.8355 102.303 73.7914 102.353L73.755 102.4L73.7149 102.455L73.6312 102.553L73.6057 102.582C73.6057 102.604 73.5693 102.63 73.5475 102.652L73.4529 102.757C73.4274 102.79 73.3946 102.823 73.3619 102.859L73.3073 102.914C73.149 103.089 72.9813 103.255 72.8049 103.412L72.754 103.467L72.612 103.594C72.5283 103.674 72.4373 103.751 72.3427 103.827L72.2917 103.867L72.2662 103.893L72.2407 103.915L72.0988 104.031L71.7348 104.293L71.6802 104.337L71.5346 104.446L71.4545 104.501L70.4462 105.2L69.5544 105.717L69.5253 105.738L69.4671 105.767L63.2463 109.357Z" fill="black"/>
<mask id="mask0_173_236" style="mask-type:luminance" maskUnits="userSpaceOnUse" x="78" y="73" width="43" height="58">
<path d="M82.8223 119.37C82.8987 119.326 82.9861 119.265 83.0807 119.199C83.8771 118.662 84.5971 118.019 85.221 117.288C85.545 116.924 85.8326 116.633 86.1602 116.316L86.2111 116.265L86.3058 116.174L86.3494 116.131C86.5132 115.978 86.6734 115.836 86.8336 115.697L89.8511 117.499C89.913 117.538 89.9673 117.587 90.0113 117.645C90.0372 117.675 90.0604 117.708 90.0804 117.743V117.765C90.0996 117.798 90.1166 117.832 90.1314 117.867V117.9L90.1751 118.012C90.1751 118.012 90.1751 118.042 90.1751 118.056C90.1906 118.097 90.204 118.138 90.2151 118.18C90.2151 118.198 90.2151 118.216 90.2151 118.235C90.2151 118.253 90.2406 118.333 90.2552 118.387V118.435C90.2552 118.5 90.2806 118.569 90.2952 118.646C90.2952 118.73 90.3207 118.817 90.3352 118.908V118.93L90.368 119.192C90.368 119.221 90.368 119.25 90.368 119.279L90.3898 119.505C90.3898 119.545 90.3898 119.585 90.3898 119.621C90.3898 119.658 90.3898 119.771 90.408 119.851C90.4262 119.931 90.408 119.942 90.408 119.989V120.226C90.408 120.277 90.408 120.331 90.408 120.386C90.408 120.44 90.408 120.557 90.408 120.644C90.408 120.732 90.408 120.75 90.408 120.804C90.408 120.859 90.408 121.012 90.408 121.117V121.263C90.408 121.423 90.408 121.583 90.408 121.754V130.094L120.256 112.855V108.148C120.258 108.12 120.258 108.092 120.256 108.064V73.0257L113.995 76.6402L113.879 76.7094L113.806 76.7531L112.572 77.5175C112.078 77.8444 111.603 78.1992 111.149 78.5803L111.12 78.6058L111.043 78.6677C110.93 78.7623 110.825 78.8606 110.719 78.9589L110.69 78.988L110.555 79.1191C110.457 79.2137 110.363 79.3083 110.268 79.4066L110.09 79.5995C110.002 79.6978 109.915 79.7961 109.831 79.898C109.747 79.9999 109.722 80.0327 109.66 80.1164C109.598 80.2001 109.496 80.3275 109.42 80.4331L109.289 80.626L109.26 80.677L109.223 80.7279C109.161 80.8226 109.099 80.9172 109.045 81.0119C108.99 81.1065 108.961 81.1538 108.925 81.2303L108.892 81.2849C108.783 81.4887 108.674 81.7035 108.579 81.9219L108.553 81.9765C108.513 82.0675 108.47 82.1585 108.433 82.2531C108.397 82.3477 108.361 82.446 108.328 82.5443L108.302 82.6171C108.262 82.7299 108.222 82.8391 108.189 82.9556C108.157 83.0721 108.12 83.1922 108.088 83.3196C108.055 83.447 108.026 83.5671 107.997 83.6836C107.967 83.8001 107.946 83.9239 107.924 84.0476C107.902 84.1714 107.876 84.3097 107.858 84.4444V84.4699C107.858 84.5791 107.825 84.6883 107.811 84.8011C107.796 84.9139 107.782 85.0923 107.767 85.2488V85.3362C107.767 85.4199 107.767 85.5036 107.749 85.5873C107.749 85.7657 107.749 85.9513 107.749 86.2134V86.2498C107.749 86.2971 107.749 86.3408 107.749 86.3881C107.72 87.7291 107.943 89.0636 108.404 90.323C108.71 91.1392 108.879 91.9999 108.907 92.871V92.911C108.907 93.0311 108.925 93.144 108.925 93.2459C108.907 94.1364 108.678 95.0099 108.255 95.7939C107.895 96.5376 107.337 97.1675 106.642 97.6139C106.532 97.6755 106.418 97.729 106.3 97.7741L106.242 97.7959C106.138 97.8314 106.031 97.8558 105.922 97.8687H105.863C105.761 97.8797 105.657 97.8797 105.554 97.8687H105.532C105.429 97.8521 105.328 97.8202 105.234 97.7741L105.205 97.7559L102.056 95.9067C102.056 95.8121 102.056 95.7211 102.082 95.6265C102.107 95.5318 102.107 95.4081 102.122 95.2989C102.151 95.0732 102.18 94.8548 102.216 94.6437C102.253 94.4325 102.282 94.2578 102.318 94.0722C102.34 93.9739 102.358 93.8793 102.376 93.7883C102.464 93.3842 102.555 92.9802 102.66 92.547C102.975 91.4356 103.141 90.2876 103.155 89.1327C103.155 88.0407 103.061 87.5493 102.766 87.3746L99.1768 85.3034L93.0834 88.816L90.5755 87.36V90.272L88.3915 91.5424L87.6926 91.9428L90.6046 93.6172V97.9415V101.967C90.6046 104.311 90.4262 105.877 90.0622 106.75C89.8074 107.351 89.418 107.729 88.5189 108.25C87.8119 108.686 87.0015 108.926 86.1711 108.945C85.9163 108.945 85.6615 108.993 85.4176 109.025L85.1191 109.076C85.0281 109.094 84.9335 109.113 84.8352 109.138C84.6531 109.181 84.4733 109.233 84.2965 109.295H84.2601L84.1509 109.331C83.876 109.437 83.6074 109.558 83.3464 109.695L83.2482 109.742H83.2263H83.1826C83.0694 109.791 82.9588 109.846 82.8514 109.906C81.7739 110.577 80.8599 111.48 80.176 112.549C80.0013 112.804 79.8375 113.069 79.681 113.342L79.6191 113.462C79.4844 113.703 79.357 113.947 79.2551 114.19L79.2296 114.249C78.9689 114.809 78.7475 115.387 78.5671 115.978C78.4037 116.511 78.282 117.056 78.2031 117.608L81.3918 119.45C81.6169 119.561 81.8669 119.612 82.1176 119.598C82.3682 119.584 82.611 119.506 82.8223 119.37Z" fill="white"/>
</mask>
<g mask="url(#mask0_173_236)">
<path d="M91.0159 109.389L83.2664 104.916L83.4374 104.679L83.4556 104.657L83.5394 104.537C83.6631 104.355 83.7796 104.173 83.9034 103.98L83.9361 103.922C84.049 103.722 84.1582 103.503 84.2637 103.274C84.2856 103.219 84.311 103.165 84.3329 103.107V103.07C84.3875 102.939 84.453 102.783 84.5149 102.608C84.544 102.532 84.5695 102.455 84.5986 102.371V102.324C84.6423 102.193 84.686 102.062 84.7224 101.927C84.7588 101.793 84.7842 101.713 84.8134 101.6C84.8425 101.487 84.8716 101.356 84.9044 101.236C84.9371 101.116 84.9553 100.995 84.9772 100.872C84.999 100.748 85.0245 100.642 85.0427 100.53V100.475C85.0645 100.366 85.0827 100.249 85.1009 100.133C85.1191 100.016 85.1191 99.9981 85.13 99.9326V99.8598C85.2101 99.2774 85.2574 98.6658 85.2975 98.0034V97.9306L85.3375 96.1433V87.6439L93.058 92.1648V100.668L93.0179 102.459V102.528C92.9852 103.19 92.9342 103.802 92.8578 104.381V104.457C92.8578 104.526 92.8396 104.592 92.8286 104.661C92.8177 104.73 92.7959 104.89 92.774 104.999V105.05C92.7558 105.171 92.734 105.28 92.7122 105.396C92.6903 105.513 92.6612 105.633 92.6321 105.76C92.603 105.888 92.5775 106.008 92.5484 106.124C92.5192 106.241 92.4865 106.346 92.4574 106.452C92.4282 106.557 92.3773 106.718 92.33 106.845V106.9C92.3045 106.976 92.2754 107.06 92.2462 107.136C92.188 107.304 92.1188 107.464 92.0642 107.598L92.046 107.631L91.9805 107.799C91.875 108.024 91.7658 108.243 91.6529 108.45L91.6202 108.508C91.5146 108.69 91.3981 108.872 91.2744 109.065C91.2484 109.105 91.2192 109.143 91.187 109.178V109.204L91.0159 109.389Z" fill="#2563EB"/>
<path d="M85.3411 124.171L85.363 117.153L85.2538 117.266C85.5741 116.902 85.8689 116.607 86.1893 116.294L86.2439 116.243L86.3385 116.152L86.404 116.116C87.0161 115.526 87.6954 115.011 88.4279 114.58L88.5079 114.54H88.5261L88.5807 114.507C88.7555 114.409 88.9447 114.321 89.1013 114.238C89.1486 114.212 89.1995 114.194 89.2469 114.172L89.2978 114.147C89.4143 114.103 89.5381 114.048 89.6618 114.008C89.7273 113.979 89.7892 113.965 89.8475 113.943H89.8766C89.9821 113.917 90.0841 113.888 90.1787 113.87C90.2733 113.852 90.3243 113.841 90.3935 113.834C90.4831 113.827 90.5732 113.827 90.6628 113.834C90.7307 113.83 90.7988 113.83 90.8667 113.834C90.9465 113.841 91.0256 113.854 91.1033 113.874H91.136L91.2853 113.91C91.3612 113.937 91.4344 113.971 91.5037 114.012C91.5816 114.05 91.656 114.095 91.7257 114.147C91.81 114.207 91.8891 114.274 91.9623 114.347C92.0038 114.391 92.0427 114.437 92.0788 114.485L92.1043 114.522L92.1261 114.547C92.1638 114.595 92.1991 114.645 92.2317 114.696C92.278 114.766 92.3193 114.839 92.3554 114.915C92.3918 114.984 92.4246 115.046 92.4537 115.115C92.4828 115.184 92.5265 115.29 92.5629 115.384C92.5993 115.479 92.6102 115.523 92.6321 115.595C92.6539 115.668 92.6939 115.799 92.7231 115.909L92.7667 116.091V116.12C92.7922 116.24 92.8213 116.364 92.8432 116.484C92.8432 116.516 92.8432 116.553 92.8432 116.589V116.633C92.9233 117.146 92.9815 117.725 93.0215 118.406V118.435L93.0616 120.058V128.678L85.3411 124.171Z" fill="#2563EB"/>
<path d="M81.2426 119.436L73.624 115.024C73.1181 114.755 72.8232 114.048 72.8232 113.113C72.8554 112.003 73.204 110.926 73.8279 110.008L73.9735 109.804C73.9371 109.863 73.8934 109.921 73.857 109.975L81.6029 114.449C81.5827 114.474 81.5644 114.501 81.5483 114.529C80.9223 115.445 80.5735 116.521 80.5437 117.63C80.5437 118.508 80.813 119.134 81.2426 119.436Z" fill="#2563EB"/>
<path d="M91.0159 109.389L83.2664 104.916L83.4374 104.679L83.4556 104.657L83.5394 104.537C83.6631 104.355 83.7796 104.173 83.9034 103.98L83.9361 103.922C84.049 103.722 84.1582 103.503 84.2637 103.274C84.2856 103.219 84.311 103.165 84.3329 103.107V103.07C84.3875 102.939 84.453 102.783 84.5149 102.608C84.544 102.532 84.5695 102.455 84.5986 102.371V102.324C84.6423 102.193 84.686 102.062 84.7224 101.927C84.7588 101.793 84.7842 101.713 84.8134 101.6C84.8425 101.487 84.8716 101.356 84.9044 101.236C84.9371 101.116 84.9553 100.995 84.9772 100.872C84.999 100.748 85.0245 100.642 85.0427 100.53V100.475C85.0645 100.366 85.0827 100.249 85.1009 100.133C85.1191 100.016 85.1191 99.9981 85.13 99.9326V99.8598C85.2101 99.2774 85.2574 98.6658 85.2975 98.0034V97.9306L85.3375 96.1433V87.6439L93.058 92.1648V100.668L93.0179 102.459V102.528C92.9852 103.19 92.9342 103.802 92.8578 104.381V104.457C92.8578 104.526 92.8396 104.592 92.8286 104.661C92.8177 104.73 92.7959 104.89 92.774 104.999V105.05C92.7558 105.171 92.734 105.28 92.7122 105.396C92.6903 105.513 92.6612 105.633 92.6321 105.76C92.603 105.888 92.5775 106.008 92.5484 106.124C92.5192 106.241 92.4865 106.346 92.4574 106.452C92.4282 106.557 92.3773 106.718 92.33 106.845V106.9C92.3045 106.976 92.2754 107.06 92.2462 107.136C92.188 107.304 92.1188 107.464 92.0642 107.598L92.046 107.631L91.9805 107.799C91.875 108.024 91.7658 108.243 91.6529 108.45L91.6202 108.508C91.5146 108.69 91.3981 108.872 91.2744 109.065C91.2484 109.105 91.2192 109.143 91.187 109.178V109.204L91.0159 109.389Z" fill="#263238"/>
<path d="M85.3411 124.171L85.363 117.153L85.2538 117.266C85.5741 116.902 85.8689 116.607 86.1893 116.294L86.2439 116.243L86.3385 116.152L86.404 116.116C87.0161 115.526 87.6954 115.011 88.4279 114.58L88.5079 114.54H88.5261L88.5807 114.507C88.7555 114.409 88.9447 114.321 89.1013 114.238C89.1486 114.212 89.1995 114.194 89.2469 114.172L89.2978 114.147C89.4143 114.103 89.5381 114.048 89.6618 114.008C89.7273 113.979 89.7892 113.965 89.8475 113.943H89.8766C89.9821 113.917 90.0841 113.888 90.1787 113.87C90.2733 113.852 90.3243 113.841 90.3935 113.834C90.4831 113.827 90.5732 113.827 90.6628 113.834C90.7307 113.83 90.7988 113.83 90.8667 113.834C90.9465 113.841 91.0256 113.854 91.1033 113.874H91.136L91.2853 113.91C91.3612 113.937 91.4344 113.971 91.5037 114.012C91.5816 114.05 91.656 114.095 91.7257 114.147C91.81 114.207 91.8891 114.274 91.9623 114.347C92.0038 114.391 92.0427 114.437 92.0788 114.485L92.1043 114.522L92.1261 114.547C92.1638 114.595 92.1991 114.645 92.2317 114.696C92.278 114.766 92.3193 114.839 92.3554 114.915C92.3918 114.984 92.4246 115.046 92.4537 115.115C92.4828 115.184 92.5265 115.29 92.5629 115.384C92.5993 115.479 92.6102 115.523 92.6321 115.595C92.6539 115.668 92.6939 115.799 92.7231 115.909L92.7667 116.091V116.12C92.7922 116.24 92.8213 116.364 92.8432 116.484C92.8432 116.516 92.8432 116.553 92.8432 116.589V116.633C92.9233 117.146 92.9815 117.725 93.0215 118.406V118.435L93.0616 120.058V128.678L85.3411 124.171Z" fill="#263238"/>
<path d="M81.2426 119.436L73.624 115.024C73.1181 114.755 72.8232 114.048 72.8232 113.113C72.8554 112.003 73.204 110.926 73.8279 110.008L73.9735 109.804C73.9371 109.863 73.8934 109.921 73.857 109.975L81.6029 114.449C81.5827 114.474 81.5644 114.501 81.5483 114.529C80.9223 115.445 80.5735 116.521 80.5437 117.63C80.5437 118.508 80.813 119.134 81.2426 119.436Z" fill="#263238"/>
<path d="M81.3081 119.461L81.2571 119.432C80.8276 119.13 80.5583 118.504 80.5583 117.641C80.588 116.532 80.9369 115.456 81.5629 114.54C81.579 114.512 81.5972 114.485 81.6175 114.46L73.8716 109.986C73.908 109.932 73.9517 109.873 73.9881 109.815C74.0863 109.688 74.1883 109.568 74.2938 109.451C74.3432 109.394 74.3954 109.339 74.4503 109.287C74.504 109.228 74.5624 109.173 74.6251 109.124C74.7748 108.984 74.9397 108.862 75.1165 108.76C75.1813 108.722 75.2481 108.688 75.3167 108.658L75.404 108.621H75.4259C75.7477 108.45 76.0885 108.317 76.4414 108.224L76.5652 108.195C76.8846 108.13 77.2081 108.088 77.5334 108.068C78.6798 108.028 79.7957 107.688 80.7694 107.082L81.0242 106.925C81.1006 106.881 81.1698 106.834 81.2426 106.783C81.3154 106.732 81.3554 106.714 81.41 106.677H81.4319L81.7012 106.481L81.956 106.281L82.0033 106.244L82.0434 106.208L82.0725 106.182L82.1817 106.088C82.2145 106.059 82.2545 106.03 82.2873 105.997C82.32 105.964 82.4183 105.88 82.4838 105.815L82.5748 105.724L82.6149 105.68L82.775 105.513C82.8405 105.444 82.9061 105.371 82.9679 105.298L82.9934 105.269L83.099 105.145C83.1463 105.08 83.2045 105.014 83.2519 104.945L91.0051 109.422L91.1434 109.233V109.207C91.1756 109.172 91.2048 109.134 91.2307 109.094C91.3545 108.905 91.471 108.73 91.5765 108.538L91.6093 108.479C91.7221 108.272 91.8313 108.053 91.9369 107.828L92.0024 107.66L92.0206 107.628C92.0752 107.493 92.1444 107.333 92.2026 107.165C92.2317 107.089 92.2609 107.005 92.2863 106.929V106.874C92.3337 106.747 92.3737 106.616 92.4137 106.481C92.4538 106.346 92.472 106.266 92.5047 106.153C92.5375 106.04 92.563 105.909 92.5885 105.789C92.6139 105.669 92.6431 105.553 92.6685 105.425C92.694 105.298 92.7122 105.2 92.7304 105.08V105.029C92.7523 104.919 92.7668 104.807 92.785 104.69C92.8032 104.574 92.8032 104.555 92.8141 104.486V104.41C92.8906 103.831 92.9415 103.219 92.9743 102.557V102.488L93.0143 100.697V92.1685L85.2939 87.6476L88.4607 85.8276L90.0951 84.8848L91.5511 84.0403L92.1189 83.72C92.2681 83.6472 92.4028 83.5671 92.5411 83.5016C93.0243 83.2368 93.5343 83.0245 94.0627 82.8682L94.2228 82.8282C94.3872 82.789 94.5568 82.7767 94.7251 82.7918C94.8198 82.7918 94.8707 82.8755 94.9435 82.9192L102.755 87.36C102.83 87.409 102.894 87.4727 102.945 87.5471C102.995 87.6215 103.029 87.7052 103.046 87.7932C103.046 87.8551 103.079 87.9279 103.094 88.0043C103.108 88.0807 103.115 88.1681 103.126 88.2627V88.4083C103.126 88.5103 103.126 88.6194 103.126 88.7396C103.126 88.8597 103.126 88.9871 103.126 89.1254C103.126 89.4712 103.126 89.7842 103.083 90.0827C103.083 90.1592 103.083 90.232 103.083 90.3048C103.083 90.3776 103.083 90.4467 103.057 90.5195C103.032 90.5923 103.057 90.6578 103.024 90.7306C102.992 90.8034 103.006 90.869 102.995 90.9381C102.97 91.0728 102.948 91.2038 102.922 91.3422C102.897 91.4805 102.864 91.6079 102.839 91.7389C102.835 91.7483 102.835 91.7587 102.839 91.768C103.465 90.367 103.803 88.8543 103.832 87.32C103.832 87.1052 103.832 86.8905 103.811 86.7085C103.774 85.541 103.55 84.3871 103.148 83.2905C102.802 82.382 102.633 81.4159 102.649 80.444C102.649 78.6458 102.649 77.6558 106.464 75.4608L112.692 71.8936L120.438 76.3672V108.057C120.438 110.696 118.829 113.772 116.853 114.915L93.0835 128.638V120.025L93.0435 118.402V118.373C93.0034 117.699 92.9452 117.113 92.8651 116.6V116.556C92.8651 116.52 92.8651 116.484 92.8651 116.451C92.8433 116.32 92.8141 116.196 92.7887 116.087V116.058L92.745 115.876C92.7159 115.767 92.6904 115.665 92.654 115.563C92.6176 115.461 92.6103 115.421 92.5848 115.352C92.5593 115.282 92.5157 115.166 92.4756 115.082C92.4356 114.999 92.4137 114.951 92.3773 114.882C92.3412 114.806 92.2999 114.733 92.2536 114.664C92.221 114.612 92.1858 114.562 92.148 114.514L92.1262 114.489L92.1007 114.453C92.0646 114.404 92.0257 114.358 91.9842 114.314C91.911 114.241 91.8319 114.174 91.7476 114.114C91.6779 114.062 91.6036 114.017 91.5256 113.979C91.4563 113.938 91.3832 113.904 91.3072 113.877L91.1579 113.841H91.1252C91.0475 113.821 90.9684 113.808 90.8886 113.801C90.8207 113.797 90.7526 113.797 90.6847 113.801C90.5951 113.794 90.505 113.794 90.4154 113.801C90.3462 113.801 90.2771 113.823 90.2006 113.837C90.1242 113.852 90.0041 113.885 89.8985 113.91H89.8694C89.8111 113.932 89.7493 113.947 89.6837 113.976C89.56 114.016 89.4362 114.07 89.3197 114.114L89.2688 114.139C89.2215 114.161 89.1705 114.18 89.1232 114.205C88.9485 114.289 88.7774 114.376 88.6027 114.474L88.5481 114.507H88.5299L88.4498 114.547C87.7079 114.987 87.0212 115.514 86.4041 116.116L86.3568 116.16L86.2621 116.251L86.2075 116.302C85.8872 116.615 85.5924 116.928 85.2721 117.274C84.6481 118.004 83.9281 118.647 83.1317 119.185C83.0371 119.25 82.9534 119.312 82.8733 119.356C82.6604 119.487 82.4224 119.573 82.1744 119.607C82.0217 119.636 81.8648 119.636 81.7121 119.607C81.5698 119.583 81.433 119.534 81.3081 119.461Z" fill="#37474F"/>
<path d="M93.0871 92.1648L85.3667 87.6439L88.5335 85.8239L90.1679 84.8812L91.6239 84.0367L92.1917 83.7164C92.3409 83.6436 92.4756 83.5635 92.6139 83.498C93.0971 83.2331 93.6071 83.0208 94.1355 82.8646L94.2956 82.8246C94.46 82.7853 94.6296 82.773 94.7979 82.7882C94.8926 82.7882 94.9435 82.8719 95.0163 82.9156L102.733 87.36C102.706 87.3447 102.676 87.3337 102.646 87.3272C102.609 87.3086 102.567 87.2999 102.526 87.3018C102.405 87.2837 102.282 87.2837 102.162 87.3018C102.059 87.3142 101.958 87.3362 101.86 87.3673C100.977 87.6548 100.134 88.0497 99.3479 88.543L97.8919 89.3875L96.2539 90.3339L93.0871 92.1648Z" fill="black"/>
<path d="M103.075 100.803C102.347 100.075 101.983 98.8478 101.983 97.3664C101.98 97.1537 101.988 96.941 102.009 96.7294C102.009 96.7294 102.009 96.7294 102.009 96.7039C102.009 96.3399 102.045 96.0014 102.085 95.6119C102.085 95.5027 102.111 95.3971 102.125 95.2879C102.151 95.0623 102.183 94.8402 102.22 94.6327C102.256 94.4253 102.285 94.2469 102.322 94.0613C102.344 93.963 102.362 93.8683 102.38 93.7773C102.467 93.3733 102.558 92.9692 102.664 92.5361C102.733 92.2631 102.795 92.001 102.853 91.7389C103.475 90.3471 103.811 88.8443 103.84 87.32C103.84 87.1052 103.84 86.8941 103.814 86.7121C103.779 85.5424 103.557 84.3859 103.155 83.2868C102.811 82.3793 102.642 81.4146 102.657 80.444C102.657 78.6495 102.657 77.6594 106.471 75.4572L112.699 71.8936L120.445 76.3672L114.192 79.9781C110.377 82.1621 110.377 83.1704 110.377 84.9649C110.358 85.937 110.527 86.9037 110.876 87.8114C111.274 88.9101 111.497 90.0648 111.535 91.233C111.535 91.415 111.56 91.6261 111.556 91.8372C111.556 95.3571 109.412 99.463 106.766 100.985C105.332 101.818 103.989 101.749 103.075 100.803Z" fill="black"/>
<path d="M81.603 114.463L73.8571 109.99C73.8935 109.935 73.9371 109.877 73.9735 109.819C74.0718 109.691 74.1737 109.571 74.2793 109.455C74.3287 109.398 74.3809 109.343 74.4358 109.291C74.4895 109.232 74.5479 109.177 74.6105 109.127C74.7603 108.988 74.9251 108.866 75.1019 108.763C75.1667 108.726 75.2336 108.692 75.3021 108.661L75.3895 108.629H75.4113C75.7331 108.457 76.074 108.324 76.4269 108.232L76.5507 108.203C76.87 108.138 77.1936 108.095 77.5189 108.075C78.6653 108.035 79.7811 107.695 80.7549 107.089L81.0097 106.932C81.0861 106.889 81.1553 106.841 81.2281 106.79C81.2848 106.757 81.3395 106.721 81.3919 106.681H81.4137L81.6831 106.485L81.9415 106.284L81.9852 106.248L82.0252 106.212L82.058 106.186L82.1635 106.091C82.1963 106.062 82.2363 106.033 82.2691 106C82.3019 105.968 82.4001 105.884 82.4657 105.818L82.5567 105.727C82.5693 105.712 82.584 105.699 82.6003 105.687L82.7569 105.516C82.8224 105.447 82.8879 105.374 82.9498 105.302L82.9753 105.272L83.0808 105.149C83.1281 105.083 83.1864 105.018 83.2337 104.948L90.9905 109.426L90.9578 109.462C90.9068 109.535 90.8522 109.604 90.7976 109.677C90.743 109.75 90.7285 109.753 90.6957 109.793L90.6666 109.822C90.5501 109.957 90.4336 110.085 90.3026 110.205L90.2298 110.277C90.2116 110.299 90.1897 110.317 90.1752 110.339L89.975 110.521L89.7639 110.703L89.7347 110.732L89.6437 110.802C89.4763 110.944 89.3016 111.075 89.1232 111.202C89.1232 111.202 89.1014 111.202 89.0832 111.227C88.8792 111.373 88.6678 111.508 88.4498 111.632L88.2241 111.748L87.9584 111.883C87.3664 112.191 86.7284 112.401 86.0693 112.505L85.7344 112.549H85.5669L85.2575 112.578C84.7966 112.594 84.3399 112.673 83.8998 112.811C83.7651 112.855 83.6232 112.909 83.4667 112.975C83.3684 113.018 83.2592 113.069 83.15 113.128L83.059 113.164C82.9901 113.194 82.9232 113.228 82.8588 113.266C82.681 113.372 82.5129 113.494 82.3565 113.63C82.3004 113.677 82.247 113.727 82.1963 113.779C82.1417 113.83 82.0871 113.888 82.0361 113.947C81.9676 114.014 81.9043 114.087 81.8469 114.165C81.8064 114.211 81.7687 114.26 81.734 114.311C81.6721 114.38 81.6321 114.42 81.603 114.463Z" fill="black"/>
</g>
<mask id="mask1_173_236" style="mask-type:luminance" maskUnits="userSpaceOnUse" x="82" y="33" width="39" height="69">
<path d="M90.579 90.272V81.9L90.6628 79.352V79.301C90.6628 79.2392 90.6628 79.1809 90.6628 79.1263V79.0426C90.6628 78.8788 90.6919 78.7223 90.7101 78.5694C90.7142 78.4911 90.7239 78.4133 90.7392 78.3364V78.2636C90.7392 78.1144 90.7756 77.9652 90.7938 77.8232C90.812 77.6812 90.8229 77.6266 90.8411 77.5356C90.8702 77.3755 90.8921 77.219 90.9248 77.0661V77.0151C90.9248 76.9532 90.9503 76.8877 90.9649 76.8258C91.0086 76.6147 91.0632 76.4109 91.1141 76.207C91.1141 76.207 91.1141 76.167 91.1323 76.1342C91.1942 75.9049 91.2743 75.6683 91.3544 75.4354L91.3871 75.3371C91.4599 75.1405 91.5436 74.9476 91.6201 74.7583C91.6201 74.7219 91.6565 74.6782 91.6783 74.6382V74.6091C91.7621 74.4344 91.8458 74.2451 91.9404 74.0849L92.0132 73.9612C92.1234 73.7638 92.2449 73.5729 92.3772 73.3897C92.6603 72.9765 92.9808 72.5903 93.3345 72.2358L93.3636 72.2067C93.5129 72.0611 93.684 71.9046 93.866 71.7553L93.9024 71.7189C94.2871 71.4066 94.6961 71.1255 95.1254 70.8781C95.5862 70.6039 96.0741 70.3782 96.5814 70.2047C96.8365 70.1204 97.0967 70.0523 97.3604 70.0008C97.6905 69.9447 98.0234 69.907 98.3577 69.888C99.0943 69.8692 99.8167 69.6811 100.469 69.3384H100.487C100.586 69.2979 100.682 69.2517 100.775 69.2C101.469 68.7535 102.026 68.1236 102.384 67.38C102.492 67.1761 102.588 66.9658 102.671 66.7503C102.917 66.1454 103.047 65.4996 103.053 64.8466C103.053 64.7374 103.053 64.6318 103.053 64.5299C103.056 64.5021 103.056 64.4741 103.053 64.4462C103.051 64.3752 103.042 64.3046 103.028 64.2351C103.028 64.2023 103.028 64.1805 103.028 64.1514C103.028 64.1222 102.999 64.0203 102.984 63.9657C102.97 63.9111 102.966 63.9148 102.959 63.8929C102.951 63.8711 102.919 63.7728 102.893 63.7146L102.868 63.6636C102.845 63.6053 102.817 63.5493 102.784 63.4962C102.778 63.4822 102.77 63.4697 102.758 63.4598C102.726 63.4052 102.689 63.3542 102.649 63.2996C102.609 63.245 102.649 63.2996 102.631 63.2778L102.493 63.1394C102.441 63.0953 102.385 63.0563 102.325 63.023L99.0166 61.1156C98.4895 61.5887 97.9876 62.0893 97.5132 62.6153C96.8441 63.414 96.0485 64.0977 95.1582 64.6391C94.5867 64.9667 94.1171 65.2397 93.7786 65.0432L90.579 63.194C90.5572 62.466 90.5572 61.6762 90.579 60.839V53.7883L82.8331 49.3184L110.428 33.3606L120.471 39.1555L120.453 76.3745L114.195 79.9854C110.384 82.1694 110.384 83.1776 110.384 84.9722C110.366 85.9439 110.534 86.91 110.879 87.8186C111.283 88.9162 111.506 90.0715 111.542 91.2402C111.542 91.4186 111.564 91.6334 111.567 91.8481C111.514 93.8614 110.956 95.8291 109.944 97.5702L103.603 101.228C103.41 101.108 103.231 100.965 103.072 100.803C102.365 100.075 101.98 98.8515 101.98 97.37C101.98 97.1698 101.98 96.9587 102.009 96.7257C102.009 96.7257 102.009 96.7257 102.009 96.7039C102.009 96.3399 102.041 96.0014 102.085 95.6119C102.085 95.5063 102.111 95.3935 102.125 95.2879C102.151 95.0586 102.183 94.8402 102.22 94.6327C102.256 94.4252 102.285 94.2469 102.322 94.0612C102.344 93.963 102.362 93.8683 102.38 93.7773C102.464 93.3733 102.558 92.9692 102.667 92.5361C102.979 91.4241 103.144 90.2764 103.159 89.1218C103.159 88.0298 103.064 87.5383 102.766 87.3636L99.1804 85.2925L93.0834 88.816L90.579 90.272Z" fill="white"/>
</mask>
<g mask="url(#mask1_173_236)">
<path d="M105.274 97.7668L97.5096 93.2823C97.4732 93.2638 97.4379 93.2432 97.404 93.2204C96.9708 92.8928 96.7706 92.2121 96.7706 91.4004C96.7625 91.2695 96.7625 91.1382 96.7706 91.0073V90.96C96.8258 89.9097 96.9955 88.8685 97.2766 87.855C97.4004 87.3345 97.5314 86.763 97.6406 86.177L99.3223 85.2051L99.3878 85.1687L99.4278 85.1469L100.753 84.4371L100.789 84.4189C101.206 84.2115 101.636 84.0339 102.078 83.8874H102.129L102.3 83.8328C102.368 83.8108 102.437 83.7938 102.507 83.7819H102.547C102.627 83.76 102.711 83.7382 102.795 83.7236L103.013 83.6945C103.097 83.6945 103.184 83.6945 103.268 83.6945C103.352 83.6945 103.399 83.6945 103.461 83.6945C103.548 83.696 103.634 83.7058 103.719 83.7236H103.752L103.876 83.7455C103.976 83.7724 104.075 83.8065 104.171 83.8474L104.258 83.8838C104.518 84.0222 104.742 84.2206 104.91 84.4626C104.925 84.4834 104.938 84.5053 104.95 84.5281C105.029 84.6425 105.098 84.7645 105.154 84.8921C105.154 84.9176 105.179 84.9467 105.19 84.9685V84.994C105.245 85.1287 105.292 85.2743 105.339 85.4272L105.368 85.5436C105.417 85.7218 105.453 85.903 105.478 86.086L105.496 86.1697C105.566 86.6872 105.599 87.2091 105.594 87.7313C105.579 89.3158 105.359 90.8917 104.939 92.4196C104.661 93.4349 104.492 94.477 104.436 95.5282V95.5718C104.436 95.7393 104.418 95.8594 104.418 95.9686C104.418 96.7803 104.655 97.4028 105.084 97.7304L105.274 97.7668Z" fill="#2563EB"/>
<path d="M93.0833 88.816L85.3665 84.2988V75.9486C85.3407 74.7236 85.4186 73.4986 85.5995 72.2868C85.8689 70.798 86.2765 70.3466 87.4486 69.6696C88.157 69.2337 88.9685 68.9937 89.8001 68.9744C90.0731 68.9525 90.3315 68.927 90.5936 68.887L90.8011 68.8506L91.1651 68.7742C91.3143 68.7305 91.4745 68.6868 91.6419 68.6286C91.7113 68.6086 91.7794 68.5843 91.8457 68.5558C92.1124 68.4584 92.3726 68.3441 92.6247 68.2136L92.6575 68.1954C92.8147 68.1319 92.9668 68.0565 93.1125 67.9697C94.5466 67.1434 95.8934 65.5164 96.8034 63.5144C96.8653 63.3833 96.9163 63.2523 96.9709 63.1249L96.7779 63.3178C97.0255 63.0739 97.2657 62.8118 97.5059 62.5425C98.3403 61.5817 99.2973 60.7348 100.352 60.0236C100.501 59.9116 100.658 59.8106 100.822 59.7215C103.461 58.1927 105.612 59.8198 105.612 63.336C105.582 64.9617 105.21 66.5627 104.52 68.0352C103.607 70.0409 102.26 71.6752 100.826 72.4942C100.679 72.5783 100.527 72.6525 100.371 72.7163C100.36 72.7196 100.349 72.7196 100.338 72.7163C100.086 72.8528 99.8255 72.9743 99.5589 73.0803L99.3551 73.1531C99.1986 73.2073 99.0394 73.2535 98.8782 73.2914C98.7508 73.3242 98.6343 73.3496 98.5142 73.3715L98.3031 73.4079C98.0447 73.4443 97.7826 73.477 97.5096 73.4952C96.6788 73.5125 95.868 73.7526 95.1618 74.1905C93.9897 74.8639 93.5784 75.3152 93.3127 76.804C93.1287 78.018 93.0484 79.2455 93.0724 80.4731V85.9695L93.0833 88.816Z" fill="#2563EB"/>
<path d="M93.7932 64.9704L86.04 60.4859C85.585 60.2092 85.3775 59.059 85.3775 56.1688L85.3447 47.8696L93.0906 52.3432V60.6861C93.0906 63.5981 93.3345 64.7083 93.7968 64.9667L93.7932 64.9704Z" fill="#2563EB"/>
<path opacity="0.2" d="M105.274 97.7668L97.5096 93.2823C97.4732 93.2638 97.4379 93.2432 97.404 93.2204C96.9708 92.8928 96.7706 92.2121 96.7706 91.4004C96.7625 91.2695 96.7625 91.1382 96.7706 91.0073V90.96C96.8258 89.9097 96.9955 88.8685 97.2766 87.855C97.4004 87.3345 97.5314 86.763 97.6406 86.177L99.3223 85.2051L99.3878 85.1687L99.4278 85.1469L100.753 84.4371L100.789 84.4189C101.206 84.2115 101.636 84.0339 102.078 83.8874H102.129L102.3 83.8328C102.368 83.8108 102.437 83.7938 102.507 83.7819H102.547C102.627 83.76 102.711 83.7382 102.795 83.7236L103.013 83.6945C103.097 83.6945 103.184 83.6945 103.268 83.6945C103.352 83.6945 103.399 83.6945 103.461 83.6945C103.548 83.696 103.634 83.7058 103.719 83.7236H103.752L103.876 83.7455C103.976 83.7724 104.075 83.8065 104.171 83.8474L104.258 83.8838C104.518 84.0222 104.742 84.2206 104.91 84.4626C104.925 84.4834 104.938 84.5053 104.95 84.5281C105.029 84.6425 105.098 84.7645 105.154 84.8921C105.154 84.9176 105.179 84.9467 105.19 84.9685V84.994C105.245 85.1287 105.292 85.2743 105.339 85.4272L105.368 85.5436C105.417 85.7218 105.453 85.903 105.478 86.086L105.496 86.1697C105.566 86.6872 105.599 87.2091 105.594 87.7313C105.579 89.3158 105.359 90.8917 104.939 92.4196C104.661 93.4349 104.492 94.477 104.436 95.5282V95.5718C104.436 95.7393 104.418 95.8594 104.418 95.9686C104.418 96.7803 104.655 97.4028 105.084 97.7304L105.274 97.7668Z" fill="black"/>
<path opacity="0.2" d="M93.0833 88.816L85.3665 84.2988V75.9486C85.3407 74.7236 85.4186 73.4986 85.5995 72.2868C85.8689 70.798 86.2765 70.3466 87.4486 69.6696C88.157 69.2337 88.9685 68.9937 89.8001 68.9744C90.0731 68.9525 90.3315 68.927 90.5936 68.887L90.8011 68.8506L91.1651 68.7742C91.3143 68.7305 91.4745 68.6868 91.6419 68.6286C91.7113 68.6086 91.7794 68.5843 91.8457 68.5558C92.1124 68.4584 92.3726 68.3441 92.6247 68.2136L92.6575 68.1954C92.8147 68.1319 92.9668 68.0565 93.1125 67.9697C94.5466 67.1434 95.8934 65.5164 96.8034 63.5144C96.8653 63.3833 96.9163 63.2523 96.9709 63.1249L96.7779 63.3178C97.0255 63.0739 97.2657 62.8118 97.5059 62.5425C98.3403 61.5817 99.2973 60.7348 100.352 60.0236C100.501 59.9116 100.658 59.8106 100.822 59.7215C103.461 58.1927 105.612 59.8198 105.612 63.336C105.582 64.9617 105.21 66.5627 104.52 68.0352C103.607 70.0409 102.26 71.6752 100.826 72.4942C100.679 72.5783 100.527 72.6525 100.371 72.7163C100.36 72.7196 100.349 72.7196 100.338 72.7163C100.086 72.8528 99.8255 72.9743 99.5589 73.0803L99.3551 73.1531C99.1986 73.2073 99.0394 73.2535 98.8782 73.2914C98.7508 73.3242 98.6343 73.3496 98.5142 73.3715L98.3031 73.4079C98.0447 73.4443 97.7826 73.477 97.5096 73.4952C96.6788 73.5125 95.868 73.7526 95.1618 74.1905C93.9897 74.8639 93.5784 75.3152 93.3127 76.804C93.1287 78.018 93.0484 79.2455 93.0724 80.4731V85.9695L93.0833 88.816Z" fill="black"/>
<path opacity="0.2" d="M93.7932 64.9704L86.04 60.4859C85.585 60.2092 85.3775 59.059 85.3775 56.1688L85.3447 47.8696L93.0906 52.3432V60.6861C93.0906 63.5981 93.3345 64.7083 93.7968 64.9667L93.7932 64.9704Z" fill="black"/>
<path d="M105.332 97.8032L105.274 97.7704L105.15 97.6903C104.72 97.3627 104.484 96.7403 104.484 95.9286C104.484 95.8194 104.484 95.6992 104.502 95.5318V95.4881C104.558 94.437 104.726 93.3948 105.004 92.3796C105.424 90.8517 105.645 89.2758 105.66 87.6912C105.665 87.169 105.632 86.6471 105.561 86.1297L105.543 86.046C105.519 85.863 105.482 85.6818 105.434 85.5036L105.405 85.3871C105.357 85.2342 105.31 85.0886 105.256 84.954V84.9285C105.256 84.9066 105.234 84.8775 105.219 84.852C105.163 84.7244 105.095 84.6025 105.015 84.488C105.004 84.4652 104.99 84.4433 104.975 84.4225C104.807 84.1805 104.584 83.9821 104.324 83.8438L104.236 83.8074C104.141 83.7665 104.042 83.7324 103.941 83.7054L103.818 83.6836H103.785C103.7 83.6657 103.613 83.656 103.527 83.6545C103.465 83.6545 103.399 83.6545 103.334 83.6545C103.268 83.6545 103.163 83.6545 103.079 83.6545L102.86 83.6836C102.777 83.6836 102.693 83.72 102.613 83.7418H102.573C102.503 83.7537 102.433 83.7708 102.365 83.7928L102.194 83.8474H102.143C101.702 83.9938 101.271 84.1714 100.855 84.3788L100.818 84.397L99.4934 85.1068L99.4533 85.1287L99.3878 85.1651L97.7061 86.137L93.0833 88.816V85.9659V80.4695C93.0583 79.2432 93.1374 78.0169 93.3199 76.804C93.5857 75.3152 93.997 74.8639 95.1691 74.1905C95.8752 73.7526 96.6861 73.5125 97.5169 73.4952C97.7899 73.4952 98.0519 73.4443 98.3104 73.4079L98.5215 73.3715C98.6416 73.3496 98.7581 73.3242 98.8855 73.2914C99.0467 73.2535 99.2059 73.2073 99.3623 73.1531L99.5662 73.0803C99.8327 72.9743 100.093 72.8528 100.345 72.7163C100.356 72.7196 100.367 72.7196 100.378 72.7163C100.534 72.6525 100.686 72.5783 100.833 72.4942C102.267 71.6607 103.614 70.0409 104.528 68.0352C105.217 66.5627 105.589 64.9617 105.62 63.336C105.62 59.8198 103.468 58.1927 100.829 59.7215C100.666 59.8106 100.509 59.9116 100.36 60.0236C99.3046 60.7348 98.3475 61.5817 97.5132 62.5425C97.2621 62.8118 97.0218 63.0739 96.7852 63.3178C96.4006 63.7032 95.9787 64.0495 95.5258 64.3516L95.362 64.4535L95.1727 64.5663C94.9543 64.6901 94.7577 64.8066 94.5721 64.8903L94.3937 64.9631C94.3403 64.9863 94.284 65.0022 94.2263 65.0104C94.1759 65.0274 94.123 65.036 94.0698 65.0359C93.9729 65.039 93.8771 65.0151 93.7931 64.9667C93.3309 64.7083 93.087 63.6054 93.087 60.6861V52.3432L85.3411 47.8696L109.139 34.1032C109.227 34.0558 109.307 34.0085 109.394 33.9685C109.472 33.9284 109.552 33.8943 109.634 33.8666L109.875 33.7901C109.949 33.7651 110.026 33.7468 110.104 33.7355C110.201 33.7176 110.3 33.7067 110.399 33.7028C110.798 33.6849 111.193 33.7904 111.531 34.0049L119.175 38.4129C119.411 38.5427 119.618 38.7199 119.783 38.9334C119.839 39.0067 119.892 39.0833 119.939 39.1628C119.974 39.2156 120.005 39.2703 120.034 39.3266C120.092 39.443 120.147 39.5632 120.198 39.6906C120.216 39.7561 120.241 39.8216 120.26 39.8908C120.397 40.3637 120.462 40.8545 120.453 41.3468V73.0366L114.195 76.6475L114.083 76.7203L114.006 76.764H113.988L112.747 77.532C112.252 77.8568 111.777 78.2105 111.323 78.5912L111.291 78.6167L111.218 78.6786L110.894 78.9698L110.868 78.9989C110.821 79.039 110.774 79.0863 110.73 79.13C110.686 79.1736 110.537 79.3192 110.446 79.4175C110.355 79.5158 110.322 79.5449 110.268 79.6104C110.213 79.676 110.089 79.807 110.006 79.9089L109.835 80.1237L109.594 80.444L109.463 80.6369L109.434 80.6879L109.401 80.7388C109.34 80.8298 109.274 80.9245 109.216 81.0228C109.158 81.121 109.136 81.1647 109.099 81.2375L109.07 81.2958C108.957 81.4996 108.848 81.7144 108.75 81.9328L108.728 81.9874C108.684 82.0784 108.644 82.173 108.608 82.264C108.575 82.3586 108.539 82.4533 108.506 82.5516L108.477 82.6244L108.368 82.9592C108.331 83.0794 108.299 83.1995 108.266 83.3232C108.233 83.447 108.204 83.5708 108.175 83.6872C108.146 83.8037 108.124 83.9311 108.102 84.0512C108.08 84.1714 108.055 84.317 108.036 84.4516V84.4735C108.036 84.5863 108 84.6992 107.989 84.812C107.978 84.9248 107.96 85.0959 107.945 85.2561V85.3434C107.945 85.4272 107.945 85.5109 107.927 85.5946C107.927 85.773 107.927 85.9586 107.927 86.2207V86.268C107.927 86.3117 107.927 86.359 107.927 86.4027C107.9 87.7435 108.123 89.0777 108.582 90.3375C108.887 91.1539 109.057 92.0145 109.085 92.8855V92.9256C109.085 93.042 109.103 93.1622 109.107 93.2604C109.107 94.9385 108.08 96.9004 106.821 97.6284C106.591 97.7689 106.334 97.8595 106.067 97.8942C106.013 97.8995 105.958 97.8995 105.903 97.8942H105.878C105.844 97.8997 105.81 97.8997 105.776 97.8942C105.746 97.8997 105.715 97.8997 105.685 97.8942L105.612 97.876L105.525 97.8505C105.502 97.8462 105.479 97.8376 105.459 97.825C105.416 97.8305 105.371 97.8229 105.332 97.8032Z" fill="#2563EB"/>
<path opacity="0.3" d="M93.0833 52.3432L85.3374 47.8696L109.136 34.1032C109.223 34.0558 109.303 34.0085 109.391 33.9685C109.468 33.9284 109.548 33.8943 109.631 33.8666L109.871 33.7901C109.946 33.7651 110.022 33.7468 110.1 33.7355C110.198 33.7176 110.296 33.7067 110.395 33.7028C110.795 33.6849 111.19 33.7904 111.527 34.0049L119.084 38.3729C119.018 38.3384 118.948 38.3115 118.876 38.2928C118.86 38.2883 118.844 38.2822 118.829 38.2746C118.763 38.2519 118.695 38.2361 118.625 38.2273H118.556C118.511 38.2215 118.466 38.2215 118.421 38.2273H118.29C118.279 38.2254 118.268 38.2254 118.258 38.2273C118.195 38.2218 118.131 38.2218 118.068 38.2273L117.923 38.2491C117.824 38.2613 117.726 38.2832 117.631 38.3146L117.486 38.3583L117.202 38.4712C117.093 38.5221 116.984 38.5804 116.867 38.6459L93.0833 52.3432Z" fill="white"/>
</g>
<mask id="mask2_173_236" style="mask-type:luminance" maskUnits="userSpaceOnUse" x="55" y="49" width="49" height="58">
<path d="M63.2172 106.066L55.464 101.596L55.4931 69.8479C55.5213 68.5849 55.8231 67.3431 56.3776 66.208C57.0365 64.8175 58.0047 63.6199 59.0858 62.9938L82.8259 49.322L90.5718 53.7919V60.7698V63.1249L93.7677 64.9704C94.1135 65.1706 94.5758 64.9012 95.1509 64.57C96.0412 64.0285 96.8368 63.3449 97.506 62.5461C97.9804 62.0201 98.4822 61.5196 99.0093 61.0464L102.318 62.9538C102.344 62.967 102.368 62.9828 102.391 63.0011C102.395 62.9992 102.399 62.9982 102.404 62.9982C102.408 62.9982 102.412 62.9992 102.416 63.0011C102.446 63.0179 102.473 63.0387 102.496 63.063C102.614 63.1663 102.713 63.2895 102.788 63.427C102.815 63.4637 102.837 63.5042 102.853 63.5471C102.871 63.5782 102.886 63.6111 102.897 63.6454C102.959 63.7892 103.005 63.9393 103.035 64.0931C103.037 64.1173 103.037 64.1417 103.035 64.1659C103.035 64.2569 103.064 64.3588 103.075 64.4607C103.086 64.5627 103.075 64.6682 103.075 64.7774C103.081 64.8793 103.081 64.9813 103.075 65.0832C103.075 65.1924 103.057 65.2979 103.042 65.3999C103.028 65.5018 103.01 65.611 102.991 65.7165C102.973 65.8221 102.959 65.8767 102.937 65.9568C102.924 66.0146 102.908 66.0717 102.89 66.1279C102.777 66.5388 102.618 66.9356 102.416 67.3109C102.058 68.0544 101.501 68.6844 100.807 69.1309C100.714 69.1826 100.618 69.2288 100.52 69.2692H100.502C99.8495 69.612 99.1271 69.8 98.3905 69.8188C98.1575 69.8188 97.9209 69.8552 97.6625 69.8916L97.3968 69.9317C96.7603 70.0581 96.1467 70.2802 95.5768 70.5905C95.5076 70.6233 95.4421 70.656 95.3802 70.6924L95.1727 70.8089C94.7434 71.0563 94.3344 71.3375 93.9497 71.6497L93.9133 71.6862C93.7313 71.8354 93.5493 71.9919 93.411 72.1375L93.3819 72.1666C93.0281 72.5211 92.7077 72.9074 92.4245 73.3205C92.2922 73.5038 92.1707 73.6946 92.0605 73.892L91.9877 74.0157C91.8931 74.1905 91.8094 74.3797 91.7257 74.5399V74.569C91.7038 74.6091 91.6856 74.6528 91.6674 74.6892C91.591 74.8784 91.5073 75.0714 91.4345 75.2679L91.4017 75.3662C91.3216 75.5992 91.2415 75.8358 91.1797 76.0651C91.1797 76.0978 91.1615 76.1269 91.1615 76.1379C91.1105 76.3417 91.0559 76.5455 91.0122 76.7567C91.0122 76.8185 90.9867 76.8841 90.9722 76.9459V76.9969C90.9394 77.1498 90.9176 77.3063 90.8885 77.4665C90.8885 77.5575 90.8557 77.6558 90.8411 77.754C90.8266 77.8523 90.8011 78.0452 90.7865 78.1945V78.2673C90.7713 78.3441 90.7615 78.422 90.7574 78.5002C90.7574 78.6531 90.7247 78.8096 90.7101 78.9734V79.0572C90.7101 79.1118 90.7101 79.17 90.7101 79.2319V79.2828L90.6264 81.8308V90.2028L88.4424 91.4695L87.7472 91.8736L86.3749 92.6562L84.3765 93.8137C82.986 94.6182 82.0251 95.0258 81.4281 95.0732C81.3362 95.0845 81.2433 95.0845 81.1515 95.0732C81.0893 95.0596 81.0293 95.0376 80.9731 95.0076L78.123 93.3405C78.1214 93.3284 78.1214 93.3162 78.123 93.3041C78.1557 92.9401 78.1994 92.5761 78.2504 92.2485C78.2832 92.0374 78.3195 91.8336 78.3596 91.6443C78.4651 91.0473 78.5998 90.5122 78.7236 90.0026C79.006 88.9897 79.1733 87.9481 79.2223 86.8977V86.8759V86.8467C79.2223 86.6757 79.2223 86.5628 79.2405 86.4573C79.2405 85.6456 79.0002 85.0195 78.5707 84.6955C78.5497 84.6797 78.5279 84.6651 78.5052 84.6518L78.4469 84.6191L75.2619 82.7809C74.3792 83.7587 73.6679 84.8786 73.158 86.0933C73.0889 86.2607 73.0197 86.4282 72.9578 86.5883C72.8959 86.7485 72.8304 86.9268 72.7758 87.0979L72.7504 87.1707C72.6921 87.3418 72.6411 87.5129 72.5902 87.6839C72.5392 87.855 72.4955 88.0298 72.4555 88.2008C72.4155 88.3719 72.4009 88.4374 72.3754 88.5648C72.35 88.6922 72.3281 88.8014 72.3135 88.9288C72.269 89.1696 72.2374 89.4126 72.2189 89.6568C72.2007 89.7879 72.1898 89.9225 72.1825 90.0536C72.1752 90.1846 72.1643 90.3921 72.1643 90.5559C72.1643 90.7197 72.1643 90.7743 72.1643 90.8799C72.1643 90.9854 72.1643 91.0801 72.1861 91.1711C72.1861 91.3276 72.1861 91.4732 72.2116 91.6152C72.2309 91.9446 72.2686 92.2727 72.3245 92.5979C72.3245 92.729 72.3645 92.8564 72.39 92.9619C72.5056 93.5074 72.6563 94.0448 72.8414 94.5708C73.0634 95.1572 73.2137 95.7683 73.2891 96.3908V96.46V96.5146V96.591C73.3109 96.8604 73.3218 97.1261 73.3218 97.4027C73.3218 99.1973 73.3218 100.187 69.5071 102.39L63.2172 106.066Z" fill="white"/>
</mask>
<g mask="url(#mask2_173_236)">
<path d="M80.904 95.0659L73.1836 90.5377C72.8814 90.3593 72.7868 89.8607 72.7868 88.7832C72.7881 87.8954 72.8944 87.0108 73.1035 86.1479C72.8708 86.6839 72.6738 87.2348 72.5138 87.7968C73.2418 85.1214 74.9417 82.577 76.8818 81.4486C78.1594 80.7206 79.3606 80.6806 80.267 81.3649C81.1734 82.0492 81.672 83.356 81.672 85.0668C81.672 85.2306 81.672 85.3907 81.6538 85.5363V85.6164C81.6538 85.6565 81.6538 85.6965 81.6538 85.7365C81.6538 86.1005 81.6102 86.4645 81.5701 86.8467C81.5664 86.9078 81.5591 86.9686 81.5483 87.0287V87.0833C81.5155 87.3418 81.4828 87.5929 81.4427 87.8441C81.4136 87.9933 81.3845 88.1426 81.359 88.2882C81.3335 88.4338 81.3008 88.583 81.2716 88.7286C81.1916 89.0926 81.1006 89.4894 81.0059 89.8861C80.6902 90.9986 80.5225 92.1478 80.5072 93.3041C80.5036 94.3888 80.58 94.8875 80.904 95.0659Z" fill="#2563EB"/>
<path d="M63.2172 106.066L55.464 101.596L55.4931 69.8516C55.5186 68.5882 55.8205 67.3458 56.3776 66.2116L64.1163 70.6779C63.547 71.8281 63.2376 73.0894 63.2099 74.3725L63.2172 106.066Z" fill="#2563EB"/>
<path d="M80.9039 95.0659L73.1835 90.5377C72.8814 90.3593 72.7867 89.8607 72.7867 88.7832C72.7881 87.8954 72.8944 87.0108 73.1034 86.1479C73.977 84.1204 75.3493 82.3404 76.8963 81.4486C78.1739 80.7206 79.3751 80.6806 80.2815 81.3649C81.1879 82.0492 81.672 83.356 81.672 85.0668C81.672 85.2306 81.672 85.3907 81.6538 85.5363V85.6164C81.6538 85.6565 81.6538 85.6965 81.6538 85.7365C81.6538 86.1005 81.6101 86.4645 81.5701 86.8467C81.5664 86.9078 81.5591 86.9686 81.5482 87.0287V87.0833C81.5155 87.3418 81.4827 87.5929 81.4427 87.8441C81.4135 87.9933 81.3844 88.1426 81.3589 88.2882C81.3335 88.4338 81.3007 88.583 81.2716 88.7286C81.1915 89.0926 81.1005 89.4894 81.0059 89.8861C80.6901 90.9986 80.5225 92.1478 80.5072 93.3041C80.5035 94.3888 80.58 94.8875 80.9039 95.0659Z" fill="#263238"/>
<path d="M63.2172 106.066L55.464 101.596L55.4931 69.8516C55.5186 68.5882 55.8205 67.3458 56.3776 66.2116L64.1163 70.6779C63.547 71.8281 63.2376 73.0894 63.2099 74.3725L63.2172 106.066Z" fill="#263238"/>
<path d="M63.2172 106.066V74.3688C63.2448 73.0857 63.5542 71.8244 64.1235 70.6742L56.3849 66.2079C56.4067 66.1606 56.4249 66.1169 56.4468 66.0733C56.4788 66.0007 56.5152 65.9302 56.556 65.8621C56.6069 65.7639 56.6579 65.6692 56.7125 65.5746C56.7671 65.4799 56.8435 65.3453 56.9163 65.2397L56.9564 65.1633C56.9661 65.1478 56.9771 65.1332 56.9891 65.1196C57.051 65.0177 57.1238 64.9121 57.1966 64.8102L57.2621 64.7192C57.2993 64.6616 57.3406 64.6068 57.3859 64.5554C57.4252 64.4996 57.4677 64.4461 57.5133 64.3952L57.5497 64.3479C57.6152 64.2642 57.6844 64.1805 57.7572 64.104L57.8445 64.013C57.8632 63.9895 57.884 63.9675 57.9064 63.9475L57.9465 63.9002L58.0229 63.831L58.1576 63.7C58.1692 63.6871 58.1827 63.6761 58.1976 63.6672C58.2376 63.6308 58.2741 63.5908 58.3105 63.5617L58.3505 63.5289H58.3687L58.467 63.4561C58.5034 63.4233 58.5434 63.3979 58.5798 63.3687C58.6162 63.3396 58.6526 63.3105 58.689 63.2814C58.7322 63.2486 58.7771 63.2182 58.8237 63.1904C58.9029 63.1291 58.9868 63.0743 59.0748 63.0266L82.8186 49.3547L90.5645 53.8283V60.8025L90.6773 60.6861C91.3016 59.9544 92.0229 59.3114 92.8213 58.7751H92.8504C92.9252 58.7188 93.003 58.6665 93.0834 58.6185C93.3004 58.4683 93.556 58.3834 93.8198 58.3737C94.0836 58.364 94.3446 58.43 94.5721 58.5639L102.293 63.0229C102.334 63.0437 102.373 63.0693 102.409 63.0994L102.475 63.1503C102.743 63.4009 102.926 63.7294 102.999 64.0895C103.021 64.1805 103.039 64.2787 103.053 64.377C103.075 64.5387 103.084 64.7017 103.082 64.8648C103.063 65.7487 102.835 66.6155 102.416 67.3946C102.056 68.138 101.498 68.7677 100.804 69.2146C100.711 69.2683 100.615 69.3169 100.516 69.3602H100.498C99.846 69.7033 99.1235 69.8914 98.3869 69.9098C97.2398 69.9519 96.1239 70.2946 95.1509 70.9035C94.7213 71.1488 94.3134 71.4301 93.9315 71.7444L93.8878 71.7771C93.7094 71.9264 93.5238 72.0793 93.3855 72.2321L93.3636 72.2576C93.008 72.6091 92.6874 72.9943 92.4063 73.4079C92.2862 73.5862 92.1697 73.7719 92.0423 73.9793L91.9877 74.0776V74.1067C91.8931 74.2742 91.8057 74.4707 91.722 74.6309V74.6564C91.7022 74.6964 91.6852 74.7378 91.671 74.7801C91.5873 74.9658 91.5109 75.1441 91.4381 75.3589L91.4017 75.4535C91.318 75.6865 91.2415 75.9267 91.1796 76.1524L91.1614 76.2289C91.1068 76.4291 91.0559 76.6365 91.0122 76.8477C91.0122 76.9059 90.9831 76.9714 90.9722 77.0333V77.0843C90.9431 77.2408 90.9176 77.3937 90.8885 77.5538C90.8885 77.6448 90.8557 77.7431 90.8448 77.8377C90.8338 77.9324 90.8011 78.1326 90.7829 78.2855V78.3583C90.7829 78.4311 90.7647 78.5075 90.761 78.5876C90.761 78.7405 90.7283 78.9006 90.7174 79.0571V79.1409C90.7174 79.1991 90.7174 79.2573 90.6992 79.3156V79.3702L90.6155 81.9182V90.2902L88.4314 91.5605L86.3676 92.7508L84.3692 93.9047C82.9824 94.7091 82.0141 95.1168 81.4244 95.1605C81.3784 95.164 81.3322 95.164 81.2861 95.1605C81.1734 95.1592 81.0625 95.1318 80.9622 95.0804C80.6528 94.9021 80.5618 94.4034 80.5618 93.3187C80.577 92.1624 80.7447 91.0131 81.0604 89.9007C81.1551 89.5039 81.2461 89.1181 81.3262 88.7432C81.3553 88.5976 81.388 88.452 81.4135 88.3027C81.439 88.1535 81.4681 88.0079 81.4972 87.8587C81.5373 87.6075 81.57 87.3563 81.6028 87.0979V87.0433C81.6137 86.9831 81.621 86.9223 81.6246 86.8613C81.6647 86.4791 81.6938 86.1333 81.7084 85.7511C81.7084 85.7111 81.7084 85.671 81.7084 85.631V85.54C81.7084 85.3944 81.7302 85.2342 81.7266 85.0704C81.7266 83.3633 81.2315 82.0492 80.3252 81.3649C79.4188 80.6806 78.2176 80.7061 76.94 81.4486C75.393 82.3404 74.028 84.1204 73.1471 86.1479C72.9672 86.5482 72.8116 86.9591 72.6812 87.3782C72.6375 87.5165 72.5938 87.6585 72.5574 87.7968C72.521 87.9351 72.47 88.128 72.43 88.2955C72.4185 88.3233 72.4111 88.3528 72.4082 88.3828C72.3718 88.543 72.339 88.7068 72.3135 88.8669C72.251 89.2127 72.206 89.5613 72.1788 89.9116C72.1715 90.0158 72.1715 90.1204 72.1788 90.2247C72.1788 90.3484 72.1788 90.4722 72.1788 90.5887C72.1788 90.8034 72.1789 91.0291 72.2043 91.2038C72.2397 92.3699 72.4621 93.5227 72.8632 94.6181C73.0836 95.2051 73.2338 95.816 73.3109 96.4381V96.5109V96.5328V96.5619C73.3091 96.5873 73.3091 96.6129 73.3109 96.6383C73.3291 96.9077 73.3436 97.1734 73.3436 97.4501C73.3436 99.2446 73.3436 100.235 69.5326 102.437L63.2172 106.066Z" fill="#37474F"/>
<path d="M94.6121 58.4875L102.333 62.9465C102.096 62.8288 101.831 62.7778 101.568 62.799C101.304 62.8201 101.051 62.9126 100.837 63.0666C100.771 63.103 100.687 63.1613 100.604 63.2195L100.578 63.245H100.56C99.7608 63.7804 99.0394 64.4235 98.4159 65.156C97.4885 66.2335 96.3963 67.1574 95.18 67.8933L95.0271 67.977L94.9689 68.0061L94.9252 68.0279C94.8087 68.0898 94.6958 68.1553 94.5903 68.2063L94.3865 68.2937L94.3173 68.3191L94.2773 68.341L94.0225 68.4356C93.9466 68.4653 93.8688 68.4897 93.7895 68.5084H93.7604L93.5019 68.5703C93.4146 68.5921 93.3345 68.5958 93.2508 68.6103H93.0105C92.9341 68.6103 92.8577 68.6103 92.7849 68.6103C92.7121 68.6103 92.6429 68.5849 92.5737 68.5739C92.5042 68.5606 92.436 68.5411 92.3699 68.5157C92.3055 68.4938 92.2433 68.4657 92.1843 68.432H92.1515C92.0977 68.4058 92.0455 68.3767 91.995 68.3446C91.9458 68.3096 91.8995 68.2707 91.8567 68.2281L91.8275 68.2063L91.7984 68.1772C91.7584 68.1444 91.7147 68.1044 91.6747 68.0643C91.6281 68.0096 91.5844 67.9525 91.5436 67.8933L91.5218 67.8605C91.441 67.7441 91.3681 67.6225 91.3034 67.4965L91.2815 67.4492C91.25 67.394 91.2221 67.3369 91.1978 67.2781C91.1723 67.2162 91.1432 67.1398 91.1177 67.067V67.016V66.9723C91.0959 66.9068 91.0704 66.8486 91.0486 66.7758C91.0267 66.703 90.9976 66.5792 90.9721 66.4773C90.9467 66.3754 90.9248 66.3026 90.9103 66.2116C90.8957 66.1206 90.8666 65.9932 90.8484 65.8767C90.8302 65.7602 90.8156 65.6874 90.8011 65.5928C90.7865 65.4981 90.7719 65.3489 90.7574 65.2288C90.7428 65.1087 90.7355 65.0286 90.7246 64.9267C90.7137 64.8247 90.6991 64.6609 90.6919 64.519C90.6919 64.4462 90.6919 64.3588 90.6919 64.2751V64.1659C90.6919 64.0385 90.6919 63.9038 90.67 63.7655V63.7109L90.6445 62.2549V60.7479C90.6773 60.7079 90.7173 60.6715 90.7501 60.6351C91.3743 59.9034 92.0957 59.2605 92.8941 58.7241H92.9123L92.9414 58.7023C93.0144 58.6463 93.091 58.5952 93.1707 58.5494C93.3826 58.409 93.6288 58.329 93.8828 58.3181C94.1368 58.3072 94.389 58.3658 94.6121 58.4875Z" fill="black"/>
<path d="M64.1271 70.6779L56.3812 66.2043C56.4031 66.157 56.4213 66.1169 56.4467 66.0733C56.4788 66.0007 56.5152 65.9302 56.5559 65.8621C56.6069 65.7639 56.6579 65.6692 56.7125 65.5746C56.7671 65.4799 56.8435 65.3453 56.9163 65.2397C56.9371 65.1976 56.9614 65.1574 56.9891 65.1196C57.051 65.0177 57.1238 64.9121 57.1966 64.8102L57.2621 64.7192C57.2992 64.6616 57.3406 64.6068 57.3859 64.5554C57.4364 64.4831 57.4911 64.4138 57.5497 64.3479C57.6152 64.2642 57.6843 64.1805 57.7571 64.104L57.8445 64.013C57.8632 63.9895 57.8839 63.9675 57.9064 63.9475L58.0229 63.831L58.1575 63.7C58.1692 63.6871 58.1827 63.6761 58.1976 63.6672C58.245 63.6174 58.2961 63.5711 58.3505 63.5289H58.3687L58.4669 63.4561C58.5377 63.3939 58.6119 63.3356 58.689 63.2814C58.7321 63.2486 58.7771 63.2182 58.8237 63.1904C58.9028 63.1291 58.9868 63.0743 59.0748 63.0266L82.8149 49.3511L90.5608 53.8247L80.1249 59.8489L66.788 67.5547C66.6861 67.613 66.5878 67.6749 66.4895 67.7404C66.3912 67.8059 66.3075 67.8714 66.2238 67.9442C66.1746 67.9765 66.1283 68.0131 66.0855 68.0534C65.9981 68.1226 65.9107 68.2063 65.827 68.2864C65.7433 68.3665 65.6232 68.4866 65.5249 68.5885C65.3061 68.8274 65.103 69.0803 64.917 69.3456C64.8442 69.4475 64.7714 69.5495 64.7023 69.6587C64.4893 69.9859 64.2972 70.3263 64.1271 70.6779Z" fill="#455A64"/>
</g>
<path d="M52.7158 78.5221C53.0952 78.544 53.4694 78.4261 53.7678 78.1908C54.5722 77.5684 55.1728 77.6194 56.0355 77.2481C56.7125 76.9532 56.9855 76.5929 57.1275 76.7166C57.2686 76.8732 57.3451 77.0773 57.3418 77.288C57.3384 77.4988 57.2553 77.7004 57.1093 77.8523C56.8492 78.1551 56.5477 78.4198 56.2139 78.6385C57.0139 78.5889 57.803 78.4272 58.558 78.1581C60.378 77.5393 61.2407 77.7941 60.4144 80.1055C59.8975 81.5615 58.5944 82.3623 55.0236 82.2895C53.704 82.2006 52.3918 82.0231 51.096 81.758C47.5616 81.0628 40.4454 79.9963 39.2041 78.3255C35.6915 73.5935 32.4701 69.6914 32.0261 66.1606C31.6621 63.1977 33.4821 61.5415 35.1674 61.5415C36.1247 62.5498 36.7071 63.751 37.588 66.5792C37.588 66.5792 42.1598 74.7656 42.6221 75.3625C43.7723 75.9923 51.966 78.402 52.7158 78.5221Z" fill="#FFA8A7"/>
<path d="M118.735 48.1936C119.35 48.5576 120.009 48.7141 120.828 49.3111C121.357 49.7656 121.989 50.0842 122.669 50.2393C123.547 50.4541 130.452 48.1208 131.729 47.1344C134.332 45.1287 136.578 41.3541 137.83 39.9235C138.86 38.7442 140.014 36.9679 141.299 36.9606C143.399 37.5939 142.926 40.7171 141.168 43.5126C139.712 45.8385 136.953 48.776 133.83 50.8253C132.315 51.8191 125.337 53.6208 123.019 53.7737C122.316 53.8174 121.796 53.9776 120.471 54.1668C119.92 54.2786 119.356 54.3092 118.796 54.2579C118.109 54.151 117.441 53.9463 116.813 53.65C116.014 53.2777 115.331 52.6983 114.832 51.9719C114.561 51.5725 114.386 51.115 114.323 50.6361C114.259 50.1536 114.37 49.6642 114.636 49.2565C114.686 49.1714 114.757 49.101 114.843 49.0526C115.013 48.9976 115.197 49.0106 115.357 49.0891C116.288 49.413 117.242 49.9008 118.199 50.1228C119.008 50.3084 119.604 50.3303 119.524 50.1847C119.444 50.0391 118.964 49.959 118.414 49.4931C117.865 49.0272 117.639 48.2919 117.912 48.0153C118.185 47.7386 118.123 47.815 118.735 48.1936Z" fill="#FFA8A7"/>
<path d="M141.434 36.2216C142.984 36.9824 143.618 38.1399 142.926 40.717C142.307 43.0321 139.934 46.9815 138.067 48.9143C138.067 48.9143 134.871 47.4001 133.171 45.4308C134.852 42.8574 135.664 41.3431 137.244 39.1628C138.824 36.9824 140.487 35.9632 141.434 36.2216Z" fill="#E0E0E0"/>
</svg>
