<svg width="294" height="294" viewBox="0 0 294 294" fill="none" xmlns="http://www.w3.org/2000/svg">
<path d="M87.7359 54.3018C90.5088 57.6952 92.0103 61.9501 91.9813 66.3322C91.9519 68.8136 91.4933 71.5478 92.9397 73.5646C94.0334 75.0934 96.0326 75.8637 96.9205 77.5219C97.9907 79.5152 97.0793 82.0377 97.7378 84.2016C98.6669 87.2709 102.265 88.5586 104.4 90.9518C105.31 92.0101 105.946 93.2752 106.254 94.6366C106.561 95.9979 106.53 97.4138 106.164 98.7604C105.775 100.101 105.072 101.33 104.112 102.345C103.153 103.359 101.966 104.13 100.648 104.593C99.242 105.148 97.6732 105.122 96.2855 104.523C94.8449 103.805 93.9335 102.33 93.2279 100.889C91.8108 98.0548 79.3628 82.7374 78.6572 79.6446" fill="#263238"/>
<path d="M78.6809 50.6916C73.5888 49.8684 68.6849 53.2494 66.5505 57.9417C64.416 62.6339 64.3455 67.9377 64.1985 73.1121C64.0515 78.2865 63.6751 83.649 61.0468 88.0825C59.3769 90.8991 56.7897 93.3745 56.3839 96.6144C56.0194 99.5191 57.5247 102.447 57.0249 105.334C56.5897 107.851 54.6729 110.038 54.7493 112.585C54.8434 115.654 58.0009 117.965 61.0644 118.047C64.1279 118.129 66.9973 116.524 69.4023 114.619C73.3205 111.508 76.4559 107.523 78.5574 102.982" fill="#263238"/>
<path d="M70.3018 62.8278C70.1419 61.5469 70.2409 60.247 70.5929 59.0051C70.945 57.7632 71.543 56.6046 72.3514 55.5983C73.1598 54.5919 74.1621 53.7582 75.2989 53.1466C76.4356 52.535 77.6837 52.158 78.9689 52.038C84.1022 51.5441 88.6709 55.372 89.4412 60.4758C90.1174 64.9505 90.6937 69.4664 90.676 71.1069C90.6113 76.052 87.736 77.9747 86.56 78.5568C86.137 78.7087 85.6996 78.817 85.2547 78.8802V78.9155L86.3483 84.5956C86.8481 88.3176 84.7725 91.6516 81.0563 92.1749C77.3402 92.6982 74.4178 89.8582 73.8475 86.1362L70.3018 62.8278Z" fill="#FFBE9D"/>
<path d="M88.4294 62.6398C88.347 62.7574 87.6944 62.4104 86.8594 62.5339C86.0244 62.6574 85.4658 63.1631 85.36 63.0749C85.2542 62.9867 85.36 62.8397 85.6187 62.6045C85.9402 62.2912 86.3512 62.0858 86.7947 62.0165C87.2298 61.9494 87.675 62.0236 88.0648 62.2282C88.3588 62.4163 88.4705 62.5927 88.4294 62.6398Z" fill="#263238"/>
<path d="M80.985 64.4507C80.9027 64.5683 80.25 64.2155 79.4092 64.339C78.5683 64.4624 78.0215 64.974 77.9157 64.8858C77.8098 64.7976 77.9157 64.6447 78.1744 64.4154C78.4959 64.1022 78.9069 63.8967 79.3504 63.8274C79.7861 63.7654 80.2303 63.8415 80.6205 64.045C80.9086 64.2272 81.0262 64.3978 80.985 64.4507Z" fill="#263238"/>
<path d="M84.0372 68.9371C84.4578 68.7347 84.9023 68.5866 85.3602 68.4961C85.5719 68.4431 85.7659 68.3726 85.7836 68.2197C85.7645 68.0049 85.6827 67.8004 85.5484 67.6317L84.6722 66.0676C83.4551 63.8803 82.5437 62.0692 82.6319 62.0163C82.7201 61.9634 83.8079 63.7097 84.9839 65.8971C85.2838 66.4381 85.5719 66.9555 85.8306 67.4435C86.0015 67.6827 86.0845 67.9734 86.0658 68.2667C86.0464 68.347 86.0087 68.4216 85.9557 68.4849C85.9026 68.5481 85.8357 68.5982 85.76 68.6313C85.6454 68.6815 85.5249 68.717 85.4014 68.7371C84.9573 68.863 84.4987 68.9302 84.0372 68.9371Z" fill="#263238"/>
<path d="M85.2073 78.8862C85.2073 78.8862 82.0145 79.6212 77.6162 77.7808C77.6162 77.7808 79.5155 81.8674 85.5072 80.415L85.2073 78.8862Z" fill="#EB996E"/>
<path d="M80.5557 62.2575C80.5087 62.4985 79.6561 62.5103 78.6918 62.7749C77.7275 63.0395 76.9689 63.4158 76.8102 63.2335C76.7396 63.1453 76.8455 62.9101 77.1336 62.6455C77.5215 62.3137 77.9799 62.0746 78.474 61.9462C78.9681 61.8178 79.485 61.8036 79.9854 61.9047C80.3735 61.9929 80.5557 62.1457 80.5557 62.2575Z" fill="#263238"/>
<path d="M87.7413 60.7875C87.6237 60.9992 87.0181 60.8874 86.3243 60.9756C85.6304 61.0638 85.0601 61.2932 84.8954 61.1109C84.8249 61.0227 84.8954 60.8228 85.1189 60.6052C85.4272 60.3318 85.8142 60.1631 86.2243 60.123C86.6293 60.0742 87.0396 60.1501 87.4003 60.3406C87.6825 60.4994 87.7943 60.6816 87.7413 60.7875Z" fill="#263238"/>
<path d="M79.1685 65.5326C79.1814 65.6236 79.2123 65.7111 79.2593 65.79C79.3063 65.869 79.3686 65.9378 79.4425 65.9925C79.5163 66.0472 79.6003 66.0867 79.6895 66.1087C79.7788 66.1307 79.8715 66.1347 79.9623 66.1206C80.0506 66.1104 80.136 66.0828 80.2135 66.0393C80.291 65.9958 80.3591 65.9374 80.4138 65.8673C80.4686 65.7973 80.5088 65.7171 80.5322 65.6313C80.5557 65.5456 80.5618 65.4561 80.5503 65.3679C80.5227 65.1848 80.4237 65.0201 80.2749 64.9099C80.1261 64.7997 79.9397 64.753 79.7565 64.7799C79.6679 64.7893 79.5821 64.8164 79.5042 64.8597C79.4262 64.9029 79.3578 64.9614 79.303 65.0316C79.2481 65.1018 79.2079 65.1824 79.1848 65.2684C79.1617 65.3545 79.1562 65.4443 79.1685 65.5326Z" fill="#263238"/>
<path d="M86.5835 63.9273C86.6111 64.1104 86.7102 64.2751 86.859 64.3853C87.0077 64.4956 87.1941 64.5423 87.3773 64.5153C87.4656 64.5052 87.551 64.4775 87.6285 64.4341C87.7061 64.3906 87.7742 64.3321 87.8289 64.2621C87.8836 64.1921 87.9238 64.1118 87.9473 64.0261C87.9707 63.9404 87.9768 63.8508 87.9653 63.7627C87.9377 63.5796 87.8387 63.4149 87.6899 63.3047C87.5411 63.1945 87.3547 63.1477 87.1715 63.1747C87.0829 63.1841 86.9971 63.2112 86.9192 63.2545C86.8413 63.2977 86.7729 63.3562 86.718 63.4264C86.6631 63.4966 86.623 63.5771 86.5999 63.6632C86.5768 63.7493 86.5712 63.8391 86.5835 63.9273Z" fill="#263238"/>
<path d="M85.3545 70.5602C85.1237 70.4883 84.875 70.4996 84.6516 70.5919C84.4282 70.6843 84.2442 70.852 84.1315 71.0658C84.0238 71.2622 83.9801 71.4873 84.0065 71.7097C84.0328 71.9321 84.1279 72.1407 84.2785 72.3065C84.4388 72.4639 84.6498 72.5593 84.8738 72.5754C85.0979 72.5916 85.3204 72.5275 85.5015 72.3947C85.7284 72.1882 85.8655 71.9013 85.8837 71.5951C85.9237 71.3143 85.8565 71.0288 85.6956 70.7954C85.613 70.6812 85.4951 70.5975 85.3601 70.5571C85.2251 70.5167 85.0805 70.5219 84.9488 70.5719" fill="#EB996E"/>
<path d="M88.7881 56.4481C88.3265 54.5851 87.1748 52.9668 85.5658 51.9205C84.2488 50.9692 82.6844 50.4198 81.0618 50.3387C79.429 50.2684 77.8349 50.8477 76.6282 51.9499C75.772 52.7986 75.2823 53.949 75.2641 55.1545L75.3582 54.3313C75.1111 55.0011 75.1111 55.7371 75.3582 56.4069C75.4934 56.7656 75.658 57.1301 75.7992 57.4888C76.2201 58.5253 77.001 59.3751 77.9983 59.882C78.4499 60.1242 78.9558 60.2477 79.4683 60.2407C79.7248 60.2355 79.9772 60.1744 80.2077 60.0617C80.4383 59.949 80.6414 59.7873 80.803 59.588C81.1681 58.9506 81.2814 58.1996 81.1206 57.4829C81.5064 58.1912 82.057 58.7962 82.7258 59.2469C83.0673 59.4652 83.4735 59.5592 83.8761 59.5131C84.2788 59.4671 84.6533 59.2838 84.9367 58.9941C85.4188 58.4061 85.2307 57.4771 84.9367 56.7479C85.3916 57.4357 86.0288 57.9833 86.7771 58.3297C86.974 58.4426 87.1922 58.5135 87.4179 58.5378C87.6436 58.5621 87.8719 58.5393 88.0884 58.4708C88.2614 58.385 88.4127 58.261 88.5308 58.1082C88.649 57.9554 88.7309 57.7778 88.7704 57.5888C88.8577 57.2142 88.8637 56.8252 88.7881 56.4481Z" fill="#263238"/>
<path d="M84.5373 58.0122C84.4844 58.0122 84.4962 57.3125 84.2669 56.2482C84.0023 54.834 83.2913 53.5418 82.2383 52.5615C81.6595 52.0351 80.9612 51.6577 80.2038 51.4619C79.5835 51.3097 78.9375 51.2936 78.3104 51.4149C77.7324 51.55 77.1803 51.7783 76.6758 52.0911C76.6758 52.0911 76.7757 51.9441 77.0345 51.7559C77.4058 51.4962 77.8227 51.3087 78.2634 51.2032C78.9228 51.0488 79.609 51.0488 80.2685 51.2032C81.081 51.406 81.8293 51.8105 82.4441 52.3792C83.5467 53.4 84.2667 54.7674 84.4844 56.2541C84.5544 56.6936 84.5898 57.1379 84.5903 57.583C84.5975 57.728 84.5796 57.8733 84.5373 58.0122Z" fill="#455A64"/>
<path d="M138.692 126.567L116.083 117.6C116.083 117.6 104.505 102.412 104.746 102.118L96.6143 111.02L108.433 127.008L135.828 133.429L140.532 132.124C139.497 127.131 138.692 126.567 138.692 126.567Z" fill="#FFBE9D"/>
<path d="M89.417 83.2373L86.3359 82.0613L73.0353 83.7488V86.1008L72.6531 86.1479C69.786 86.7575 67.0361 87.8257 64.5093 89.3113C62.1424 90.7562 60.2618 92.8759 59.1092 95.398C57.9566 97.9201 57.5847 100.729 58.0413 103.464C58.5823 106.828 59.6289 110.914 61.6516 113.278C65.5148 117.8 69.0428 112.214 69.0428 112.214C69.0428 112.214 71.4653 117.741 71.3242 120.358C71.2066 122.551 70.2423 127.114 69.9307 128.537C69.9179 128.594 69.9168 128.653 69.9275 128.71C69.9382 128.767 69.9604 128.822 69.9929 128.87C70.0254 128.919 70.0673 128.96 70.1163 128.991C70.1652 129.023 70.2201 129.044 70.2776 129.054L98.3369 134.246L98.4722 127.384L97.5784 99.1603L96.3142 88.2C96.3142 88.2 96.3554 82.9668 89.417 83.2373Z" fill="#2563EB"/>
<path d="M95.8857 86.3772L106.587 101.836L97.9731 112.326L95.8857 86.3772Z" fill="#2563EB"/>
<path d="M98.1967 118.905C98.1582 118.574 98.1445 118.24 98.1555 117.906C98.1555 117.212 98.1555 116.301 98.1202 115.189C98.0682 112.206 97.8542 109.229 97.4793 106.269C97.0383 102.8 96.3621 99.7013 95.8505 97.4492L95.2273 94.8032C95.1369 94.4832 95.0701 94.157 95.0273 93.8271C95.1611 94.1327 95.2673 94.4495 95.3449 94.7738C95.5271 95.3618 95.7741 96.285 96.0563 97.4022C96.8156 100.303 97.3929 103.249 97.7851 106.222C98.1631 109.194 98.3477 112.187 98.3378 115.183C98.3378 116.359 98.3084 117.265 98.2731 117.906C98.2761 118.241 98.2506 118.575 98.1967 118.905Z" fill="#263238"/>
<path d="M71.8539 95.403C71.8539 95.45 71.0425 95.4441 69.743 95.5088C68.0474 95.6008 66.3611 95.8189 64.6979 96.1615C63.0352 96.5104 61.4002 96.9801 59.8058 97.5668C58.5827 98.0196 57.8477 98.3547 57.8242 98.3077C57.9749 98.1896 58.1411 98.0926 58.3181 98.0196C58.6415 97.8432 59.1237 97.6197 59.7293 97.3669C62.9022 96.0566 66.2931 95.3545 69.7253 95.2971C70.3839 95.2971 70.9013 95.2971 71.2835 95.3324C71.4762 95.3262 71.6686 95.35 71.8539 95.403Z" fill="#FAFAFA"/>
<path d="M96.6379 102.477C96.2079 102.633 95.7591 102.732 95.3032 102.771C93.1289 103.088 90.9261 103.163 88.7352 102.994C88.2777 102.986 87.8231 102.919 87.3828 102.794C87.8366 102.754 88.2931 102.754 88.747 102.794C89.5819 102.794 90.7403 102.794 92.0163 102.794C93.2922 102.794 94.4447 102.665 95.2796 102.588C95.7281 102.51 96.1827 102.473 96.6379 102.477Z" fill="#FAFAFA"/>
<path d="M101.548 95.4855C100.899 96.2343 100.123 96.8616 99.2544 97.3377C98.4345 97.8919 97.5196 98.2905 96.5554 98.5137C96.5202 98.4313 97.7314 97.9257 99.0956 97.0554C100.46 96.1852 101.489 95.4149 101.548 95.4855Z" fill="#FAFAFA"/>
<path d="M97.2257 88.3177C95.3705 89.9865 93.0068 90.9809 90.5166 91.1401C90.5166 91.046 92.1336 90.7991 93.9917 90.0053C95.8498 89.2115 97.1669 88.2413 97.2257 88.3177Z" fill="#FAFAFA"/>
<path d="M97.8085 114.448C97.6355 114.565 97.4501 114.661 97.2557 114.736C96.8853 114.913 96.3502 115.13 95.6681 115.383C93.8961 116.02 92.0668 116.485 90.2056 116.771C88.3446 117.058 86.4599 117.163 84.5785 117.082C83.8552 117.053 83.2731 117 82.8733 116.947C82.6639 116.933 82.4568 116.896 82.2559 116.836C82.2559 116.783 83.1496 116.836 84.6079 116.871C88.3464 116.906 92.0658 116.334 95.6211 115.177C96.9617 114.736 97.7908 114.401 97.8085 114.448Z" fill="#FAFAFA"/>
<path d="M98.0255 122.416C98.0255 122.416 97.9432 122.475 97.7727 122.563L97.02 122.892C96.3732 123.198 95.4148 123.598 94.2153 124.068C93.0157 124.538 91.5634 124.991 89.9287 125.438C86.375 126.395 82.7274 126.961 79.0507 127.126C77.3573 127.19 75.8344 127.184 74.5525 127.126C73.2707 127.067 72.2417 126.973 71.5302 126.873L70.7129 126.761C70.6166 126.754 70.5217 126.734 70.4307 126.702C70.5261 126.687 70.6233 126.687 70.7188 126.702L71.542 126.755C72.2535 126.814 73.306 126.873 74.5584 126.908C75.8109 126.943 77.3573 126.908 79.039 126.849C80.7207 126.79 82.567 126.579 84.4897 126.261C86.4125 125.944 88.2235 125.562 89.8582 125.15C91.4928 124.738 92.9393 124.274 94.1388 123.845C95.3383 123.415 96.3144 123.057 96.973 122.786L97.7374 122.486C97.8307 122.453 97.9273 122.429 98.0255 122.416Z" fill="#FAFAFA"/>
<path d="M46.4522 247.419L43.2711 261.784L37.4676 272.42C37.3689 272.602 37.3085 272.802 37.2901 273.008C37.2718 273.214 37.2959 273.421 37.3609 273.617C37.426 273.814 37.5305 273.994 37.6682 274.149C37.8059 274.303 37.9738 274.427 38.1614 274.514C38.3792 274.614 38.6178 274.66 38.8572 274.649C39.0966 274.637 39.3298 274.569 39.5373 274.449C42.2304 272.897 52.1146 267.117 52.2852 266.052C52.491 264.824 56.6481 251.123 56.6481 251.123L46.4522 247.419Z" fill="#2563EB"/>
<g opacity="0.6">
<path d="M38.1611 274.514L52.526 265.106L52.3731 265.694C52.2474 266.218 51.9389 266.681 51.5028 266.999C50.3268 267.84 47.0517 270.098 39.5841 274.461C39.3697 274.586 39.1276 274.657 38.8793 274.666C38.631 274.675 38.3843 274.623 38.1611 274.514Z" fill="white"/>
</g>
<g opacity="0.6">
<path d="M50.7209 259.761C50.5134 259.847 50.3452 260.008 50.2486 260.21C50.152 260.413 50.1338 260.645 50.1975 260.86C50.276 261.07 50.4319 261.242 50.6331 261.34C50.8344 261.439 51.0656 261.457 51.2795 261.39C51.5016 261.298 51.6814 261.126 51.7836 260.909C51.8859 260.691 51.9032 260.443 51.8322 260.214C51.7281 260.005 51.5482 259.845 51.3295 259.765C51.1109 259.685 50.8699 259.692 50.6562 259.784" fill="white"/>
</g>
<path d="M42.9591 269.069C42.7219 268.54 42.389 268.06 41.9772 267.652C41.5028 267.321 40.9701 267.084 40.4072 266.952C40.4072 266.911 40.613 266.846 40.9599 266.881C41.4114 266.94 41.8362 267.128 42.183 267.422C42.5324 267.706 42.7902 268.086 42.9239 268.516C43.0238 268.851 42.9944 269.069 42.9591 269.069Z" fill="#263238"/>
<path d="M41.4716 270.733C41.3892 270.78 41.0423 270.204 40.3544 269.81C39.9155 269.606 39.4637 269.431 39.002 269.287C39.2558 269.203 39.5258 269.182 39.7896 269.224C40.0534 269.266 40.3034 269.37 40.519 269.528C41.301 269.98 41.5539 270.715 41.4716 270.733Z" fill="#263238"/>
<path d="M45.4522 267.081C44.9521 266.526 44.4095 266.011 43.8293 265.541C43.19 265.151 42.5216 264.811 41.8301 264.524C42.6253 264.507 43.4005 264.774 44.0174 265.276C44.6976 265.685 45.2071 266.326 45.4522 267.081Z" fill="#263238"/>
<path d="M46.7873 262.795C46.7285 262.871 46.017 262.348 45.0233 262.06C44.0295 261.772 43.1299 261.819 43.124 261.719C43.7785 261.549 44.4666 261.56 45.1155 261.749C45.7645 261.939 46.3502 262.3 46.8108 262.795H46.7873Z" fill="#263238"/>
<path d="M47.828 258.602C47.2544 258.248 46.6352 257.973 45.9875 257.785C45.3203 257.694 44.6438 257.694 43.9766 257.785C43.9766 257.75 44.1588 257.609 44.5352 257.497C45.0298 257.363 45.5491 257.346 46.0514 257.448C46.5537 257.55 47.0252 257.768 47.4281 258.085C47.728 258.367 47.8515 258.579 47.828 258.602Z" fill="#263238"/>
<path d="M46.2055 256.991C46.2059 256.805 46.246 256.62 46.3231 256.45C46.4897 255.965 46.7538 255.519 47.0992 255.139C47.3252 254.838 47.6431 254.619 48.0047 254.516C48.1279 254.496 48.2542 254.513 48.3674 254.565C48.4806 254.618 48.5755 254.703 48.6398 254.81C48.7479 255.029 48.7709 255.28 48.7045 255.515C48.5537 255.987 48.2437 256.392 47.8275 256.66C47.4113 256.928 46.9148 257.043 46.423 256.985C45.9381 256.916 45.4844 256.705 45.1193 256.379C44.7541 256.052 44.4937 255.625 44.3709 255.151C44.3427 255.03 44.3401 254.905 44.3634 254.784C44.3867 254.662 44.4354 254.547 44.5061 254.445C44.5874 254.35 44.6967 254.284 44.8183 254.255C44.9399 254.227 45.0674 254.238 45.1823 254.286C45.5147 254.452 45.7983 254.701 46.0055 255.01C46.3172 255.418 46.5541 255.877 46.7053 256.368C46.7769 256.543 46.811 256.731 46.8052 256.921C46.5682 256.287 46.2372 255.692 45.8233 255.157C45.6305 254.905 45.3806 254.704 45.0941 254.569C45.0312 254.541 44.961 254.535 44.8942 254.551C44.8274 254.567 44.7676 254.604 44.7237 254.657C44.6826 254.726 44.6562 254.803 44.6461 254.883C44.636 254.963 44.6424 255.044 44.6649 255.121C44.7876 255.52 45.0204 255.877 45.3366 256.149C45.6529 256.422 46.0396 256.6 46.4524 256.662C46.8683 256.71 47.2883 256.616 47.6439 256.395C47.9995 256.174 48.2697 255.839 48.4105 255.445C48.4674 255.285 48.4674 255.111 48.4105 254.951C48.3771 254.891 48.3257 254.842 48.2635 254.813C48.2013 254.783 48.1313 254.774 48.0635 254.786C47.7571 254.87 47.484 255.047 47.2815 255.292C46.8304 255.794 46.4667 256.369 46.2055 256.991Z" fill="#263238"/>
<g opacity="0.3">
<path d="M46.0639 248.977L45.376 252.27L55.7777 253.998L56.6479 251.123L46.4344 247.419L46.0639 248.977Z" fill="black"/>
</g>
<path d="M92.9046 252.734L92.0461 264.212C92.0461 264.212 103.43 268.916 103.477 271.08L81.1328 270.216L81.7208 252.27L92.9046 252.734Z" fill="#2563EB"/>
<g opacity="0.6">
<path d="M85.1954 262.977C84.9785 263.035 84.7905 263.171 84.667 263.358C84.5434 263.546 84.4929 263.772 84.5251 263.994C84.5746 264.213 84.7054 264.405 84.8911 264.53C85.0768 264.656 85.3033 264.706 85.5247 264.671C85.7553 264.61 85.955 264.465 86.0854 264.265C86.2157 264.065 86.2673 263.824 86.2303 263.589C86.156 263.365 85.9982 263.18 85.79 263.07C85.5817 262.96 85.3392 262.936 85.1131 263.001" fill="white"/>
</g>
<g opacity="0.6">
<path d="M81.1445 270.215L81.2739 268.404L102.648 269.892C102.648 269.892 103.63 270.362 103.489 271.068L81.1445 270.215Z" fill="white"/>
</g>
<path d="M92.4219 264.112C92.4219 264.224 91.8692 264.253 91.3224 264.582C90.7755 264.912 90.4698 265.359 90.3698 265.311C90.2698 265.264 90.458 264.641 91.1283 264.253C91.7986 263.865 92.4513 264.012 92.4219 264.112Z" fill="#263238"/>
<path d="M94.7271 265.188C94.7271 265.3 94.2685 265.464 93.8804 265.911C93.4923 266.358 93.3688 266.84 93.2571 266.835C93.1454 266.829 93.1042 266.205 93.5981 265.659C94.0921 265.112 94.7271 265.071 94.7271 265.188Z" fill="#263238"/>
<path d="M95.9504 268.028C95.8504 268.028 95.7211 267.493 96.021 266.911C96.3209 266.329 96.8442 266.105 96.8853 266.199C96.9265 266.294 96.6031 266.599 96.362 267.081C96.1209 267.564 96.0562 268.022 95.9504 268.028Z" fill="#263238"/>
<path d="M92.3157 261.478C92.2687 261.572 91.7748 261.401 91.1397 261.419C90.5047 261.437 90.0343 261.613 89.9637 261.519C89.8932 261.425 90.3871 261.055 91.1397 261.043C91.8924 261.031 92.3863 261.396 92.3157 261.478Z" fill="#263238"/>
<g opacity="0.3">
<path d="M92.745 255.01L92.5922 257.056L81.626 256.527L81.7024 254.163L92.745 255.01Z" fill="black"/>
</g>
<path d="M92.463 259.155C92.0935 259.244 91.7064 259.228 91.3458 259.108C90.9381 259.023 90.5429 258.887 90.1698 258.702C89.9521 258.595 89.7419 258.473 89.5406 258.338C89.4179 258.262 89.3069 258.169 89.2113 258.061C89.1465 257.977 89.1113 257.874 89.1113 257.767C89.1113 257.661 89.1465 257.558 89.2113 257.473C89.2685 257.399 89.3426 257.339 89.4275 257.299C89.5124 257.26 89.6056 257.241 89.6994 257.244C89.841 257.25 89.9812 257.273 90.1168 257.315C90.3521 257.383 90.5805 257.474 90.7989 257.585C91.1702 257.767 91.5098 258.007 91.8044 258.297C92.3042 258.796 92.463 259.214 92.4277 259.231C92.3924 259.249 92.1396 258.914 91.628 258.496C91.3277 258.262 90.9999 258.064 90.6519 257.908C90.4445 257.823 90.2325 257.748 90.0169 257.685C89.7817 257.614 89.5818 257.609 89.5171 257.685C89.4524 257.761 89.5171 257.744 89.5171 257.814C89.5876 257.892 89.6688 257.959 89.7582 258.014C89.9468 258.146 90.1431 258.265 90.3462 258.373C90.6852 258.56 91.0417 258.714 91.4105 258.832C91.7685 258.914 92.1203 259.022 92.463 259.155Z" fill="#263238"/>
<path d="M92.3165 259.308C92.1211 258.978 92.0328 258.596 92.0636 258.214C92.066 257.801 92.1334 257.39 92.2636 256.997C92.348 256.767 92.4522 256.545 92.5752 256.333C92.6413 256.187 92.7435 256.061 92.8722 255.966C93.0009 255.872 93.1517 255.812 93.3102 255.792C93.4106 255.798 93.5071 255.833 93.5883 255.893C93.6695 255.952 93.7322 256.033 93.7688 256.127C93.8199 256.259 93.8516 256.397 93.8629 256.539C93.9016 256.788 93.9016 257.042 93.8629 257.291C93.7843 257.707 93.6046 258.096 93.3396 258.426C92.881 259.014 92.4223 259.102 92.4106 259.067C92.3988 259.032 92.7634 258.814 93.122 258.267C93.3279 257.955 93.4624 257.602 93.516 257.232C93.5458 257.018 93.5458 256.8 93.516 256.586C93.4866 256.35 93.4043 256.15 93.3161 256.174C93.2279 256.197 93.0103 256.339 92.9104 256.527C92.7956 256.715 92.6953 256.911 92.6105 257.115C92.4744 257.47 92.3873 257.842 92.3518 258.22C92.2753 258.879 92.3753 259.308 92.3165 259.308Z" fill="#263238"/>
<path d="M69.8076 128.948C69.8076 128.948 66.2796 129.107 63.9276 141.173C61.5756 153.239 43.6475 251.005 43.6475 251.005L56.6481 251.123L81.1442 158.172L79.5155 254.016L92.7219 255.027C92.7219 255.027 102.63 149.017 102.718 142.849C102.836 135.158 98.4197 127.378 98.4197 127.378L69.8076 128.948Z" fill="#263238"/>
<path d="M87.6771 127.919C87.7595 127.919 86.4071 134.828 84.6607 143.313C82.9143 151.798 81.4326 158.666 81.3503 158.648C81.2679 158.631 82.6145 151.739 84.3608 143.255C86.1072 134.77 87.6125 127.902 87.6771 127.919Z" fill="#455A64"/>
<path d="M89.6993 129.642C89.6993 129.607 90.0521 129.501 90.4579 129.86C90.5731 129.964 90.6643 130.093 90.7252 130.236C90.7861 130.379 90.8153 130.533 90.8107 130.689C90.7959 130.885 90.7257 131.074 90.608 131.232C90.4904 131.39 90.3302 131.512 90.1462 131.583C89.9667 131.664 89.7679 131.694 89.5724 131.668C89.377 131.642 89.1928 131.561 89.0408 131.436C88.9271 131.329 88.8373 131.199 88.7775 131.055C88.7177 130.912 88.6892 130.757 88.6939 130.601C88.6939 130.06 89.0584 129.872 89.0643 129.907C88.9651 130.123 88.913 130.357 88.9114 130.595C88.9193 130.714 88.9509 130.831 89.0044 130.938C89.0579 131.045 89.1323 131.14 89.2231 131.218C89.3391 131.298 89.4733 131.348 89.6135 131.362C89.7536 131.377 89.8952 131.356 90.0251 131.301C90.1551 131.247 90.2693 131.161 90.3572 131.051C90.4452 130.94 90.504 130.81 90.5284 130.671C90.5371 130.552 90.5218 130.432 90.4834 130.319C90.445 130.206 90.3843 130.102 90.305 130.013C90.0169 129.678 89.6935 129.689 89.6993 129.642Z" fill="#455A64"/>
<path d="M89.1414 134.417C89.1414 134.382 89.506 134.417 89.7294 134.905C89.7862 135.044 89.812 135.194 89.8049 135.345C89.7978 135.495 89.758 135.642 89.6883 135.775C89.5871 135.934 89.4447 136.062 89.2764 136.145C89.108 136.229 88.92 136.265 88.7326 136.25C88.5452 136.235 88.3655 136.169 88.2127 136.06C88.0599 135.95 87.9399 135.801 87.8655 135.628C87.8185 135.486 87.8031 135.336 87.8203 135.188C87.8376 135.04 87.8871 134.897 87.9654 134.77C88.2418 134.329 88.6181 134.34 88.6063 134.376C88.5946 134.411 88.3241 134.493 88.1536 134.87C88.0673 135.081 88.0673 135.317 88.1536 135.528C88.215 135.645 88.3049 135.744 88.4149 135.817C88.525 135.889 88.6516 135.933 88.783 135.944C88.9144 135.954 89.0464 135.931 89.1666 135.877C89.2869 135.823 89.3915 135.739 89.4707 135.634C89.5815 135.433 89.6089 135.197 89.5471 134.976C89.3766 134.576 89.112 134.458 89.1414 134.417Z" fill="#455A64"/>
<path d="M76.6814 129.76C76.6572 129.962 76.6058 130.16 76.5285 130.348C76.3448 130.886 76.1146 131.408 75.8405 131.906C74.9434 133.569 73.6476 134.984 72.0693 136.024C70.491 137.063 68.6795 137.695 66.7971 137.862C66.2317 137.912 65.6631 137.912 65.0978 137.862C64.8986 137.856 64.701 137.825 64.5098 137.768C64.5098 137.71 65.3976 137.81 66.803 137.633C68.6345 137.411 70.3896 136.767 71.9302 135.752C73.4708 134.736 74.755 133.378 75.6818 131.783C76.3697 130.595 76.6284 129.742 76.6814 129.76Z" fill="#455A64"/>
<path d="M101.977 138.339C101.977 138.339 101.825 138.268 101.583 138.104C101.247 137.861 100.932 137.59 100.643 137.292C99.6756 136.313 98.9211 135.145 98.4264 133.861C97.9316 132.577 97.7072 131.205 97.7674 129.83C97.7808 129.417 97.834 129.005 97.9261 128.602C97.9908 128.313 98.0319 128.161 98.0555 128.166C98.079 128.172 97.9849 128.807 97.9849 129.836C97.9859 132.537 98.9895 135.142 100.801 137.145C101.489 137.904 102.007 138.292 101.977 138.339Z" fill="#455A64"/>
<path d="M147.589 138.68C147.783 138.21 147.73 138.398 144.613 136.328C144.613 136.328 149.082 139.268 148.618 137.869C148.216 137.338 147.724 136.883 147.165 136.522C148.341 137.216 149.023 137.292 149.229 137.01C149.582 136.522 147.024 134.658 145.807 133.817C146.92 134.613 148.087 135.33 149.3 135.963C150.023 136.187 149.676 135.34 149.188 134.723C148.7 134.105 144.913 130.46 143.896 129.372C143.799 129.289 143.721 129.186 143.668 129.071C143.615 128.955 143.587 128.829 143.587 128.702C143.587 128.574 143.615 128.448 143.668 128.333C143.721 128.217 143.799 128.114 143.896 128.031C145.719 126.855 146.518 124.98 146.495 124.362C146.475 124.223 146.411 124.094 146.313 123.994C146.215 123.893 146.087 123.826 145.949 123.803C145.81 123.779 145.668 123.8 145.542 123.863C145.416 123.925 145.313 124.026 145.248 124.15C144.788 124.722 144.252 125.229 143.655 125.656C143.192 126.017 142.671 126.297 142.114 126.485C141.467 126.697 138.286 126.52 137.604 126.173L135.435 133.529C135.435 133.529 143.308 137.21 144.801 137.927C146.636 138.798 147.453 139.039 147.589 138.68Z" fill="#FFBE9D"/>
<path d="M143.196 135.24C143.132 135.328 144.155 136.075 145.478 136.916C146.801 137.757 147.912 138.362 147.965 138.274C148.018 138.186 146.995 137.433 145.678 136.598C144.361 135.763 143.255 135.128 143.196 135.24Z" fill="#EB996E"/>
<path d="M143.937 133.799C143.878 133.888 144.925 134.746 146.289 135.722C147.653 136.698 148.782 137.421 148.841 137.339C148.9 137.257 147.859 136.392 146.489 135.416C145.119 134.44 144.002 133.717 143.937 133.799Z" fill="#EB996E"/>
<path d="M144.718 132.341C144.66 132.423 145.636 133.258 146.9 134.199C148.164 135.14 149.252 135.834 149.299 135.751C149.346 135.669 148.387 134.834 147.123 133.893C145.859 132.953 144.783 132.259 144.718 132.341Z" fill="#EB996E"/>
<path d="M64.6392 105.699L70.4133 106.016C70.8223 107.628 71.3692 109.202 72.048 110.72C76.6991 102.653 80.28 91.8397 81.1973 87.4944C81.0679 87.0671 80.9091 86.585 80.721 86.0479C80.5801 85.2361 80.6041 84.4042 80.7915 83.6018C80.9503 82.6375 81.2208 81.3322 81.2972 80.7324C81.5501 78.8978 81.8441 78.6038 82.4732 78.8155C83.3435 79.0978 82.1145 83.9723 82.826 84.0781C83.2141 84.131 83.6786 82.4611 83.8197 81.0911C83.9609 79.721 84.5724 75.511 85.0251 75.2111C85.6896 74.7995 86.2658 75.4522 86.1012 76.8163C85.9365 78.1805 85.719 82.3141 86.4422 82.367C87.1655 82.42 87.7535 75.4345 87.7535 75.4345C87.7535 75.4345 87.6417 73.9175 88.4767 73.9528C89.9879 74.0174 88.8119 81.3851 88.6825 82.0848C88.5884 82.567 89.3763 82.6728 89.4469 82.1318C89.5175 81.5909 89.882 75.1405 91.4167 75.1934C92.5927 75.2346 90.5053 81.2616 91.1697 82.661C91.8342 84.0605 92.2928 77.9159 93.4218 77.9982C93.8393 78.0335 94.1509 78.1158 93.3806 81.5909C92.6289 84.3542 91.7279 87.0747 90.6817 89.7406C88.9177 99.3838 81.0444 130.23 68.7434 124.585C61.8638 121.428 58.6475 105.769 58.6475 105.769L64.6392 105.699Z" fill="#FFBE9D"/>
<path d="M90.6931 89.7935C90.7032 89.7207 90.723 89.6495 90.7519 89.5819C90.8048 89.429 90.8695 89.2291 90.9577 88.9939C91.1517 88.4353 91.4163 87.6591 91.7632 86.6419C92.1101 85.6246 92.5276 84.3898 92.9392 82.9316C93.1509 82.2083 93.3273 81.4204 93.4861 80.5796C93.5684 80.1562 93.6448 79.7211 93.6978 79.2742C93.7124 79.053 93.7124 78.831 93.6978 78.6098C93.6978 78.3804 93.6448 78.1923 93.4625 78.1864C93.2803 78.1805 93.1509 78.2922 93.0215 78.4863C92.9044 78.6939 92.8079 78.9125 92.7334 79.139C92.5688 79.6035 92.4394 80.0974 92.3101 80.5972C92.1807 81.097 92.0631 81.6203 91.9102 82.1495C91.8436 82.4394 91.724 82.7145 91.5574 82.961C91.5156 83.0092 91.4603 83.044 91.3987 83.0609C91.3598 83.0695 91.3196 83.0691 91.2809 83.06C91.2422 83.0508 91.2061 83.033 91.1752 83.008C91.1077 82.946 91.0519 82.8723 91.0106 82.7904C90.9485 82.646 90.9069 82.4936 90.8871 82.3377C90.8603 81.1517 90.9788 79.9669 91.2399 78.8097C91.3399 78.2217 91.4457 77.6337 91.5221 77.0457C91.5574 76.7458 91.5927 76.4577 91.5986 76.1402C91.6045 75.8227 91.5574 75.4875 91.434 75.4346C91.3105 75.3816 91.0106 75.5463 90.846 75.7932C90.6834 76.0541 90.555 76.3347 90.4638 76.6282C90.2633 77.2424 90.1119 77.8716 90.011 78.5098C89.8993 79.1566 89.8111 79.8152 89.7346 80.4855C89.7052 80.8206 89.67 81.1558 89.6405 81.4969L89.5935 82.0084C89.5998 82.1177 89.582 82.227 89.5413 82.3286C89.5007 82.4302 89.4382 82.5216 89.3583 82.5964C89.2576 82.67 89.1361 82.7097 89.0114 82.7097C88.8867 82.7097 88.7652 82.67 88.6645 82.5964C88.6074 82.5587 88.5591 82.5094 88.5226 82.4516C88.4861 82.3938 88.4623 82.3289 88.4528 82.2612C88.4439 82.1988 88.4439 82.1355 88.4528 82.0731V81.9496L88.6116 80.9206C88.7115 80.2268 88.7938 79.5329 88.8585 78.8273C88.9232 78.1217 88.9761 77.4102 88.9879 76.6988C89.0223 75.9944 88.951 75.2887 88.7762 74.6055C88.7356 74.4321 88.6305 74.2807 88.4822 74.1821C88.4113 74.1593 88.335 74.1596 88.2642 74.1828C88.1934 74.2061 88.1318 74.2511 88.0882 74.3115C87.8978 74.6596 87.8198 75.058 87.8648 75.4522C87.7354 76.834 87.5884 78.1923 87.3885 79.527C87.2885 80.1915 87.1768 80.8559 87.0122 81.5086C86.9651 81.6674 86.9181 81.832 86.8593 81.9966C86.8034 82.1962 86.6861 82.3731 86.5241 82.5023C86.4525 82.5375 86.3711 82.5474 86.2931 82.5303C86.2151 82.5132 86.1453 82.4702 86.0949 82.4082C86.0231 82.3328 85.9689 82.2425 85.9361 82.1436C85.8727 81.9805 85.8274 81.811 85.8009 81.638C85.6631 80.3584 85.6513 79.0684 85.7656 77.7866C85.8525 77.189 85.886 76.5849 85.8656 75.9814C85.8466 75.7238 85.7286 75.4836 85.5363 75.3111C85.4912 75.283 85.4408 75.2644 85.3882 75.2563C85.3357 75.2482 85.2821 75.2509 85.2305 75.264C85.1756 75.2826 85.1224 75.3062 85.0718 75.3346C85.0189 75.3816 85.0247 75.3346 84.9895 75.4346C84.7768 75.9634 84.6211 76.5133 84.525 77.0751C84.4074 77.6631 84.3074 78.1982 84.2192 78.7509C84.131 79.3036 84.0487 79.8446 83.9781 80.3855C83.9076 80.9265 83.8723 81.4557 83.7664 81.9849C83.6751 82.5019 83.5373 83.0096 83.3548 83.5019C83.3064 83.6272 83.2494 83.749 83.1843 83.8665C83.102 83.9782 83.0549 84.1193 82.8315 84.1899C82.7743 84.2004 82.7153 84.1937 82.662 84.1707C82.6086 84.1476 82.5632 84.1093 82.5316 84.0605C82.4905 83.9926 82.4588 83.9194 82.4375 83.843C82.4111 83.7151 82.3954 83.5853 82.3905 83.4549C82.3905 82.4494 82.5258 81.5321 82.5787 80.6442C82.617 80.2198 82.617 79.7927 82.5787 79.3683C82.5787 79.1801 82.4905 78.9567 82.3846 78.9155C82.3105 78.8792 82.229 78.8603 82.1465 78.8603C82.0639 78.8603 81.9825 78.8792 81.9084 78.9155C81.6615 79.1806 81.5087 79.5194 81.4732 79.8799C81.385 80.2385 81.3498 80.6031 81.2851 80.95C81.0381 82.3377 80.7794 83.5372 80.6559 84.5133C80.5979 84.9425 80.5979 85.3776 80.6559 85.8069C80.7382 86.1597 80.8617 86.4772 80.9264 86.7242C80.9911 86.9711 81.0558 87.1475 81.0969 87.3122C81.1188 87.3752 81.1346 87.4402 81.144 87.5062C81.1087 87.4493 81.081 87.388 81.0616 87.3239L80.8617 86.7359C80.7794 86.4831 80.6559 86.2008 80.556 85.8128C80.4931 85.372 80.4931 84.9246 80.556 84.4839C80.6677 83.4902 80.9029 82.3024 81.144 80.9089C81.2086 80.5619 81.2439 80.1974 81.3204 79.821C81.3625 79.6223 81.4155 79.426 81.4791 79.233C81.5379 79.0192 81.6662 78.8309 81.8437 78.698C81.9505 78.6413 82.0696 78.6117 82.1906 78.6117C82.3115 78.6117 82.4306 78.6413 82.5375 78.698C82.6525 78.7704 82.7469 78.8712 82.8118 78.9906C82.8767 79.1101 82.9098 79.2442 82.908 79.38C82.9491 79.822 82.9491 80.2669 82.908 80.7089C82.8668 81.6027 82.7257 82.5376 82.7492 83.4902C82.7535 83.6028 82.7673 83.715 82.7904 83.8253C82.7904 83.937 82.8727 83.9841 82.8609 83.9606C82.8492 83.937 82.9726 83.8665 83.0197 83.7724C83.0777 83.6681 83.1287 83.56 83.1725 83.449C83.3467 82.9724 83.4747 82.4801 83.5548 81.979C83.6547 81.4674 83.69 80.9382 83.7605 80.3914C83.8311 79.8446 83.9017 79.3036 83.9899 78.745C84.0781 78.1864 84.178 77.6278 84.2898 77.0574C84.3854 76.4618 84.5512 75.8795 84.7837 75.3229C84.8307 75.2295 84.9017 75.1503 84.9895 75.0935C85.0676 75.0507 85.1505 75.0171 85.2364 74.9936C85.3351 74.9654 85.4386 74.9587 85.54 74.9739C85.6414 74.9891 85.7384 75.0259 85.8244 75.0818C85.9609 75.1901 86.0736 75.3254 86.1555 75.4791C86.2374 75.6329 86.2869 75.8019 86.3007 75.9755C86.3449 76.2955 86.3449 76.6199 86.3007 76.9399C86.2713 77.2397 86.2419 77.5278 86.2243 77.8571C86.1097 79.1095 86.1215 80.3703 86.2596 81.6203C86.2847 81.7688 86.3241 81.9145 86.3771 82.0554C86.3948 82.1123 86.4249 82.1646 86.4654 82.2083C86.4654 82.2083 86.4654 82.2083 86.4948 82.2083C86.4948 82.3436 86.4948 82.2083 86.4948 82.2612C86.4948 82.3142 86.4948 82.2613 86.4948 82.2142C86.5681 82.116 86.6256 82.0068 86.6653 81.8908C86.7202 81.7458 86.7672 81.5929 86.8064 81.4322C86.9652 80.8089 87.071 80.1503 87.171 79.4918C87.3709 78.1688 87.5179 76.8105 87.6414 75.4346V75.464C87.5891 74.9793 87.6942 74.4907 87.9412 74.0704C88.0355 73.9503 88.1649 73.8625 88.3114 73.8193C88.4579 73.7761 88.6142 73.7796 88.7585 73.8293C88.8819 73.8978 88.9902 73.9903 89.0771 74.1014C89.1639 74.2125 89.2276 74.3399 89.2642 74.4761C89.4525 75.1992 89.5299 75.9466 89.4936 76.6929C89.4936 77.422 89.4289 78.1394 89.3642 78.8509C89.2995 79.5623 89.2113 80.262 89.1114 80.9559C89.0584 81.3087 89.0055 81.6497 88.9526 81.9966C88.9056 82.2142 88.9173 82.2201 88.9526 82.2848C88.9934 82.3123 89.0415 82.327 89.0908 82.327C89.14 82.327 89.1881 82.3123 89.229 82.2848C89.2995 82.2318 89.3113 82.1319 89.3289 81.9378L89.3701 81.4263L89.4759 80.409C89.5465 79.7387 89.6406 79.0684 89.7523 78.4157C89.8611 77.7602 90.0183 77.1135 90.2227 76.4812C90.3294 76.1616 90.4735 75.8557 90.6519 75.5698C90.749 75.4157 90.8772 75.2835 91.0282 75.1817C91.112 75.1211 91.2092 75.0814 91.3115 75.0661C91.4138 75.0507 91.5183 75.0601 91.6162 75.0935C91.7063 75.1491 91.7823 75.2247 91.8384 75.3144C91.8945 75.4042 91.9292 75.5057 91.9396 75.611C91.9639 75.7764 91.9737 75.9436 91.969 76.1108C91.969 76.4342 91.9279 76.7458 91.8926 77.0574C91.8103 77.6454 91.6986 78.2687 91.5927 78.8626C91.3401 79.9796 91.2178 81.122 91.2281 82.2671C91.2447 82.3901 91.2763 82.5105 91.3222 82.6258C91.3436 82.6676 91.3692 82.707 91.3987 82.7434C91.3987 82.7434 91.3987 82.7434 91.3987 82.7022C91.5307 82.4897 91.628 82.2575 91.6868 82.0143C91.8397 81.5027 91.9632 80.9853 92.0984 80.4796C92.2197 79.9765 92.3669 79.4799 92.5394 78.992C92.6208 78.7503 92.7272 78.5177 92.8569 78.2981C92.927 78.1784 93.0188 78.0728 93.1274 77.9865C93.1865 77.9352 93.2571 77.8989 93.3332 77.8806C93.4092 77.8687 93.4865 77.8687 93.5625 77.8806C93.6427 77.8887 93.7194 77.918 93.7845 77.9655C93.8496 78.0131 93.9009 78.0771 93.933 78.1511C93.9821 78.2747 94.008 78.4063 94.0094 78.5392C94.014 78.7771 94.0002 79.0149 93.9682 79.2507C93.9153 79.7093 93.8271 80.1444 93.7448 80.5737C93.5743 81.4145 93.3861 82.2142 93.1568 82.9257C92.7158 84.3839 92.2748 85.6187 91.9161 86.6242C91.5574 87.6297 91.2517 88.3882 91.0459 88.9292C90.9459 89.1761 90.8636 89.3702 90.8048 89.5172C90.7785 89.6133 90.741 89.7061 90.6931 89.7935Z" fill="#EB996E"/>
<path d="M58.5947 106.363C59.7119 110.309 61.8993 116.395 64.2454 122.827C64.3194 123.035 64.4532 123.215 64.6299 123.346C64.8066 123.477 65.0182 123.553 65.238 123.564C65.4578 123.574 65.6758 123.52 65.8644 123.406C66.0531 123.293 66.2038 123.126 66.2975 122.927L72.0482 110.761C72.0482 110.761 70.6605 100.765 70.7781 101.124C70.8957 101.483 58.9122 102.418 58.9122 102.418L58.5947 106.363Z" fill="#2563EB"/>
<path d="M71.5544 104.405C71.5544 104.452 70.837 104.664 69.7022 105.099C68.2191 105.662 66.7902 106.359 65.4333 107.181C64.0782 108.006 62.7992 108.951 61.6113 110.003C60.6999 110.809 60.1766 111.361 60.1413 111.326C60.106 111.291 60.2413 111.161 60.4647 110.897C60.7797 110.529 61.1133 110.178 61.4643 109.844C62.6234 108.728 63.901 107.742 65.2746 106.904C66.6485 106.076 68.1072 105.398 69.6258 104.882C70.0848 104.723 70.5519 104.59 71.0252 104.482C71.1964 104.428 71.375 104.402 71.5544 104.405Z" fill="#FAFAFA"/>
<path d="M73.8356 107.439C73.4619 107.063 73.1379 106.64 72.8712 106.181C72.1846 105.11 71.5942 103.981 71.1072 102.806C70.6199 101.627 70.2401 100.407 69.9724 99.1603C69.8354 98.6502 69.7662 98.1243 69.7666 97.5962C69.942 98.0892 70.0815 98.5942 70.1841 99.1074C70.4991 100.325 70.8919 101.521 71.3601 102.688C71.8492 103.849 72.4109 104.979 73.0418 106.069C73.3354 106.509 73.6005 106.966 73.8356 107.439Z" fill="#263238"/>
<path d="M77.6694 53.5669C76.6718 55.2111 76.0534 57.057 75.8591 58.9702C75.6648 60.8835 75.8996 62.8161 76.5463 64.6272C77.1343 66.2442 78.0751 67.8377 77.9046 69.5546C77.734 71.2716 76.3934 72.9709 76.8638 74.6643C77.146 75.6698 78.0045 76.4283 78.3397 77.4044C78.7219 78.5804 78.3397 79.8211 78.1339 81.0265C77.6635 84.1076 78.6513 87.2064 78.8924 90.311C79.1335 93.4157 78.3044 97.0554 75.529 98.4078C74.6882 98.8194 73.5886 98.937 72.8889 98.3078C71.9952 97.514 72.2421 96.0793 72.4891 94.9033C74.9234 83.1433 67.4029 71.6655 69.1198 59.7644C69.3962 57.8593 70.4605 54.6253 71.8305 53.2964C73.2006 51.9675 77.0049 52.1204 78.2985 53.5316" fill="#263238"/>
<path d="M66.0859 87.6825C66.0859 87.6825 66.4446 87.2592 66.9738 86.4242C67.7165 85.245 68.2366 83.9396 68.5085 82.5728C68.6859 81.6313 68.7471 80.6716 68.6908 79.7151C68.5879 78.603 68.5467 77.4861 68.5673 76.3694C68.6024 75.7579 68.715 75.1533 68.9025 74.5701C69.1173 73.9694 69.3891 73.3905 69.7139 72.8414C70.3725 71.7301 71.2015 70.6952 71.9659 69.5898C72.7509 68.545 73.2969 67.3407 73.5653 66.0618C73.6957 64.8572 73.6261 63.6393 73.3595 62.4573C73.137 61.3588 73.0501 60.2372 73.1008 59.1175C73.1707 58.1395 73.3684 57.1748 73.6888 56.2481C74.1379 54.9033 74.845 53.659 75.7703 52.5848C76.0161 52.2928 76.2834 52.0196 76.57 51.7675C76.6608 51.6707 76.7636 51.5857 76.8757 51.5146C76.8757 51.5146 76.4818 51.8968 75.8585 52.6906C74.374 54.5333 73.506 56.7959 73.3771 59.1586C73.3378 60.26 73.4345 61.362 73.6653 62.4397C73.9457 63.6534 74.0213 64.9055 73.8887 66.1441C73.61 67.4586 73.0481 68.6967 72.2423 69.7721C71.472 70.8951 70.6429 71.9241 69.9961 73.0061C69.678 73.5348 69.414 74.0942 69.2082 74.676C69.0222 75.2353 68.9095 75.8164 68.8731 76.4047C68.847 77.5091 68.8784 78.614 68.9671 79.7151C69.0138 80.6908 68.9388 81.6686 68.7437 82.6257C68.449 84.0112 67.89 85.3268 67.0973 86.5006C66.8827 86.818 66.6469 87.1205 66.3917 87.4062C66.3002 87.5092 66.1977 87.6019 66.0859 87.6825Z" fill="#455A64"/>
<path d="M60.5117 88.5588C60.5591 88.4216 60.6202 88.2897 60.694 88.1648C60.841 87.8884 61.0292 87.5239 61.282 87.0652C61.7759 86.1068 62.5109 84.7132 63.2342 82.9492C64.1188 80.889 64.6095 78.6811 64.6806 76.4401C64.681 75.7944 64.6318 75.1496 64.5336 74.5114C64.4337 73.8529 64.2808 73.1884 64.1808 72.4946C64.0586 71.7769 64.0745 71.0425 64.2279 70.3308C64.4267 69.6001 64.8356 68.9438 65.4039 68.4433C66.5093 67.4378 67.8441 66.7792 68.5379 65.5974C69.1391 64.4254 69.4933 63.1426 69.5787 61.8283C69.7031 60.6234 69.9757 59.4385 70.3901 58.3003C71.3221 55.8568 72.9828 53.759 75.147 52.2909C75.4921 52.0587 75.8515 51.8485 76.2231 51.6618C76.3485 51.5866 76.4828 51.5274 76.6229 51.4854C76.6229 51.4854 76.0937 51.7676 75.2176 52.3909C73.9827 53.2721 72.9137 54.365 72.06 55.619C71.468 56.4786 70.986 57.409 70.6253 58.3885C70.2291 59.5293 69.9724 60.7139 69.8609 61.9165C69.6845 63.1689 69.5434 64.5684 68.7908 65.809C68.0381 67.0497 66.6622 67.7553 65.6097 68.749C65.0733 69.2145 64.6866 69.8283 64.4984 70.513C64.3554 71.1864 64.3415 71.8807 64.4572 72.5593C64.5513 73.2355 64.6983 73.9058 64.7982 74.5702C64.9 75.2237 64.9472 75.8846 64.9394 76.5459C64.8595 78.828 64.3425 81.0736 63.4164 83.1609C62.8149 84.5715 62.1317 85.9459 61.3702 87.2769L60.7469 88.2001C60.6814 88.3276 60.6026 88.4478 60.5117 88.5588Z" fill="#455A64"/>
<path d="M198.491 74.4055C198.491 74.4055 198.332 74.4055 198.027 74.4055C197.58 74.379 197.132 74.379 196.686 74.4055C194.959 74.5066 193.262 74.9044 191.67 75.5815C189.147 76.6392 186.951 78.3502 185.308 80.5383C184.295 81.9046 183.542 83.4452 183.086 85.0836C182.056 88.9862 182.612 93.1375 184.632 96.6319C185.182 97.5994 185.854 98.4925 186.631 99.2897C187.415 100.134 188.328 100.849 189.336 101.406C190.37 101.989 191.542 102.283 192.729 102.259C193.952 102.244 195.126 101.77 196.016 100.93C196.446 100.479 196.783 99.9483 197.008 99.3672C197.233 98.786 197.341 98.1663 197.327 97.5433C197.318 96.249 196.907 94.9894 196.151 93.9389C194.628 91.7927 192.158 90.3521 189.53 89.5759C186.805 88.8104 183.926 88.7699 181.18 89.4583C179.779 89.8229 178.428 90.3602 177.159 91.0577C175.877 91.7808 174.713 92.6948 173.707 93.7683C173.466 94.0447 173.19 94.2975 172.972 94.6033L172.308 95.4971C171.904 96.1269 171.542 96.783 171.226 97.461C170.597 98.8376 170.167 100.297 169.95 101.795C169.523 104.787 169.93 107.839 171.126 110.615C172.269 113.327 174.259 115.596 176.8 117.083C178.032 117.786 179.407 118.202 180.822 118.3C182.209 118.377 183.589 118.046 184.791 117.347C185.983 116.688 186.925 115.655 187.472 114.407C187.988 113.177 188.023 111.799 187.572 110.544C187.107 109.333 186.347 108.258 185.361 107.416C184.405 106.589 183.302 105.949 182.109 105.528C179.784 104.795 177.297 104.752 174.948 105.405C172.75 106 170.731 107.125 169.068 108.68C167.553 110.131 166.399 111.918 165.698 113.896C164.474 117.327 164.53 121.086 165.857 124.48C166.892 127.013 168.558 129.24 170.696 130.948C172.043 132.028 173.543 132.902 175.148 133.541C175.7 133.746 176.13 133.899 176.424 133.982L176.859 134.123C176.859 134.123 176.706 134.093 176.412 134.011C175.977 133.895 175.549 133.755 175.13 133.594C173.505 132.983 171.985 132.122 170.626 131.042C168.451 129.335 166.753 127.097 165.693 124.544C164.342 121.119 164.273 117.321 165.498 113.849C166.2 111.841 167.367 110.027 168.903 108.557C170.59 106.97 172.639 105.82 174.871 105.205C177.269 104.536 179.81 104.577 182.186 105.323C183.413 105.751 184.548 106.407 185.532 107.257C186.557 108.127 187.345 109.241 187.825 110.497C188.308 111.808 188.287 113.252 187.766 114.548C187.186 115.845 186.202 116.92 184.961 117.612C183.716 118.338 182.285 118.685 180.845 118.611C179.395 118.51 177.988 118.08 176.729 117.353C174.131 115.846 172.091 113.537 170.914 110.773C169.692 107.947 169.273 104.838 169.703 101.789C169.927 100.261 170.367 98.7719 171.008 97.3669C171.331 96.6745 171.7 96.0046 172.113 95.3618L172.796 94.4504C173.013 94.1388 173.295 93.8624 173.542 93.5919C174.572 92.4981 175.762 91.5663 177.07 90.8283C178.369 90.1175 179.752 89.5723 181.186 89.2055C183.985 88.5042 186.918 88.5468 189.695 89.3289C192.376 90.1286 194.887 91.5927 196.468 93.8154C197.263 94.9098 197.695 96.2259 197.703 97.5786C197.732 98.9098 197.231 100.198 196.31 101.159C195.369 102.043 194.131 102.54 192.84 102.553C191.606 102.581 190.387 102.274 189.312 101.665C188.28 101.096 187.347 100.363 186.549 99.4955C185.762 98.6805 185.08 97.7698 184.52 96.7848C182.465 93.2255 181.906 88.9956 182.968 85.0248C183.439 83.3675 184.21 81.8108 185.244 80.4325C186.916 78.2278 189.15 76.512 191.712 75.4639C193.317 74.7999 195.027 74.4256 196.762 74.3585C197.213 74.3288 197.665 74.3288 198.115 74.3585L198.491 74.4055Z" fill="#263238"/>
<path d="M218.125 133.241H135.682V196.827H218.125V133.241Z" fill="#2563EB"/>
<path d="M135.682 133.241L150.911 147.447H231.955L218.125 133.241H135.682Z" fill="#2563EB"/>
<path d="M135.682 133.241L218.149 133.094H218.213L218.26 133.135L231.949 147.194L232.09 147.341L232.343 147.6H231.978L150.934 147.535H150.899L135.682 133.241L150.97 147.353H150.905L231.949 147.294L231.843 147.553L231.696 147.406L218.013 133.347L218.119 133.394L135.682 133.241Z" fill="#263238"/>
<path d="M160.448 162.564C160.002 162.581 159.579 162.771 159.272 163.096C158.965 163.42 158.797 163.853 158.805 164.299C158.813 164.746 158.996 165.172 159.315 165.485C159.634 165.798 160.063 165.974 160.51 165.974C160.957 165.974 161.386 165.798 161.705 165.485C162.024 165.172 162.207 164.746 162.215 164.299C162.223 163.853 162.055 163.42 161.748 163.096C161.441 162.771 161.018 162.581 160.572 162.564" fill="#263238"/>
<path d="M179.929 162.564C179.484 162.581 179.063 162.772 178.758 163.096C178.452 163.419 178.286 163.85 178.294 164.295C178.303 164.74 178.485 165.164 178.803 165.476C179.121 165.787 179.548 165.962 179.993 165.962C180.438 165.962 180.866 165.787 181.183 165.476C181.501 165.164 181.684 164.74 181.692 164.295C181.701 163.85 181.534 163.419 181.229 163.096C180.923 162.772 180.503 162.581 180.058 162.564" fill="#263238"/>
<path d="M180.041 177.782C179.701 176.483 179.148 175.249 178.406 174.13C177.58 172.934 176.52 171.918 175.29 171.143C173.805 170.158 172.074 169.61 170.293 169.561C168.512 169.512 166.753 169.965 165.217 170.867C163.948 171.575 162.835 172.531 161.942 173.678C161.138 174.755 160.52 175.959 160.113 177.241C160.118 177.145 160.134 177.051 160.16 176.959C160.217 176.694 160.289 176.433 160.378 176.177C160.7 175.232 161.17 174.345 161.771 173.548C162.658 172.348 163.785 171.347 165.082 170.608C166.658 169.668 168.469 169.195 170.303 169.245C172.138 169.295 173.92 169.865 175.442 170.89C176.694 171.695 177.764 172.753 178.582 173.995C179.141 174.824 179.564 175.737 179.835 176.7C179.907 176.961 179.964 177.226 180.005 177.494C180.026 177.588 180.037 177.685 180.041 177.782Z" fill="#263238"/>
<path opacity="0.5" d="M135.869 133.94L150.452 152.427H218.124V147.447H150.91L135.869 133.94Z" fill="black"/>
<path d="M201.867 196.686C201.784 196.686 201.714 185.626 201.714 171.99C201.714 158.354 201.784 147.294 201.867 147.294C201.949 147.294 202.026 158.348 202.026 171.99C202.026 185.632 201.955 196.686 201.867 196.686Z" fill="#263238"/>
<path d="M214.815 182.268H207.547V190.483H214.815V182.268Z" fill="#F5F5F5"/>
<path d="M135.681 133.241L118.759 147.447H135.681V133.241Z" fill="#2563EB"/>
<g opacity="0.4">
<path d="M135.681 133.241L118.759 147.447H135.681V133.241Z" fill="black"/>
</g>
<path d="M220.559 196.827H125.768V269.939H220.559V196.827Z" fill="#2563EB"/>
<path opacity="0.3" d="M220.559 196.827H125.768V269.939H220.559V196.827Z" fill="black"/>
<path d="M196.81 269.422C196.728 269.422 196.657 253.128 196.657 233.03C196.657 212.932 196.728 196.633 196.81 196.633C196.892 196.633 196.963 212.927 196.963 233.03C196.963 253.134 196.892 269.422 196.81 269.422Z" fill="#263238"/>
<path d="M212.522 253.299H205.254V261.513H212.522V253.299Z" fill="#F5F5F5"/>
<path d="M165.452 197.021H154.686V212.621H165.452V197.021Z" fill="#263238"/>
<path d="M165.452 254.122H154.686V269.721H165.452V254.122Z" fill="#263238"/>
<path d="M219.736 196.827H219.489H218.777L216.043 196.857L205.971 196.904L172.755 196.98L139.527 196.939L129.46 196.892L126.726 196.862L129.46 196.833L139.527 196.786L172.755 196.739L205.971 196.786L216.043 196.833L218.777 196.862H219.489L219.736 196.827Z" fill="#263238"/>
<path d="M57.283 70.2483L46.9577 67.7081H47.0342C44.3681 69.404 41.2852 70.3299 38.126 70.3835C36.2556 70.3921 34.3946 70.1205 32.6046 69.578C29.4578 68.5676 26.6659 66.6774 24.559 64.1308C22.4522 61.5842 21.1184 58.4877 20.7153 55.2073C20.3987 52.7263 20.6318 50.206 21.3979 47.8251C22.1641 45.4443 23.4447 43.2611 25.1488 41.4304C26.0446 40.4465 27.0486 39.5667 28.1417 38.8079C28.6944 38.461 29.2472 38.1023 29.8234 37.8025L30.6995 37.3791L31.1346 37.1674L31.5933 37.0028C33.9544 36.0876 36.4871 35.7002 39.0138 35.8679C42.4001 36.0878 45.6455 37.3051 48.341 39.3665C51.0365 41.4279 53.0615 44.2411 54.1607 47.4515C54.7714 49.2474 55.093 51.129 55.1133 53.0258C55.128 56.1781 54.2713 59.2732 52.6378 61.9693V61.8752C55.5072 67.0555 56.9537 69.6721 57.2771 70.2483C56.942 69.6603 55.4426 67.0907 52.4732 61.9634V61.9163V61.8693C54.048 59.1993 54.8615 56.1489 54.8252 53.0493C54.7979 51.1829 54.4723 49.3328 53.8608 47.5691C52.7736 44.4244 50.7827 41.6703 48.1376 39.6516C45.4924 37.633 42.3105 36.4395 38.9903 36.2207C36.5134 36.0593 34.0311 36.4406 31.7168 37.3379L31.2699 37.4967L30.8406 37.7084L29.9822 38.12C29.3942 38.4199 28.8767 38.7668 28.3299 39.1078C27.2579 39.8463 26.2717 40.7022 25.3899 41.6597C23.7169 43.4569 22.4594 45.5999 21.7065 47.9369C20.9536 50.274 20.7236 52.7479 21.0328 55.1837C21.5779 59.6462 23.8674 63.7115 27.4008 66.491C28.9806 67.7427 30.7733 68.6988 32.6928 69.3134C34.4506 69.8568 36.2802 70.1323 38.1201 70.1307C41.2415 70.0973 44.2932 69.2041 46.9401 67.5494H46.9754H47.04L57.283 70.2483Z" fill="#263238"/>
<path d="M36.4558 45.4523L36.9792 54.0959C37 54.4368 37.1449 54.7583 37.3864 54.9998C37.6279 55.2414 37.9495 55.3862 38.2904 55.4071C38.6491 55.4274 39.002 55.3095 39.2765 55.0776C39.551 54.8458 39.7263 54.5176 39.7663 54.1605L40.7247 45.4993C40.7414 45.3443 40.725 45.1876 40.6765 45.0395C40.628 44.8914 40.5486 44.7552 40.4435 44.6401C40.3384 44.525 40.21 44.4336 40.0669 44.3719C39.9238 44.3102 39.7692 44.2796 39.6134 44.2821H37.5142C37.3669 44.2865 37.222 44.3206 37.0883 44.3824C36.9545 44.4442 36.8346 44.5324 36.7357 44.6417C36.6369 44.751 36.5611 44.8791 36.513 45.0184C36.4649 45.1577 36.4455 45.3053 36.4558 45.4523Z" fill="#2563EB"/>
<path d="M40.5718 60.2347C40.4403 60.6295 40.1946 60.9765 39.8659 61.2318C39.5371 61.487 39.1401 61.6391 38.725 61.6688C38.3099 61.6985 37.8952 61.6045 37.5335 61.3986C37.1718 61.1928 36.8792 60.8843 36.6928 60.5122C36.5063 60.1401 36.4344 59.7211 36.486 59.3081C36.5376 58.8951 36.7105 58.5067 36.9827 58.192C37.255 57.8772 37.6145 57.6502 38.0158 57.5397C38.417 57.4292 38.842 57.4401 39.2371 57.571C39.4997 57.6581 39.7427 57.7961 39.952 57.9771C40.1612 58.1582 40.3328 58.3787 40.4567 58.6261C40.5807 58.8735 40.6547 59.1429 40.6744 59.4189C40.6942 59.6949 40.6593 59.9721 40.5718 60.2347Z" fill="#2563EB"/>
</svg>
