<svg width="660" height="554" viewBox="0 0 660 554" fill="none" xmlns="http://www.w3.org/2000/svg">
<g clip-path="url(#clip0_301_3544)">
<path d="M265.91 527.544C265.094 531.48 260.444 526.642 260.444 526.642L254.896 525.986C254.896 525.986 251.388 526.068 249.104 527.872C246.82 529.676 245.27 527.298 245.27 527.298C242.696 528.16 239.543 528.156 236.813 527.88C232.878 527.482 229.724 524.43 229.183 520.492C226.133 498.279 242.904 487.363 242.904 487.363L247.799 474.079C247.799 474.079 246.249 470.225 245.759 466.781C245.27 463.337 248.859 460.057 253.265 456.777C255.192 455.342 257.4 455.445 259.275 456.015C261.378 456.654 263.212 457.97 264.568 459.708C265.691 461.148 267.617 463.187 269.734 463.54C270.467 463.661 271.189 463.953 271.865 464.485C272.563 465.034 272.872 465.951 272.881 467.091C272.934 472.07 268.843 478.064 265.257 478.999C260.852 480.147 263.217 491.053 263.217 491.053C270.396 501.221 265.338 512.537 265.338 512.537L266.644 521.722C266.644 521.722 266.725 523.608 265.91 527.544Z" fill="#3F3D56"/>
<path d="M241.925 506.387L243.72 528.856C243.72 528.856 241.273 535.088 249.594 534.76C257.915 534.432 253.02 521.64 253.02 521.64L250.409 504.911" fill="#3F3D56"/>
<path d="M248.974 534.936C249.178 534.936 249.386 534.932 249.6 534.924C251.442 534.851 252.798 534.169 253.632 532.897C256.014 529.259 253.364 522.088 253.178 521.597L250.571 504.886C250.557 504.796 250.474 504.736 250.384 504.749C250.295 504.763 250.234 504.847 250.248 504.937L252.859 521.665C252.861 521.676 252.863 521.688 252.868 521.698C252.896 521.773 255.682 529.17 253.359 532.717C252.587 533.895 251.318 534.528 249.587 534.596C246.87 534.702 245.043 534.12 244.154 532.863C242.992 531.218 243.863 528.939 243.872 528.916C243.881 528.892 243.884 528.867 243.883 528.843L242.088 506.374C242.081 506.284 242.004 506.218 241.912 506.224C241.822 506.231 241.755 506.31 241.762 506.4L243.554 528.832C243.436 529.154 242.692 531.358 243.887 533.051C244.771 534.303 246.481 534.936 248.974 534.936Z" fill="#2F2E41"/>
<path d="M256.773 510.979C256.773 510.979 256.283 531.808 266.562 531.316C276.841 530.824 267.541 524.264 267.541 524.264L266.644 521.722" fill="#3F3D56"/>
<path d="M266.209 531.488C266.329 531.488 266.449 531.485 266.57 531.48C269.505 531.339 271.163 530.678 271.499 529.515C272.103 527.419 268.164 524.509 267.678 524.16L266.798 521.667C266.767 521.581 266.674 521.537 266.589 521.567C266.504 521.597 266.46 521.691 266.49 521.776L267.387 524.318C267.399 524.351 267.42 524.378 267.448 524.398C267.491 524.428 271.751 527.462 271.185 529.424C270.893 530.437 269.335 531.019 266.554 531.152C264.703 531.241 263.08 530.615 261.733 529.294C256.683 524.338 256.933 511.116 256.936 510.983C256.938 510.893 256.867 510.818 256.777 510.815C256.691 510.816 256.612 510.885 256.61 510.976C256.597 511.524 256.353 524.473 261.505 529.528C262.831 530.83 264.412 531.488 266.209 531.488Z" fill="#2F2E41"/>
<path d="M272.881 467.091C271.71 467.232 269.876 467.225 268.357 466.207C266.73 465.116 268.419 464.099 269.734 463.54C270.467 463.661 271.189 463.953 271.865 464.485C272.563 465.034 272.872 465.951 272.881 467.091Z" fill="#2F2E41"/>
<path d="M253.95 464.142C253.95 464.142 256.797 456.792 252.72 456.689C248.642 456.586 245.421 462.956 245.421 462.956C245.421 462.956 235.186 481.708 249.209 480.697C263.231 479.685 256.53 472.2 256.53 472.2C256.53 472.2 253.332 468.247 253.95 464.142Z" fill="#2F2E41"/>
<path d="M238.329 519.067C236.524 519.875 234.637 520.699 232.662 520.62C230.687 520.541 228.609 519.263 228.301 517.3C228.142 516.287 228.457 515.2 228.071 514.251C227.552 512.974 225.877 512.481 224.576 512.919C223.274 513.357 222.317 514.485 221.632 515.681C220.349 517.917 219.835 520.853 221.21 523.033C222.403 524.923 224.664 525.777 226.768 526.509C229.571 527.485 232.699 528.453 235.415 527.255C238.146 526.049 239.633 522.567 238.622 519.746" fill="#3F3D56"/>
<path d="M244.354 483.654C244.354 483.654 240.764 485.458 242.559 487.426C244.354 489.395 255.449 494.971 259.528 494.151C263.607 493.331 264.586 490.871 264.586 490.215C264.586 489.559 264.278 481.623 262.973 481.951C261.667 482.279 253.491 489.723 244.354 483.654Z" fill="#2563EB"/>
</g>
<path d="M209.339 372.092C209.089 372.093 208.839 372.116 208.593 372.163L204.497 345.989L208.6 320.791C208.858 319.206 208.512 317.581 207.63 316.244C206.747 314.907 205.396 313.957 203.848 313.586C202.299 313.216 200.669 313.451 199.286 314.246C197.903 315.041 196.87 316.335 196.395 317.868C194.857 322.837 194.096 328.018 194.139 333.223L194.282 350.407L205.202 376.799C205.297 377.604 205.621 378.364 206.135 378.988C206.648 379.611 207.329 380.072 208.096 380.314C208.862 380.556 209.682 380.57 210.456 380.353C211.23 380.136 211.925 379.697 212.458 379.091C212.991 378.484 213.339 377.735 213.461 376.934C213.582 376.132 213.471 375.312 213.142 374.573C212.812 373.833 212.278 373.206 211.603 372.766C210.929 372.325 210.142 372.091 209.339 372.092Z" fill="#FFB8B8"/>
<path d="M191.95 321.808C191.949 320.497 192.204 319.198 192.701 317.986C193.197 316.775 193.925 315.673 194.844 314.746C195.762 313.818 196.852 313.082 198.052 312.58C199.252 312.078 200.539 311.82 201.838 311.82C203.137 311.82 204.423 312.078 205.624 312.58C206.824 313.082 207.914 313.818 208.832 314.746C209.751 315.673 210.479 316.775 210.975 317.986C211.472 319.198 211.727 320.497 211.726 321.808L205.299 344.693L194.138 344.133L191.95 321.808Z" fill="#2F2E41"/>
<path d="M215.402 522.549L221.783 522.548L224.819 497.702L215.401 497.703L215.402 522.549Z" fill="#FFB8B8"/>
<path d="M232.917 529.809L223.328 523.124V518.763L222.24 518.827L215.404 519.242L213.24 519.37L212.009 534.282L211.968 534.778H216.497L216.589 534.282L217.307 530.463L219.14 534.282L219.377 534.778H231.385C232.1 534.776 232.785 534.489 233.291 533.98C233.797 533.47 234.083 532.779 234.086 532.057C234.086 531.615 233.98 531.179 233.776 530.788C233.573 530.396 233.278 530.06 232.917 529.809Z" fill="#2F2E41"/>
<path d="M177.129 507.7L182.2 511.611L199.558 493.73L192.074 487.958L177.129 507.7Z" fill="#FFB8B8"/>
<path d="M186.679 524.205L183.081 513.016L185.704 509.551L184.802 508.935L179.12 505.074L177.324 503.851L167.376 514.943L167.045 515.313L170.644 518.089L171.016 517.751L173.882 515.157L173.042 519.314L172.932 519.854L182.473 527.213C183.042 527.65 183.759 527.842 184.468 527.747C185.176 527.653 185.819 527.278 186.256 526.707C186.522 526.356 186.7 525.944 186.773 525.509C186.847 525.073 186.815 524.625 186.679 524.205Z" fill="#2F2E41"/>
<path d="M203.018 400.367L209.397 420.13C209.397 420.13 211.665 441.218 214.088 445.888C214.541 446.838 214.852 447.849 215.013 448.889C215.083 449.24 215.135 449.607 215.181 449.975C215.274 450.705 215.337 451.458 215.378 452.217C215.499 455.442 215.362 458.671 214.967 461.874C213.822 462.878 212.983 471.933 212.399 483.102C212.335 484.264 212.276 485.445 212.22 486.646C212.104 489.069 212 491.556 211.907 494.055C211.242 511.418 211.613 507.705 211.613 507.705C227.784 510.7 227.119 505.299 227.119 505.299C227.119 505.299 232.672 480.259 234.106 468.851C234.28 467.519 234.384 466.667 234.407 466.422C234.47 465.215 234.69 464.022 235.06 462.872C235.374 462.421 235.654 461.946 235.899 461.453L235.901 461.453L235.903 461.452L235.905 461.45L235.905 461.448C237.049 458.94 237.693 456.231 237.802 453.472C237.884 452.277 237.888 451.078 237.814 449.882C237.723 442.883 238.309 435.893 239.566 429.01C240.578 424.31 239.919 415.225 239.022 407.443C238.658 404.232 238.247 401.243 237.906 398.878C237.889 398.779 237.877 398.679 237.866 398.58C237.426 395.609 237.102 393.694 237.102 393.694C237.102 393.694 238.577 388.591 237.484 386.705C236.981 385.858 237.05 383.862 237.264 381.888C237.53 379.483 238.028 377.241 238.028 377.241L207.992 371.899C207.361 372.956 206.8 373.977 206.251 374.964C196.32 393.489 203.018 400.367 203.018 400.367Z" fill="#2F2E41"/>
<path d="M194.433 315.826C194.767 314.896 195.328 314.065 196.064 313.411C196.799 312.757 197.686 312.3 198.643 312.083C200.06 311.676 201.536 311.513 203.007 311.601C207.314 311.772 210.349 303.593 214.614 304.224C214.614 304.224 218.628 302.778 221.768 305.427C224.622 307.834 226.588 314.381 227.321 314.008C227.667 313.93 228.027 313.93 228.373 314.009C231.321 314.427 234.004 315.954 235.885 318.284C237.766 320.613 238.707 323.574 238.518 326.573L238.208 331.883C238.208 331.883 240.402 335.217 237.218 341.103L239.066 361.866C239.066 361.866 242.145 390.791 237.519 394.908C232.892 399.024 215.849 381.076 215.849 381.076C215.849 381.076 202.756 378.97 203.532 376.526C204.307 374.083 208.373 367.306 208.373 367.306C208.467 366.928 208.456 366.531 208.34 366.16C208.224 365.788 208.009 365.456 207.717 365.2C206.727 364.562 207.836 363.118 207.92 362.985C207.824 363.082 207.073 363.876 206.501 362.203C205.928 360.53 207.693 358.423 207.693 358.423L202.709 347.59L198.786 339.032L198.309 338.045L195.006 331.161L194.929 331.001C193.185 327.331 192.799 323.153 193.841 319.221C194.185 318.121 194.384 316.979 194.433 315.826Z" fill="#2563EB"/>
<path d="M184.064 492.875C195.927 504.365 198.315 499.479 198.315 499.479C198.315 499.479 204.73 492.023 212.399 483.102C215.152 479.903 218.062 476.516 220.896 473.218C224.811 468.658 228.577 464.268 231.573 460.776C234.887 456.905 237.247 454.138 237.802 453.472C237.884 452.277 237.888 451.078 237.814 449.882C237.722 442.883 238.309 435.893 239.566 429.01C240.578 424.31 239.919 415.225 239.022 407.443C237.681 410.263 236.13 413.608 234.846 416.697C233.412 420.135 232.296 423.247 232.122 424.94C231.573 430.154 224.14 438.771 224.14 438.771L224.054 438.789C222.833 439.116 219.392 443.156 215.013 448.889C203.052 464.548 184.064 492.875 184.064 492.875Z" fill="#2F2E41"/>
<path d="M281.284 310.319C281.313 310.57 281.365 310.818 281.439 311.06L256.142 318.143L230.875 316.892C229.285 316.814 227.725 317.346 226.51 318.383C225.294 319.419 224.513 320.883 224.324 322.478C224.135 324.073 224.552 325.681 225.492 326.977C226.431 328.274 227.823 329.163 229.386 329.464C234.451 330.442 239.637 330.617 244.755 329.982L261.653 327.884L286.387 313.933C287.169 313.746 287.88 313.335 288.435 312.749C288.991 312.163 289.367 311.428 289.518 310.632C289.669 309.835 289.589 309.012 289.288 308.26C288.986 307.509 288.476 306.861 287.818 306.396C287.161 305.93 286.384 305.666 285.581 305.636C284.778 305.605 283.984 305.809 283.294 306.224C282.603 306.638 282.046 307.246 281.69 307.972C281.333 308.699 281.192 309.514 281.284 310.319Z" fill="#FFB8B8"/>
<path d="M233.769 333.475C232.479 333.624 231.172 333.516 229.923 333.156C228.674 332.795 227.508 332.19 226.49 331.375C225.473 330.559 224.625 329.55 223.995 328.403C223.365 327.257 222.964 325.996 222.817 324.694C222.669 323.391 222.777 322.072 223.134 320.812C223.492 319.551 224.092 318.374 224.9 317.348C225.709 316.322 226.709 315.466 227.845 314.83C228.981 314.195 230.23 313.791 231.521 313.643L254.776 317.486L255.493 328.743L233.769 333.475Z" fill="#2F2E41"/>
<path d="M229.716 295.472C228.281 298.12 225.996 300.196 223.236 301.358C220.476 302.52 217.406 302.699 214.532 301.865C211.658 301.031 209.151 299.233 207.424 296.769C205.697 294.304 204.853 291.32 205.031 288.306C205.209 285.293 206.399 282.431 208.404 280.191C210.408 277.951 213.109 276.467 216.061 275.984C219.013 275.5 222.04 276.046 224.644 277.531C227.247 279.016 229.272 281.352 230.385 284.154C230.445 284.306 230.5 284.458 230.554 284.616C231.183 286.382 231.434 288.263 231.289 290.134C231.145 292.006 230.609 293.825 229.716 295.472Z" fill="#FFB6B6"/>
<path d="M231.608 284.616C231.042 283.016 231.289 283.85 230.716 282.256C230.901 283.041 230.844 283.864 230.554 284.616H214.883V275.42C219.474 273.584 223.962 272.021 226.674 275.42C229.09 275.421 231.407 276.389 233.115 278.114C234.823 279.838 235.783 282.177 235.783 284.616H231.608Z" fill="#2F2E41"/>
<path d="M226.053 310.177C226.041 310.007 226.023 309.83 225.999 309.66C225.788 308.411 225.447 307.188 224.981 306.011C224.529 304.728 224.071 303.438 223.613 302.155C224.203 304.485 224.023 306.945 223.101 309.161C220.456 307.081 222.125 302.326 218.667 302.326C210.352 302.326 201.797 295.52 201.797 287.121C201.797 278.729 205.364 272.453 213.678 272.453C221.998 272.453 228.746 276.296 228.909 284.689C218.667 287.122 227.987 309.326 226.053 310.177Z" fill="#2F2E41"/>
<path d="M202.836 285.835C208.16 285.835 212.476 281.479 212.476 276.105C212.476 270.73 208.16 266.374 202.836 266.374C197.512 266.374 193.196 270.73 193.196 276.105C193.196 281.479 197.512 285.835 202.836 285.835Z" fill="#2F2E41"/>
<path d="M381 61.5L380.147 59.6912L380.035 59.7441L379.93 59.8104L381 61.5ZM535.372 104.009L536.777 105.432L535.372 104.009ZM658.999 1.93108C658.961 0.827162 658.035 -0.036878 656.931 0.001188L638.942 0.621509C637.838 0.659575 636.974 1.58533 637.012 2.68925C637.05 3.79316 637.976 4.6572 639.08 4.61913L655.07 4.06774L655.622 20.0582C655.66 21.1621 656.585 22.0262 657.689 21.9881C658.793 21.9501 659.657 21.0243 659.619 19.9204L658.999 1.93108ZM304.185 295.499L305.761 294.267L303.297 291.116L301.721 292.348L304.185 295.499ZM309.564 286.159L308 287.404L310.491 290.534L312.056 289.288L309.564 286.159ZM319.892 282.998L321.446 281.74L318.93 278.631L317.375 279.889L319.892 282.998ZM325.15 273.546L323.605 274.816L326.146 277.906L327.691 276.636L325.15 273.546ZM335.418 270.23L336.953 268.947L334.388 265.878L332.854 267.16L335.418 270.23ZM340.518 260.702L338.994 261.997L341.584 265.046L343.108 263.751L340.518 260.702ZM350.742 257.209L352.255 255.901L349.639 252.875L348.126 254.183L350.742 257.209ZM355.67 247.601L354.169 248.923L356.813 251.925L358.314 250.603L355.67 247.601ZM365.828 243.919L367.315 242.582L364.642 239.607L363.154 240.944L365.828 243.919ZM370.565 234.211L369.092 235.565L371.799 238.51L373.271 237.157L370.565 234.211ZM380.638 230.306L382.094 228.934L379.351 226.023L377.896 227.394L380.638 230.306ZM385.126 220.489L383.689 221.881L386.473 224.754L387.909 223.362L385.126 220.489ZM395.09 216.292L396.504 214.877L393.674 212.051L392.26 213.466L395.09 216.292ZM399.254 206.331L397.868 207.773L400.753 210.544L402.138 209.102L399.254 206.331ZM409.041 201.75L410.392 200.275L407.442 197.573L406.091 199.048L409.041 201.75ZM412.719 191.601L411.413 193.116L414.442 195.728L415.748 194.213L412.719 191.601ZM422.215 186.421L423.46 184.855L420.33 182.366L419.085 183.931L422.215 186.421ZM425.05 176.013L423.895 177.645L427.16 179.956L428.315 178.324L425.05 176.013ZM433.874 169.764L434.883 168.037L431.429 166.019L430.42 167.746L433.874 169.764ZM434.719 159.037L433.997 160.903L437.728 162.346L438.45 160.48L434.719 159.037ZM441.716 151.337L442.413 149.463L438.664 148.068L437.967 149.942L441.716 151.337ZM440.762 141.11L440.247 143.042L444.112 144.073L444.627 142.141L440.762 141.11ZM446.728 132.751L447.089 130.784L443.154 130.063L442.794 132.03L446.728 132.751ZM444.132 122.81L443.918 124.798L447.895 125.228L448.109 123.239L444.132 122.81ZM448.789 113.653L448.855 111.654L444.858 111.521L444.791 113.52L448.789 113.653ZM444.736 104.222L444.829 106.22L448.825 106.033L448.732 104.035L444.736 104.222ZM447.848 94.4305L447.57 92.4499L443.609 93.0059L443.887 94.9865L447.848 94.4305ZM442.106 85.9314L442.608 87.8674L446.48 86.864L445.978 84.928L442.106 85.9314ZM442.868 75.6844L442.085 73.8443L438.404 75.4114L439.188 77.2515L442.868 75.6844ZM434.863 69.3031L436.001 70.9479L439.29 68.6721L438.152 67.0273L434.863 69.3031ZM431.468 59.6336L429.932 58.3524L427.37 61.4237L428.905 62.705L431.468 59.6336ZM421.358 58.1898L423.215 58.9328L424.701 55.219L422.844 54.4761L421.358 58.1898ZM413.127 52.1841L411.135 52.0006L410.768 55.9837L412.76 56.1672L413.127 52.1841ZM403.761 56.3865L405.745 56.1312L405.235 52.1639L403.251 52.4192L403.761 56.3865ZM393.692 54.4612L391.773 55.0221L392.895 58.8615L394.814 58.3006L393.692 54.4612ZM386.156 61.3929L388.002 60.6219L386.459 56.9311L384.614 57.7022L386.156 61.3929ZM375.55 64.0596L374.373 65.6766L377.607 68.0305L378.784 66.4135L375.55 64.0596ZM374.795 75.5067L375.276 73.5652L371.393 72.6044L370.912 74.5458L374.795 75.5067ZM369.66 85.7303L369.679 87.7302L373.679 87.6921L373.659 85.6922L369.66 85.7303ZM374.868 95.9472L374.43 93.9957L370.527 94.8704L370.964 96.822L374.868 95.9472ZM374.432 107.403L375.229 109.237L378.897 107.643L378.1 105.809L374.432 107.403ZM383.071 114.979L381.975 113.307L378.629 115.5L379.726 117.172L383.071 114.979ZM386.47 125.918L387.804 127.408L390.784 124.74L389.45 123.25L386.47 125.918ZM396.957 130.588L395.441 129.283L392.831 132.314L394.347 133.619L396.957 130.588ZM403.067 140.3L404.718 141.429L406.975 138.127L405.324 136.998L403.067 140.3ZM414.347 142.545L412.596 141.577L410.66 145.077L412.41 146.045L414.347 142.545ZM422.179 150.935L424.001 151.759L425.65 148.115L423.828 147.29L422.179 150.935ZM433.652 151.326L431.778 150.628L430.382 154.377L432.257 155.075L433.652 151.326ZM442.175 158.365L444.105 158.89L445.155 155.03L443.225 154.505L442.175 158.365ZM452.358 156.123L450.362 155.986L450.089 159.977L452.084 160.114L452.358 156.123ZM462.222 159.541L464.19 159.182L463.471 155.247L461.504 155.606L462.222 159.541ZM470.375 152.972L468.52 153.721L470.018 157.43L471.873 156.681L470.375 152.972ZM480.807 152.304L482.545 151.315L480.567 147.838L478.829 148.827L480.807 152.304ZM486.863 143.759L485.215 144.891L487.48 148.188L489.128 147.055L486.863 143.759ZM497.043 141.261L498.626 140.038L496.179 136.873L494.597 138.096L497.043 141.261ZM502.079 132.063L500.545 133.347L503.112 136.414L504.646 135.13L502.079 132.063ZM512.011 128.781L513.508 127.455L510.857 124.46L509.359 125.786L512.011 128.781ZM516.504 119.32L515.034 120.677L517.748 123.616L519.217 122.259L516.504 119.32ZM526.321 115.59L527.769 114.21L525.009 111.315L523.561 112.695L526.321 115.59ZM530.491 106.002L529.061 107.4L531.857 110.26L533.287 108.862L530.491 106.002ZM540.311 102.013L541.762 100.637L539.01 97.7345L537.558 99.111L540.311 102.013ZM544.918 92.3586L543.425 93.6886L546.085 96.676L547.578 95.346L544.918 92.3586ZM555.039 88.8625L556.563 87.567L553.972 84.5195L552.448 85.815L555.039 88.8625ZM560.097 79.4273L558.551 80.6971L561.091 83.7875L562.636 82.5177L560.097 79.4273ZM570.331 76.2761L571.892 75.0251L569.39 71.9043L567.829 73.1553L570.331 76.2761ZM575.619 66.9671L574.048 68.205L576.524 71.3467L578.095 70.1089L575.619 66.9671ZM585.902 63.9928L587.479 62.7632L585.02 59.6085L583.443 60.8382L585.902 63.9928ZM591.287 54.741L589.707 55.9669L592.158 59.1274L593.739 57.9015L591.287 54.741ZM601.587 51.8137L603.166 50.5872L600.713 47.4276L599.134 48.6542L601.587 51.8137ZM606.965 42.5569L605.389 43.7886L607.852 46.9401L609.428 45.7085L606.965 42.5569ZM617.244 39.5628L618.812 38.3211L616.328 35.1853L614.76 36.427L617.244 39.5628ZM622.5 30.2389L620.944 31.4963L623.459 34.6069L625.014 33.3496L622.5 30.2389ZM632.716 27.0352L634.252 25.7552L631.692 22.6818L630.156 23.9618L632.716 27.0352ZM637.693 17.557L636.183 18.8689L638.807 21.8882L640.316 20.5763L637.693 17.557ZM647.768 13.915L649.238 12.5585L646.525 9.61908L645.055 10.9755L647.768 13.915ZM652.146 4.1561L650.738 5.57607L653.578 8.39293L654.986 6.97296L652.146 4.1561ZM300.224 298.581C301.504 297.59 302.826 296.562 304.185 295.499L301.721 292.348C300.367 293.407 299.05 294.432 297.776 295.419L300.224 298.581ZM312.056 289.288C314.582 287.277 317.199 285.177 319.892 282.998L317.375 279.889C314.691 282.061 312.082 284.154 309.564 286.159L312.056 289.288ZM327.691 276.636C330.223 274.553 332.803 272.415 335.418 270.23L332.854 267.16C330.246 269.339 327.674 271.47 325.15 273.546L327.691 276.636ZM343.108 263.751C345.635 261.604 348.183 259.421 350.742 257.209L348.126 254.183C345.576 256.388 343.036 258.563 340.518 260.702L343.108 263.751ZM358.314 250.603C360.821 248.395 363.329 246.165 365.828 243.919L363.154 240.944C360.665 243.181 358.168 245.402 355.67 247.601L358.314 250.603ZM373.271 237.157C375.748 234.881 378.207 232.596 380.638 230.306L377.896 227.394C375.477 229.672 373.03 231.946 370.565 234.211L373.271 237.157ZM387.909 223.362C390.346 221.001 392.743 218.642 395.09 216.292L392.26 213.466C389.93 215.799 387.548 218.143 385.126 220.489L387.909 223.362ZM402.138 209.102C404.511 206.631 406.817 204.178 409.041 201.75L406.091 199.048C403.89 201.451 401.607 203.881 399.254 206.331L402.138 209.102ZM415.748 194.213C418.025 191.572 420.187 188.971 422.215 186.421L419.085 183.931C417.093 186.435 414.966 188.995 412.719 191.601L415.748 194.213ZM428.315 178.324C430.4 175.378 432.265 172.517 433.874 169.764L430.42 167.746C428.88 170.381 427.081 173.143 425.05 176.013L428.315 178.324ZM438.45 160.48C439.116 158.757 439.645 157.082 440.018 155.463L436.12 154.565C435.797 155.968 435.329 157.461 434.719 159.037L438.45 160.48ZM439.899 155.821C440.534 154.383 441.14 152.885 441.716 151.337L437.967 149.942C437.417 151.421 436.84 152.845 436.239 154.207L439.899 155.821ZM444.627 142.141C445.434 139.116 446.138 135.972 446.728 132.751L442.794 132.03C442.222 135.151 441.541 138.191 440.762 141.11L444.627 142.141ZM448.109 123.239C448.451 120.069 448.681 116.862 448.789 113.653L444.791 113.52C444.687 116.627 444.464 119.735 444.132 122.81L448.109 123.239ZM448.732 104.035C448.58 100.788 448.289 97.5739 447.848 94.4305L443.887 94.9865C444.309 97.9984 444.589 101.089 444.736 104.222L448.732 104.035ZM445.978 84.928C445.143 81.7044 444.112 78.6054 442.868 75.6844L439.188 77.2515C440.345 79.9688 441.314 82.8769 442.106 85.9314L445.978 84.928ZM438.152 67.0273C436.228 64.2457 434.008 61.753 431.468 59.6336L428.905 62.705C431.139 64.5691 433.121 66.7857 434.863 69.3031L438.152 67.0273ZM422.844 54.4761C419.875 53.2881 416.638 52.5077 413.127 52.1841L412.76 56.1672C415.905 56.4571 418.764 57.1517 421.358 58.1898L422.844 54.4761ZM403.251 52.4192C400.225 52.8084 397.041 53.4828 393.692 54.4612L394.814 58.3006C397.983 57.3747 400.963 56.7465 403.761 56.3865L403.251 52.4192ZM384.614 57.7022C383.153 58.3127 381.664 58.9753 380.147 59.6912L381.853 63.3088C383.319 62.6174 384.753 61.9793 386.156 61.3929L384.614 57.7022ZM379.93 59.8104C378.307 60.8386 376.834 62.2964 375.55 64.0596L378.784 66.4135C379.837 64.9669 380.959 63.8937 382.07 63.1896L379.93 59.8104ZM370.912 74.5458C370.077 77.9217 369.621 81.6927 369.66 85.7303L373.659 85.6922C373.624 81.9759 374.044 78.5414 374.795 75.5067L370.912 74.5458ZM370.964 96.822C371.737 100.27 372.874 103.817 374.432 107.403L378.1 105.809C376.644 102.456 375.585 99.1493 374.868 95.9472L370.964 96.822ZM379.726 117.172C381.652 120.111 383.89 123.037 386.47 125.918L389.45 123.25C387.001 120.515 384.886 117.748 383.071 114.979L379.726 117.172ZM394.347 133.619C397 135.903 399.901 138.135 403.067 140.3L405.324 136.998C402.277 134.914 399.493 132.771 396.957 130.588L394.347 133.619ZM412.41 146.045C415.468 147.737 418.721 149.37 422.179 150.935L423.828 147.29C420.464 145.768 417.307 144.183 414.347 142.545L412.41 146.045ZM432.257 155.075C433.94 155.701 435.664 156.313 437.43 156.909L438.709 153.119C436.981 152.536 435.296 151.938 433.652 151.326L432.257 155.075ZM437.43 156.909C439.027 157.448 440.605 157.937 442.175 158.365L443.225 154.505C441.746 154.103 440.245 153.638 438.709 153.119L437.43 156.909ZM452.084 160.114C455.373 160.339 458.718 160.181 462.222 159.541L461.504 155.606C458.337 156.185 455.326 156.326 452.358 156.123L452.084 160.114ZM471.873 156.681C474.709 155.535 477.673 154.087 480.807 152.304L478.829 148.827C475.827 150.535 473.024 151.902 470.375 152.972L471.873 156.681ZM489.128 147.055C491.647 145.324 494.28 143.397 497.043 141.261L494.597 138.096C491.885 140.193 489.313 142.075 486.863 143.759L489.128 147.055ZM504.646 135.13C507.007 133.154 509.459 131.04 512.011 128.781L509.359 125.786C506.833 128.023 504.409 130.113 502.079 132.063L504.646 135.13ZM519.217 122.259C521.508 120.144 523.875 117.922 526.321 115.59L523.561 112.695C521.129 115.014 518.778 117.221 516.504 119.32L519.217 122.259ZM533.287 108.862C534.434 107.741 535.597 106.598 536.777 105.432L533.966 102.587C532.791 103.748 531.633 104.886 530.491 106.002L533.287 108.862ZM536.777 105.432C537.922 104.301 539.101 103.161 540.311 102.013L537.558 99.111C536.33 100.276 535.132 101.435 533.966 102.587L536.777 105.432ZM547.578 95.346C549.983 93.2049 552.475 91.0424 555.039 88.8625L552.448 85.815C549.864 88.0119 547.349 90.1945 544.918 92.3586L547.578 95.346ZM562.636 82.5177C565.155 80.4474 567.725 78.3658 570.331 76.2761L567.829 73.1553C565.212 75.2534 562.63 77.3452 560.097 79.4273L562.636 82.5177ZM578.095 70.1089C580.678 68.0734 583.284 66.0338 585.902 63.9928L583.443 60.8382C580.821 62.8821 578.209 64.9262 575.619 66.9671L578.095 70.1089ZM593.739 57.9015C596.358 55.8699 598.979 53.8387 601.587 51.8137L599.134 48.6542C596.526 50.6787 593.908 52.7076 591.287 54.741L593.739 57.9015ZM609.428 45.7085C612.06 43.6508 614.67 41.6011 617.244 39.5628L614.76 36.427C612.195 38.4588 609.592 40.5031 606.965 42.5569L609.428 45.7085ZM625.014 33.3496C627.639 31.2277 630.211 29.1216 632.716 27.0352L630.156 23.9618C627.668 26.0337 625.112 28.1273 622.5 30.2389L625.014 33.3496ZM640.316 20.5763C642.905 18.3266 645.396 16.1044 647.768 13.915L645.055 10.9755C642.716 13.1339 640.256 15.3294 637.693 17.557L640.316 20.5763ZM654.986 6.97296C656.191 5.75815 657.351 4.55504 658.462 3.36464L655.538 0.635363C654.457 1.79351 653.325 2.96739 652.146 4.1561L654.986 6.97296Z" fill="#94A3A9"/>
<path d="M337 208L379.5 174" stroke="#8F8FBD" stroke-linecap="round"/>
<path d="M342 301L384.5 267" stroke="#8F8FBD" stroke-linecap="round"/>
<path d="M535 55L577.5 21" stroke="#8F8FBD" stroke-linecap="round"/>
<path d="M578 139L620.5 105" stroke="#8F8FBD" stroke-linecap="round"/>
<path d="M348 211L377 188" stroke="#8F8FBD" stroke-linecap="round"/>
<path d="M353 304L382 281" stroke="#8F8FBD" stroke-linecap="round"/>
<path d="M546 58L575 35" stroke="#8F8FBD" stroke-linecap="round"/>
<path d="M589 142L618 119" stroke="#8F8FBD" stroke-linecap="round"/>
<path d="M0 538H440V544.188C440 546.79 438.948 549.286 437.076 551.126C435.204 552.966 432.664 554 430.016 554H9.98352C7.33573 554 4.79638 552.966 2.92411 551.126C1.05183 549.286 0 546.79 0 544.188V538Z" fill="#2F2E41"/>
<path d="M440 533H0V542H440V533Z" fill="#3F3D56"/>
<defs>
<clipPath id="clip0_301_3544">
<rect width="52.5373" height="79.3771" fill="white" transform="matrix(-1 0 0 1 272.925 455.623)"/>
</clipPath>
</defs>
</svg>
