<svg width="1160" height="356" viewBox="0 0 1160 356" fill="none" xmlns="http://www.w3.org/2000/svg">
<path d="M328.176 1.00549V134.005H252.676V81.5055H171.676C110.876 87.5055 89.0089 138.005 85.6755 162.505C76.0755 242.105 139.009 271.005 171.676 275.505H252.676V223.505H328.176V355.005H153.176C25.1756 327.005 -1.4911 221.339 1.17557 172.005C17.1756 34.0055 121.509 0.505487 171.676 1.00549H328.176Z" fill="#D9D9D9" stroke="black"/>
<path d="M397 2V355H480V145.5L573 280C582.2 293.2 599.833 297.833 607.5 298.5C628.7 296.9 642.333 285.5 646.5 280L739 145.5V354.5H820.5V2H743L607.5 200L475.5 2H397Z" fill="#D9D9D9" stroke="black"/>
<path d="M1155.51 8V91H990.51C977.31 91 972.344 106.667 971.51 114.5C971.11 128.5 984.01 136.667 990.51 139H1062.01C1092.81 137.8 1119.18 159.167 1128.51 170C1150.91 186.4 1158.18 225.167 1159.01 242.5C1156.61 320.5 1093.34 346 1062.01 349H895.51V265H1055.51C1071.11 265 1075.01 250 1075.01 242.5C1076.61 229.7 1062.68 221.833 1055.51 219.5H981.01C906.21 205.5 888.51 143.667 889.01 114.5C894.21 35.7 955.844 10.6667 986.01 8H1155.51Z" fill="#D9D9D9" stroke="black"/>
</svg>
