<svg width="315" height="105" viewBox="0 0 315 105" fill="none" xmlns="http://www.w3.org/2000/svg">
<path d="M3 16.5C3 14.567 4.567 13 6.5 13H52.5C54.433 13 56 14.567 56 16.5C56 18.433 54.433 20 52.5 20H6.5C4.567 20 3 18.433 3 16.5Z" fill="#020817"/>
<path d="M0 88.8849C0 86.9519 1.567 85.3849 3.5 85.3849H49.5C51.433 85.3849 53 86.9519 53 88.8849C53 90.8179 51.433 92.3849 49.5 92.3849H3.5C1.567 92.3849 0 90.8179 0 88.8849Z" fill="#020817"/>
<path d="M15 30.8849C15 28.9519 16.567 27.3849 18.5 27.3849H52.5C54.433 27.3849 56 28.9519 56 30.8849C56 32.8179 54.433 34.3849 52.5 34.3849H18.5C16.567 34.3849 15 32.8179 15 30.8849Z" fill="#020817"/>
<path d="M12 74.8849C12 72.9519 13.567 71.3849 15.5 71.3849H49.5C51.433 71.3849 53 72.9519 53 74.8849C53 76.8179 51.433 78.3849 49.5 78.3849H15.5C13.567 78.3849 12 76.8179 12 74.8849Z" fill="#020817"/>
<path d="M117.995 64.9562L98.4948 58.9562L126.995 87.4562C129.795 85.8562 135.161 73.7896 137.495 67.9563C147.895 43.9563 131.495 21.6229 121.995 13.4562C112 2.88486 89.5007 -1.50918 79.4948 0.45624C34.5 9.29439 31.5 48.3849 36.4948 67.9563C52.5 111.385 98.8282 107.956 115.495 97.9563L137.495 104.956L108.995 78.4563C82.1948 91.2563 65.4948 76.7896 60.4948 67.9563C50.4948 50.3563 58.6615 35.9562 63.9948 30.9562C70.7948 22.1562 84.0007 20.3849 89.5007 20.8849C120.001 25.3849 121.828 53.1229 117.995 64.9562Z" fill="#020817"/>
<path d="M156.571 87.5631V64.645H163.79V87.5631H156.571ZM143.438 87.5631V64.645H150.657V87.5631H143.438ZM163.79 87.5196C163.79 89.2591 163.341 90.8247 162.442 92.2163C161.543 93.5789 160.326 94.6661 158.789 95.4779C157.253 96.2607 155.513 96.6521 153.571 96.6521V91.1726C154.498 91.1726 155.223 90.8537 155.745 90.2159C156.296 89.578 156.571 88.6793 156.571 87.5196H163.79ZM143.438 87.5196H150.657C150.657 88.6793 150.918 89.578 151.44 90.2159C151.99 90.8537 152.73 91.1726 153.658 91.1726V96.6521C151.715 96.6521 149.976 96.2607 148.439 95.4779C146.902 94.6661 145.685 93.5789 144.786 92.2163C143.887 90.8247 143.438 89.2591 143.438 87.5196ZM169.439 95.9563V64.645H176.658V95.9563H169.439ZM181.862 87.5631V73.0382H189.081V87.5631H181.862ZM181.862 73.0817C181.862 71.3422 182.311 69.7911 183.21 68.4285C184.109 67.0369 185.326 65.9497 186.863 65.1669C188.399 64.3551 190.139 63.9492 192.081 63.9492V69.4287C191.154 69.4287 190.414 69.7476 189.863 70.3854C189.342 71.0233 189.081 71.922 189.081 73.0817H181.862ZM181.862 87.5196H189.081C189.081 88.6793 189.342 89.578 189.863 90.2159C190.414 90.8537 191.154 91.1726 192.081 91.1726V96.6521C190.139 96.6521 188.399 96.2607 186.863 95.4779C185.326 94.6661 184.109 93.5789 183.21 92.2163C182.311 90.8247 181.862 89.2591 181.862 87.5196ZM195.952 74.6037C195.865 72.9802 195.473 71.7191 194.778 70.8203C194.082 69.8926 193.169 69.4287 192.038 69.4287V63.9492C195.024 63.9492 197.43 64.79 199.257 66.4715C201.083 68.1241 202.142 70.4579 202.431 73.4731L195.952 74.6037ZM195.952 85.9975L202.431 87.1282C202.142 90.1144 201.083 92.4482 199.257 94.1298C197.43 95.8113 195.024 96.6521 192.038 96.6521V91.1726C193.169 91.1726 194.082 90.7232 194.778 89.8245C195.473 88.8967 195.865 87.6211 195.952 85.9975ZM210.291 79.5179L218.51 64.645H225.251L216.553 79.5179H210.291ZM218.162 95.9563L208.856 79.5179H216.553L225.773 95.9563H218.162ZM206.334 95.9563V64.645H213.553V95.9563H206.334ZM236.221 87.5631V73.0382H243.44V87.5631H236.221ZM236.221 73.0817C236.221 71.3422 236.671 69.7911 237.57 68.4285C238.468 67.0369 239.686 65.9497 241.223 65.1669C242.759 64.3551 244.499 63.9492 246.441 63.9492V69.4287C245.513 69.4287 244.774 69.7476 244.223 70.3854C243.701 71.0233 243.44 71.922 243.44 73.0817H236.221ZM236.221 87.5196H243.44C243.44 88.6793 243.701 89.578 244.223 90.2159C244.774 90.8537 245.513 91.1726 246.441 91.1726V96.6521C244.499 96.6521 242.759 96.2607 241.223 95.4779C239.686 94.6661 238.468 93.5789 237.57 92.2163C236.671 90.8247 236.221 89.2591 236.221 87.5196ZM250.311 74.6037C250.225 72.9802 249.833 71.7191 249.137 70.8203C248.442 69.8926 247.528 69.4287 246.398 69.4287V63.9492C249.384 63.9492 251.79 64.79 253.617 66.4715C255.443 68.1241 256.501 70.4579 256.791 73.4731L250.311 74.6037ZM250.311 85.9975L256.791 87.1282C256.501 90.1144 255.443 92.4482 253.617 94.1298C251.79 95.8113 249.384 96.6521 246.398 96.6521V91.1726C247.528 91.1726 248.442 90.7232 249.137 89.8245C249.833 88.8967 250.225 87.6211 250.311 85.9975ZM271.783 95.9563L278.567 64.645H283.786L277.001 95.9563H271.783ZM271.609 95.9563L264.825 64.645H270.043L276.827 95.9563H271.609ZM260.694 95.9563V64.645H267.912V95.9563H260.694ZM280.698 95.9563V64.645H287.917V95.9563H280.698ZM305.447 88.3894C305.447 87.4326 305.128 86.6209 304.49 85.9541C303.852 85.2872 303.026 84.6639 302.011 84.0841C301.025 83.4753 299.967 82.8519 298.836 82.2141C297.706 81.5473 296.633 80.779 295.618 79.9093C294.633 79.0395 293.821 77.9813 293.183 76.7346C292.545 75.488 292.226 73.9659 292.226 72.1684H299.445C299.445 73.0962 299.764 73.9079 300.402 74.6037C301.04 75.2706 301.852 75.9084 302.837 76.5172C303.852 77.097 304.925 77.7204 306.055 78.3872C307.186 79.025 308.244 79.7788 309.23 80.6486C310.245 81.5183 311.071 82.5765 311.709 83.8232C312.347 85.0698 312.666 86.5919 312.666 88.3894H305.447ZM292.226 72.2119C292.226 70.6174 292.676 69.2113 293.574 67.9936C294.473 66.747 295.691 65.7612 297.227 65.0364C298.764 64.3116 300.503 63.9492 302.446 63.9492V69.4287C301.518 69.4287 300.779 69.6751 300.228 70.168C299.706 70.6609 299.445 71.3422 299.445 72.2119H292.226ZM312.666 88.3894C312.666 89.9839 312.216 91.4045 311.317 92.6512C310.419 93.8688 309.201 94.8401 307.664 95.5649C306.128 96.2897 304.388 96.6521 302.446 96.6521V91.1726C303.374 91.1726 304.098 90.9262 304.62 90.4333C305.171 89.9404 305.447 89.2591 305.447 88.3894H312.666ZM305.229 72.8642C305.084 71.7625 304.765 70.9218 304.272 70.3419C303.808 69.7331 303.2 69.4287 302.446 69.4287V63.9492C304.098 63.9492 305.548 64.2537 306.795 64.8625C308.07 65.4713 309.114 66.3556 309.926 67.5152C310.738 68.6749 311.274 70.081 311.535 71.7336L305.229 72.8642ZM298.532 85.9975C298.619 87.6211 299.01 88.8967 299.706 89.8245C300.402 90.7232 301.315 91.1726 302.446 91.1726V96.6521C299.46 96.6521 297.053 95.8113 295.227 94.1298C293.4 92.4482 292.342 90.1144 292.052 87.1282L298.532 85.9975Z" fill="#020817"/>
</svg>
