<svg width="500" height="500" viewBox="0 0 500 500" fill="none" xmlns="http://www.w3.org/2000/svg">
<path d="M300.27 210.1C234.34 193.45 213.14 53.65 114.15 131.69C43.93 187.05 84.28 318.76 171.55 302C224.37 291.83 216.26 291 260.48 315.48C305.3 340.29 354.9 352.31 403.94 306.32C429.32 282.52 440.04 225.32 416.22 196.17C386.41 159.7 340.54 220.27 300.27 210.1Z" fill="#2563EB"/>
<path opacity="0.9" d="M300.27 210.1C234.34 193.45 213.14 53.65 114.15 131.69C43.93 187.05 84.28 318.76 171.55 302C224.37 291.83 216.26 291 260.48 315.48C305.3 340.29 354.9 352.31 403.94 306.32C429.32 282.52 440.04 225.32 416.22 196.17C386.41 159.7 340.54 220.27 300.27 210.1Z" fill="white"/>
<path d="M250 427.56C357.082 427.56 443.89 422.492 443.89 416.24C443.89 409.988 357.082 404.92 250 404.92C142.917 404.92 56.11 409.988 56.11 416.24C56.11 422.492 142.917 427.56 250 427.56Z" fill="#F5F5F5"/>
<path d="M89.3801 390.41C89.3801 390.41 88.0001 380.24 81.4901 379.13C74.9801 378.02 76.9401 373.13 75.2501 371.19C73.5601 369.25 69.1301 374.9 72.9201 380.35C76.7101 385.8 73.6101 384.08 75.2501 389.14C76.8901 394.2 90.0001 398.85 89.3801 390.41Z" fill="#263238"/>
<path opacity="0.2" d="M89.3801 390.41C89.3801 390.41 88.0001 380.24 81.4901 379.13C74.9801 378.02 76.9401 373.13 75.2501 371.19C73.5601 369.25 69.1301 374.9 72.9201 380.35C76.7101 385.8 73.6101 384.08 75.2501 389.14C76.8901 394.2 90.0001 398.85 89.3801 390.41Z" fill="white"/>
<path d="M89.11 397.47C89.025 397.471 88.9414 397.449 88.8689 397.404C88.7963 397.36 88.7378 397.296 88.7 397.22C88.7 397.11 83.7 386.53 86.3 369.67C87.1419 364.848 88.4824 360.125 90.3 355.58C93.45 347 95.93 340.22 90.25 327.84C88.45 323.92 86.61 320.27 84.83 316.74C78.15 303.48 72.88 293.01 76.83 282.4C76.8726 282.289 76.9575 282.199 77.0663 282.15C77.175 282.101 77.2986 282.098 77.41 282.14C77.4665 282.158 77.5187 282.187 77.5633 282.226C77.608 282.265 77.6441 282.313 77.6694 282.366C77.6948 282.42 77.7088 282.478 77.7106 282.537C77.7124 282.596 77.702 282.655 77.68 282.71C73.89 292.95 79.09 303.27 85.68 316.33C87.46 319.87 89.3 323.53 91.11 327.46C96.95 340.18 94.28 347.46 91.19 355.89C89.3684 360.376 88.0276 365.042 87.19 369.81C84.62 386.37 89.47 396.72 89.52 396.81C89.5716 396.917 89.5784 397.041 89.5391 397.153C89.4997 397.266 89.4173 397.358 89.31 397.41C89.2485 397.444 89.1803 397.465 89.11 397.47Z" fill="#263238"/>
<path d="M85.3601 395C85.3601 395 81.1501 388.66 87.2201 385.4C93.2901 382.14 94.5101 384.77 98.2201 382.4C101.93 380.03 104.82 374.4 105.46 378.01C106.1 381.62 101.77 383.72 103.3 385.38C104.83 387.04 93.1301 397.84 85.3601 395Z" fill="#263238"/>
<path d="M75.43 287.85C75.43 287.85 71.34 275.4 80.66 275.14C89.98 274.88 79.7 286.52 75.43 287.85Z" fill="#263238"/>
<path d="M83.53 297.43C83.53 297.43 86.31 286.1 92.92 288.49C99.53 290.88 90.12 297.64 83.53 297.43Z" fill="#263238"/>
<path d="M72.31 298.41C72.31 298.41 73.31 289.41 66.31 289.19C59.31 288.97 62.39 297 72.31 298.41Z" fill="#263238"/>
<path d="M77 316.84C77 316.84 67.58 308.44 64.19 314.69C60.8 320.94 71.28 322.24 77 316.84Z" fill="#263238"/>
<path d="M93.64 315.35C93.64 315.35 95.41 301.35 103.02 305.78C110.63 310.21 100.27 316.75 93.64 315.35Z" fill="#263238"/>
<path d="M100.34 335.32C100.34 335.32 94.7201 321.23 105.16 322.82C115.6 324.41 107.71 331.9 100.34 335.32Z" fill="#263238"/>
<path d="M84.32 340.35C84.32 340.35 75.51 330 68.77 333.26C62.03 336.52 67.54 346.87 84.32 340.35Z" fill="#263238"/>
<path d="M92.3201 363.36C92.3201 363.36 99.8301 346.68 106.51 352.3C113.19 357.92 102.25 366.32 92.3201 363.36Z" fill="#263238"/>
<path d="M81.4101 362.38C81.4101 362.38 83.4101 349.44 75.9601 350.48C68.5101 351.52 70.4801 359.44 81.4101 362.38Z" fill="#263238"/>
<g opacity="0.2">
<path d="M75.43 287.85C75.43 287.85 71.34 275.4 80.66 275.14C89.98 274.88 79.7 286.52 75.43 287.85Z" fill="white"/>
<path d="M83.53 297.43C83.53 297.43 86.31 286.1 92.92 288.49C99.53 290.88 90.12 297.64 83.53 297.43Z" fill="white"/>
<path d="M72.31 298.41C72.31 298.41 73.31 289.41 66.31 289.19C59.31 288.97 62.39 297 72.31 298.41Z" fill="white"/>
<path d="M77 316.84C77 316.84 67.58 308.44 64.19 314.69C60.8 320.94 71.28 322.24 77 316.84Z" fill="white"/>
<path d="M93.64 315.35C93.64 315.35 95.41 301.35 103.02 305.78C110.63 310.21 100.27 316.75 93.64 315.35Z" fill="white"/>
<path d="M100.34 335.32C100.34 335.32 94.7201 321.23 105.16 322.82C115.6 324.41 107.71 331.9 100.34 335.32Z" fill="white"/>
<path d="M84.32 340.35C84.32 340.35 75.51 330 68.77 333.26C62.03 336.52 67.54 346.87 84.32 340.35Z" fill="white"/>
<path d="M92.3201 363.36C92.3201 363.36 99.8301 346.68 106.51 352.3C113.19 357.92 102.25 366.32 92.3201 363.36Z" fill="white"/>
<path d="M81.4101 362.38C81.4101 362.38 83.4101 349.44 75.9601 350.48C68.5101 351.52 70.4801 359.44 81.4101 362.38Z" fill="white"/>
</g>
<path d="M79.47 304.92C79.3939 304.92 79.3187 304.903 79.25 304.87C73.73 301.78 69.76 295.94 69.6 295.7C69.5661 295.651 69.5422 295.596 69.5299 295.537C69.5175 295.479 69.5169 295.419 69.5281 295.36C69.5393 295.301 69.562 295.245 69.5949 295.196C69.6279 295.146 69.6704 295.103 69.72 295.07C69.82 295.004 69.9417 294.98 70.0594 295.002C70.177 295.025 70.2813 295.092 70.35 295.19C72.7467 298.624 75.782 301.564 79.29 303.85C80.13 302.29 83.16 296.91 85.69 295.39C85.7921 295.328 85.9148 295.309 86.0311 295.337C86.0886 295.351 86.1429 295.376 86.1908 295.411C86.2386 295.445 86.2791 295.489 86.31 295.54C86.3409 295.591 86.3615 295.647 86.3706 295.705C86.3798 295.764 86.3773 295.824 86.3634 295.881C86.3495 295.939 86.3244 295.993 86.2894 296.041C86.2545 296.089 86.2106 296.129 86.16 296.16C83.47 297.77 79.9 304.61 79.87 304.68C79.8419 304.733 79.8035 304.779 79.7572 304.817C79.7108 304.855 79.6574 304.883 79.6 304.9C79.5585 304.916 79.5143 304.922 79.47 304.92Z" fill="#263238"/>
<path d="M88 322.23C87.9023 322.232 87.8068 322.201 87.73 322.14C79.88 316.21 69.85 316.46 69.73 316.46C69.6111 316.458 69.4971 316.412 69.4103 316.33C69.3235 316.249 69.2699 316.139 69.26 316.02C69.2587 315.961 69.269 315.902 69.2904 315.847C69.3118 315.792 69.3438 315.742 69.3847 315.699C69.4256 315.656 69.4744 315.622 69.5285 315.598C69.5826 315.574 69.6409 315.561 69.7 315.56C69.8 315.56 79.81 315.3 87.85 321.12C88.9 319.45 92.93 313.38 98.11 310.33C98.2134 310.269 98.3369 310.252 98.4531 310.282C98.5694 310.312 98.669 310.387 98.73 310.49C98.791 310.593 98.8084 310.717 98.7784 310.833C98.7484 310.949 98.6734 311.049 98.57 311.11C92.86 314.47 88.41 321.93 88.37 322.01C88.337 322.064 88.2934 322.11 88.2418 322.146C88.1902 322.182 88.1317 322.207 88.07 322.22L88 322.23Z" fill="#263238"/>
<path d="M93.45 345.1C93.3694 345.101 93.2901 345.08 93.22 345.04C93.11 344.97 81.64 338.38 73.35 338.22C73.2409 338.204 73.1413 338.149 73.0693 338.066C72.9973 337.982 72.9576 337.875 72.9576 337.765C72.9576 337.655 72.9973 337.548 73.0693 337.465C73.1413 337.381 73.2409 337.326 73.35 337.31C81.25 337.47 91.54 343.06 93.35 344.1C98.67 339.61 102.9 328.6 102.94 328.49C102.959 328.432 102.989 328.379 103.029 328.333C103.07 328.287 103.119 328.25 103.174 328.223C103.229 328.197 103.289 328.182 103.349 328.18C103.41 328.177 103.471 328.187 103.528 328.209C103.585 328.23 103.637 328.263 103.681 328.306C103.725 328.348 103.759 328.399 103.783 328.455C103.807 328.512 103.818 328.572 103.818 328.633C103.817 328.694 103.805 328.754 103.78 328.81C103.6 329.28 99.3 340.49 93.68 345C93.6136 345.053 93.5342 345.088 93.45 345.1Z" fill="#263238"/>
<path d="M86.8101 368.74C86.7296 368.739 86.6506 368.719 86.5801 368.68C82.2501 366.2 76.6501 355.35 76.4201 354.89C76.3644 354.784 76.3531 354.66 76.3887 354.546C76.4244 354.431 76.504 354.336 76.6101 354.28C76.7161 354.224 76.84 354.213 76.9544 354.249C77.0688 354.284 77.1644 354.364 77.2201 354.47C77.2201 354.58 82.6301 364.97 86.7001 367.69C90.013 363.821 94.3973 361.02 99.3001 359.64C99.4141 359.606 99.5371 359.618 99.642 359.674C99.747 359.731 99.8254 359.826 99.8601 359.94C99.8946 360.055 99.8826 360.18 99.8265 360.286C99.7704 360.393 99.6747 360.473 99.5601 360.51C94.714 361.852 90.3942 364.643 87.1801 368.51C87.1415 368.575 87.0878 368.63 87.0233 368.671C86.9589 368.711 86.8857 368.734 86.8101 368.74Z" fill="#263238"/>
<path d="M86 393.48C86 393.48 82.39 387.74 78.32 386.92C74.25 386.1 72.49 381.41 70.99 384.23C69.49 387.05 73.63 396.41 86 393.48Z" fill="#263238"/>
<path d="M71.31 416.01H101.39L103.4 391.72H69.3L71.31 416.01Z" fill="#2563EB"/>
<path d="M68.59 396.32H104.1L104.56 391.17H68.14L68.59 396.32Z" fill="#2563EB"/>
<path opacity="0.3" d="M68.59 396.32H104.1L104.56 391.17H68.14L68.59 396.32Z" fill="white"/>
<path d="M280.47 208.42L278.95 208.71C278.831 208.718 278.712 208.691 278.607 208.632C278.503 208.573 278.419 208.485 278.364 208.379C278.31 208.272 278.288 208.152 278.302 208.033C278.315 207.914 278.363 207.802 278.44 207.71H278.5C278.07 207.9 277.64 208.09 277.19 208.26C277.153 208.926 277.153 209.594 277.19 210.26L287 261L250.46 268.08C250.47 268.153 250.47 268.227 250.46 268.3C250.445 268.458 250.368 268.605 250.247 268.707C250.125 268.81 249.969 268.861 249.81 268.85C249.22 268.74 248.62 268.63 248.02 268.55L199.64 277.93C199.632 278.015 199.604 278.097 199.56 278.17C199.377 278.477 199.174 278.771 198.95 279.05C198.978 279.229 198.958 279.412 198.89 279.58C198.516 280.702 198.03 281.785 197.44 282.81C197.249 283.08 196.963 283.269 196.64 283.34C196.43 283.384 196.211 283.366 196.01 283.29C195.781 283.784 195.613 284.305 195.51 284.84L273.03 269.84L273.1 269.75C273.552 269.324 274.087 268.996 274.673 268.788C275.258 268.579 275.88 268.495 276.5 268.54C276.941 268.024 277.465 267.585 278.05 267.24C278.314 267.067 278.617 266.962 278.931 266.936C279.245 266.91 279.561 266.963 279.85 267.09C280.234 267.317 280.527 267.671 280.68 268.09C281.443 267.997 282.211 267.943 282.98 267.93L293.98 265.79L283.23 210.36C282.166 209.948 281.218 209.282 280.47 208.42Z" fill="#2563EB"/>
<path d="M180.26 135.91L180.62 135.98L187.85 134.58C188.65 134.23 189.44 133.86 190.21 133.53C191.665 132.842 193.228 132.413 194.83 132.26C195.785 132.216 196.74 132.359 197.64 132.68L259.82 120.63L265.59 150.37C265.657 150.275 265.75 150.2 265.858 150.156C265.966 150.112 266.084 150.1 266.199 150.121C266.314 150.142 266.42 150.196 266.505 150.275C266.591 150.355 266.651 150.457 266.68 150.57C267.015 151.878 267.197 153.22 267.22 154.57C267.189 155.218 267.04 155.855 266.78 156.45L276.59 207.08C277.18 206.86 277.76 206.62 278.34 206.36C278.398 206.011 278.526 205.678 278.717 205.381C278.908 205.083 279.157 204.828 279.45 204.63C279.869 204.432 280.346 204.396 280.79 204.53C281.021 204.005 281.189 203.455 281.29 202.89C281.431 202.203 281.495 201.502 281.48 200.8L281.09 198.75C281.09 198.64 281 198.54 280.95 198.44C280.909 198.363 280.887 198.277 280.887 198.19C280.887 198.103 280.909 198.017 280.95 197.94L270.63 144.72C270.57 144.73 270.51 144.73 270.45 144.72C270.089 144.759 269.724 144.698 269.394 144.545C269.065 144.391 268.783 144.151 268.58 143.85C268.296 143.267 268.208 142.607 268.33 141.97C268.43 141.22 268.62 140.48 268.77 139.74C268.931 139.086 268.979 138.41 268.91 137.74C268.886 137.627 268.898 137.509 268.945 137.403C268.991 137.297 269.07 137.208 269.17 137.15L264.59 113.54L174.92 131C173.255 131.969 171.356 132.463 169.43 132.43C169.339 132.424 169.251 132.396 169.174 132.347C169.097 132.298 169.034 132.23 168.99 132.15L124.5 140.78C124.474 140.896 124.416 141.002 124.333 141.087C124.25 141.171 124.145 141.231 124.03 141.26L121.69 141.71C121.681 142.066 121.574 142.412 121.38 142.71C121.364 142.85 121.296 142.978 121.19 143.07C121.036 143.196 120.89 143.329 120.75 143.47C120.48 143.72 120.22 143.99 119.94 144.23C119.845 144.321 119.728 144.387 119.6 144.42C119.496 144.438 119.389 144.429 119.289 144.394C119.189 144.359 119.1 144.299 119.03 144.22C118.927 144.097 118.873 143.94 118.88 143.78C118.874 143.724 118.874 143.667 118.88 143.61C118.52 143.61 118.16 143.61 117.81 143.52C117.653 143.502 117.508 143.425 117.406 143.304C117.304 143.184 117.251 143.028 117.26 142.87C117.273 142.713 117.347 142.566 117.467 142.464C117.587 142.361 117.742 142.309 117.9 142.32C118.278 142.375 118.658 142.405 119.04 142.41H119.34C119.383 142.415 119.427 142.415 119.47 142.41C119.176 142.368 118.907 142.223 118.71 142C118.707 141.973 118.707 141.947 118.71 141.92L92.95 146.92C93.0691 146.921 93.1859 146.952 93.29 147.01C93.4187 147.101 93.5073 147.238 93.5371 147.393C93.5669 147.548 93.5357 147.708 93.45 147.84C93.2439 148.114 93.0129 148.368 92.76 148.6L92.69 148.68C92.69 148.63 92.75 148.68 92.69 148.68C92.6469 148.731 92.6068 148.784 92.57 148.84C92.57 148.84 92.57 148.92 92.57 148.95C92.5654 148.983 92.5654 149.017 92.57 149.05C92.5653 149.07 92.5653 149.09 92.57 149.11C92.557 149.213 92.5183 149.311 92.4577 149.395C92.397 149.479 92.3162 149.546 92.2227 149.591C92.1291 149.636 92.0259 149.657 91.9224 149.651C91.8188 149.646 91.7183 149.614 91.63 149.56C91.5768 149.531 91.5195 149.511 91.46 149.5C91.3982 149.476 91.3347 149.455 91.27 149.44C91.2718 149.722 91.1956 149.999 91.05 150.24C90.993 150.323 90.9145 150.389 90.823 150.432C90.7315 150.474 90.6303 150.491 90.53 150.48C90.4296 151.043 90.2406 151.586 89.97 152.09C89.6681 152.605 89.2588 153.048 88.77 153.39C88.8667 153.52 88.9473 153.661 89.01 153.81L127.31 146.39V146.33C127.472 146.058 127.682 145.818 127.93 145.62C128.094 145.498 128.284 145.416 128.485 145.379C128.687 145.343 128.894 145.354 129.09 145.41C129.404 145.507 129.699 145.66 129.96 145.86L179.55 136.25C179.608 136.117 179.711 136.01 179.841 135.947C179.972 135.885 180.121 135.872 180.26 135.91Z" fill="#2563EB"/>
<path d="M113.57 294.64L104.57 248.29C104.491 248.38 104.387 248.444 104.271 248.475C104.155 248.505 104.033 248.5 103.92 248.46C103.771 248.408 103.648 248.299 103.578 248.156C103.509 248.014 103.499 247.85 103.55 247.7C103.7 247.26 103.927 246.85 104.22 246.49L92.43 185.58L92.32 185.39C92.0802 184.895 91.9086 184.371 91.81 183.83C91.6036 183.815 91.3964 183.815 91.19 183.83C91.0994 183.845 91.0065 183.84 90.9182 183.814C90.83 183.788 90.7487 183.743 90.6804 183.682C90.6121 183.62 90.5586 183.544 90.5239 183.459C90.4892 183.374 90.4742 183.282 90.48 183.19C90.4682 182.036 90.7651 180.9 91.34 179.9L86.56 155.26C86.4802 155.129 86.41 154.992 86.35 154.85L86.11 154.4C86.0118 154.397 85.9161 154.368 85.8333 154.315C85.7505 154.262 85.6837 154.188 85.64 154.1C85.5705 153.958 85.5599 153.794 85.6105 153.644C85.661 153.495 85.7687 153.371 85.91 153.3C86.1599 153.203 86.3878 153.057 86.58 152.87C86.7162 152.715 86.8275 152.539 86.91 152.35C87.0672 151.927 87.1517 151.481 87.16 151.03C87.0098 150.826 86.9011 150.595 86.84 150.35C86.7947 150.014 86.8254 149.672 86.93 149.35C86.9512 149.266 86.9963 149.189 87.06 149.13C87.06 148.75 87 148.37 86.98 147.99L79.33 149.47L101.16 262.09C101.269 262.032 101.396 262.016 101.516 262.045C101.636 262.075 101.741 262.148 101.81 262.25C102.375 262.862 102.686 263.667 102.68 264.5C102.65 264.664 102.603 264.825 102.54 264.98C102.641 265.053 102.715 265.157 102.751 265.276C102.787 265.396 102.783 265.523 102.74 265.64C102.447 266.213 102.353 266.867 102.47 267.5C102.596 268.095 102.766 268.68 102.98 269.25C103.357 270.207 103.406 271.262 103.12 272.25L108.82 301.68L110.44 301.36C111.351 301.06 112.279 300.816 113.22 300.63C113.206 300.561 113.207 300.489 113.222 300.42C113.238 300.351 113.268 300.287 113.31 300.23C113.548 299.955 113.802 299.695 114.07 299.45C114.045 299.348 114.045 299.242 114.07 299.14C114.238 298.448 114.628 297.83 115.18 297.38C115.681 297.01 116.3 296.836 116.92 296.89C117.518 296.965 118.091 297.172 118.6 297.495C119.108 297.819 119.538 298.251 119.86 298.76C121.5 298.36 123.27 297.76 124.86 298.57L187.02 286.57C187.039 286.407 187.072 286.247 187.12 286.09C187.374 285.28 187.848 284.556 188.49 284C188.586 283.918 188.706 283.869 188.832 283.86C188.958 283.851 189.083 283.882 189.19 283.95C189.238 283.871 189.306 283.807 189.387 283.761C189.467 283.716 189.558 283.693 189.65 283.693C189.742 283.693 189.833 283.716 189.914 283.761C189.994 283.807 190.062 283.871 190.11 283.95L190.36 284.25L190.47 284.35L190.66 284.48L190.87 284.58C190.68 284.002 190.68 283.378 190.87 282.8C190.987 282.475 191.17 282.177 191.408 281.926C191.645 281.675 191.932 281.475 192.25 281.34C192.191 281.26 192.153 281.166 192.139 281.068C192.126 280.969 192.138 280.869 192.174 280.776C192.21 280.683 192.269 280.601 192.345 280.537C192.421 280.473 192.512 280.429 192.61 280.41C192.74 280.394 192.872 280.42 192.986 280.485C193.1 280.55 193.19 280.65 193.243 280.77C193.296 280.89 193.309 281.024 193.279 281.152C193.25 281.28 193.18 281.395 193.08 281.48L193.15 281.56C193.219 281.702 193.23 281.866 193.18 282.016C193.129 282.165 193.021 282.289 192.88 282.36L192.65 282.47L192.52 282.54L192.45 282.59L192.29 282.73L192.23 282.8L192.13 282.95V283.01C192.107 283.062 192.087 283.116 192.07 283.17C192.269 282.908 192.501 282.673 192.76 282.47C192.934 282.35 193.122 282.252 193.32 282.18C193.81 281.1 194.27 280 194.73 278.92L113.57 294.64Z" fill="#2563EB"/>
<path d="M128.35 248C128.456 247.884 128.581 247.786 128.72 247.71L146.78 212.03L138.48 213.64L131.2 227.89C131.245 227.901 131.289 227.917 131.33 227.94C131.459 228.031 131.547 228.168 131.577 228.323C131.607 228.478 131.576 228.638 131.49 228.77C131.32 229.02 131.19 229.29 131.04 229.55C131.17 229.63 131.29 229.73 131.42 229.8C131.518 229.867 131.595 229.962 131.639 230.072C131.684 230.182 131.695 230.304 131.67 230.42C131.645 230.535 131.588 230.641 131.505 230.725C131.421 230.808 131.315 230.866 131.2 230.89L131 231H130.95H130.89L130.5 231.18H130.41L130.27 231.29L129.96 231.56L129.8 231.73L129.73 231.81L129.45 232.17C129.25 232.44 129.07 232.72 128.88 233C128.787 233.131 128.647 233.22 128.49 233.25L117.84 254.11L118.84 259.49L123.57 258.57C123.722 258.122 123.975 257.714 124.31 257.38C124.468 257.231 124.643 257.1 124.83 256.99C124.825 256.954 124.825 256.917 124.83 256.88C125.054 254.458 125.842 252.123 127.13 250.06C127.066 249.96 127.032 249.844 127.032 249.725C127.032 249.606 127.066 249.49 127.13 249.39C127.293 249.106 127.357 248.775 127.31 248.45C127.311 248.33 127.347 248.213 127.413 248.113C127.48 248.013 127.574 247.935 127.684 247.887C127.794 247.839 127.915 247.825 128.034 247.845C128.152 247.865 128.262 247.919 128.35 248Z" fill="#2563EB"/>
<path d="M159.46 244.83C159.45 244.98 159.409 245.126 159.34 245.26C159.043 245.841 158.561 246.305 157.97 246.58C157.85 246.76 157.72 246.93 157.61 247.1C157.545 247.191 157.455 247.261 157.35 247.3C157.35 247.39 157.28 247.49 157.26 247.58C157.236 247.658 157.197 247.73 157.145 247.792C157.093 247.854 157.029 247.905 156.957 247.942C156.884 247.978 156.805 248 156.724 248.005C156.643 248.01 156.562 247.999 156.485 247.972C156.409 247.945 156.339 247.902 156.279 247.847C156.219 247.793 156.172 247.726 156.138 247.652C156.105 247.578 156.087 247.498 156.086 247.417C156.084 247.336 156.099 247.255 156.13 247.18C156.228 246.837 156.355 246.502 156.51 246.18L155.94 246.29C155.785 246.317 155.626 246.283 155.496 246.195C155.365 246.108 155.274 245.973 155.24 245.82C155.225 245.775 155.225 245.725 155.24 245.68L154.89 245.75L152.63 234L145.41 235.4L147.67 247.08L129.8 250.54C129.68 250.6 129.57 250.69 129.45 250.76V250.84C129.494 250.969 129.493 251.11 129.446 251.238C129.4 251.366 129.311 251.475 129.195 251.546C129.078 251.617 128.941 251.646 128.805 251.629C128.67 251.611 128.545 251.548 128.45 251.45C128.117 251.737 127.812 252.055 127.54 252.4C127.644 252.37 127.755 252.37 127.859 252.401C127.964 252.431 128.057 252.489 128.13 252.57C128.186 252.625 128.23 252.69 128.26 252.762C128.29 252.834 128.306 252.912 128.306 252.99C128.306 253.068 128.29 253.146 128.26 253.218C128.23 253.29 128.186 253.355 128.13 253.41L127.65 253.81C127.711 253.911 127.743 254.027 127.743 254.145C127.743 254.263 127.711 254.379 127.65 254.48V254.55C127.645 254.587 127.645 254.624 127.65 254.66C127.65 254.8 127.65 254.95 127.65 255.1C127.629 255.369 127.512 255.621 127.32 255.81C127.102 255.998 126.835 256.119 126.55 256.16H126.48C126.508 256.459 126.551 256.756 126.61 257.05C126.746 257.321 126.853 257.606 126.93 257.9L148.82 253.66L151.28 267L158.74 265.56L156.18 252.34L166.39 250.34L165.11 243.74L159.46 244.83Z" fill="#2563EB"/>
<path d="M202.8 208.83L202.32 209.25C202.09 209.45 201.87 209.65 201.66 209.86L201.39 210.16L201.24 210.34C201.068 210.589 200.812 210.768 200.519 210.842C200.226 210.917 199.915 210.883 199.645 210.746C199.376 210.609 199.164 210.379 199.051 210.099C198.938 209.818 198.93 209.506 199.03 209.22L199.31 208.16C199.31 208.16 199.23 208.08 199.2 208.02C199.119 207.87 199.077 207.701 199.08 207.53C199.06 207.367 199.081 207.203 199.14 207.05C199.14 206.93 199.23 206.81 199.28 206.69C199.061 206.478 198.879 206.231 198.74 205.96V205.88C194.522 203.661 189.659 202.996 185 204C172.4 206.44 165 218.25 168.36 235.76C171.72 253.27 183.06 261.45 195.66 259.01C196.792 258.794 197.906 258.49 198.99 258.1C199.34 257.6 199.69 257.1 199.99 256.61C200.109 256.439 200.269 256.3 200.455 256.207C200.642 256.113 200.849 256.069 201.057 256.077C201.265 256.085 201.468 256.145 201.647 256.252C201.826 256.359 201.975 256.51 202.08 256.69C210.55 251.97 214.95 241.5 212.19 227.26C210.62 219 207.24 212.8 202.8 208.83ZM194.34 252.18C185.89 253.82 178.71 248.04 176.04 234.28C173.37 220.52 177.87 212.48 186.32 210.85C188.54 210.37 190.849 210.503 193 211.234C195.151 211.965 197.062 213.266 198.53 215C198.672 214.899 198.831 214.824 199 214.78C199.327 214.721 199.664 214.793 199.939 214.98C200.214 215.167 200.405 215.454 200.47 215.78C200.576 216.415 200.593 217.061 200.52 217.7C202.505 221.096 203.86 224.822 204.52 228.7C207.21 242.51 202.71 250.56 194.34 252.18Z" fill="#2563EB"/>
<path d="M257.55 225.82L255.29 214.14L248.06 215.54L250.33 227.22L229.66 231.22L249.43 192.16L241.13 193.76L233.7 208.32C233.63 210.138 233.262 211.932 232.61 213.63C232.564 213.742 232.486 213.839 232.385 213.906C232.285 213.974 232.166 214.01 232.045 214.01C231.924 214.01 231.805 213.974 231.704 213.906C231.604 213.839 231.526 213.742 231.48 213.63C231.28 215.18 230.553 216.614 229.42 217.69C229.346 217.759 229.255 217.806 229.156 217.825C229.057 217.844 228.954 217.836 228.86 217.8L220.45 234.28L221.45 239.66L233.89 237.25C234.951 236.406 236.205 235.839 237.54 235.6C238.712 235.329 239.908 235.171 241.11 235.13C242.012 235.061 242.918 235.129 243.8 235.33L251.34 233.87L253.9 247.08L261.35 245.64L258.79 232.43L269.01 230.43L267.73 223.83L257.55 225.82Z" fill="#2563EB"/>
<path d="M120.1 193.81L118.92 187.73L131.12 185.37L130.2 180.64L118 183L116.9 177.29L130.71 174.62L129.71 169.74L109.86 173.59L111.56 182.35C111.863 182.505 112.132 182.719 112.35 182.98C112.727 183.456 112.953 184.034 113 184.64C113.13 185.89 112.82 187.18 113 188.39C113.024 188.491 113.018 188.597 112.983 188.695C112.947 188.793 112.884 188.878 112.8 188.94L115 199.86L135.34 195.92L134.4 191L120.1 193.81Z" fill="#2563EB"/>
<path d="M155.92 183.17C157.396 182.234 158.553 180.874 159.241 179.267C159.928 177.661 160.112 175.884 159.77 174.17C159.669 174.275 159.535 174.343 159.39 174.36C159.273 174.368 159.156 174.341 159.055 174.282C158.953 174.223 158.871 174.135 158.82 174.03C158.683 173.711 158.593 173.374 158.55 173.03C158.55 172.98 158.55 172.94 158.55 172.89C158.365 172.654 158.232 172.381 158.16 172.09C158.136 171.934 158.172 171.775 158.261 171.645C158.351 171.515 158.486 171.424 158.64 171.39C158.701 171.374 158.764 171.372 158.826 171.382C158.888 171.392 158.947 171.415 159 171.45C157.09 167.18 152.49 165.28 146.47 166.45L135.1 168.65L136.64 176.58C136.762 176.632 136.858 176.728 136.91 176.85C137.878 178.815 138.481 180.94 138.69 183.12C138.714 183.276 138.678 183.435 138.589 183.565C138.499 183.695 138.364 183.786 138.21 183.82C138.154 183.83 138.096 183.83 138.04 183.82L140.19 195L146.27 193.82L144.85 186.51L150.44 185.42L156.92 191.76L163.45 190.49L155.92 183.17ZM148.86 180.68L143.86 181.68L142.08 172.53L147.08 171.53C150.79 170.81 153 172.13 153.56 175.02C154.12 177.91 152.58 180 148.86 180.68Z" fill="#2563EB"/>
<path d="M183.51 177.82C185.035 176.851 186.22 175.431 186.9 173.756C187.579 172.082 187.719 170.238 187.3 168.48C186.16 162.59 181.07 159.8 174.05 161.16L162.68 163.37L167.77 189.63L173.85 188.46L172.43 181.14L178.02 180.05L184.51 186.39L191.04 185.12L183.51 177.82ZM176.45 175.34L171.45 176.34L169.68 167.18L174.63 166.18C174.94 166.12 175.24 166.08 175.52 166.05L175.71 165.89C175.728 165.74 175.761 165.593 175.81 165.45C175.875 165.277 175.993 165.128 176.148 165.026C176.302 164.923 176.485 164.872 176.67 164.88C177.025 164.915 177.367 165.032 177.67 165.22C177.722 165.157 177.787 165.106 177.86 165.07C177.864 164.878 177.888 164.687 177.93 164.5C177.988 164.357 178.099 164.242 178.24 164.179C178.381 164.116 178.54 164.109 178.686 164.161C178.831 164.212 178.951 164.318 179.021 164.455C179.091 164.593 179.105 164.752 179.06 164.9C178.94 165.36 179.16 165.77 179.12 166.24C179.106 166.352 179.072 166.46 179.02 166.56C179.582 166.886 180.062 167.337 180.423 167.878C180.783 168.419 181.015 169.035 181.1 169.68C181.7 172.53 180.16 174.62 176.45 175.34Z" fill="#2563EB"/>
<path d="M212.28 156.09L211.97 156.17C211.896 156.195 211.826 156.229 211.76 156.27C211.729 156.288 211.702 156.312 211.68 156.34C211.591 156.446 211.473 156.522 211.34 156.56C211.262 156.574 211.182 156.572 211.105 156.555C211.028 156.538 210.955 156.506 210.89 156.46C210.823 156.419 210.765 156.364 210.722 156.298C210.679 156.232 210.651 156.158 210.64 156.08C210.609 155.924 210.642 155.762 210.73 155.63C210.73 155.63 210.79 155.58 210.81 155.55C208.25 154.734 205.524 154.586 202.89 155.12C194.59 156.73 189.64 163.69 191.15 171.49C192.66 179.29 199.86 183.9 208.15 182.29C216.44 180.68 221.41 173.76 219.89 165.92C219.517 163.786 218.628 161.776 217.302 160.063C215.976 158.35 214.252 156.986 212.28 156.09ZM207.16 177.09C204.931 177.522 202.621 177.051 200.739 175.781C198.857 174.51 197.557 172.544 197.125 170.315C196.693 168.086 197.164 165.776 198.434 163.894C199.705 162.012 201.671 160.712 203.9 160.28C205.023 160.06 206.177 160.06 207.3 160.28C207.3 160.14 207.39 160 207.44 159.88C207.49 159.744 207.587 159.631 207.714 159.561C207.841 159.491 207.989 159.469 208.13 159.5C208.241 159.52 208.343 159.574 208.422 159.654C208.501 159.735 208.553 159.838 208.57 159.95L208.92 159.86C209 159.61 209.08 159.37 209.15 159.12C209.22 158.87 209.23 158.83 209.26 158.69C209.281 158.621 209.298 158.551 209.31 158.48V158.41L209.37 158.05V157.92C209.31 157.52 209.73 157.04 210.16 157.25L211.35 157.82C211.497 157.878 211.616 157.99 211.683 158.134C211.75 158.277 211.759 158.44 211.71 158.59C211.64 158.739 211.58 158.893 211.53 159.05C211.53 159.1 211.53 159.16 211.48 159.21C211.48 159.21 211.48 159.21 211.48 159.28C211.46 159.52 211.46 159.76 211.48 160C211.502 160.569 211.468 161.138 211.38 161.7C211.408 161.765 211.422 161.835 211.422 161.905C211.422 161.975 211.408 162.045 211.38 162.11C211.359 162.178 211.321 162.24 211.27 162.29C212.578 163.584 213.454 165.25 213.78 167.06C214.053 168.156 214.096 169.297 213.905 170.411C213.715 171.524 213.295 172.586 212.673 173.529C212.05 174.472 211.239 175.275 210.29 175.888C209.341 176.501 208.275 176.91 207.16 177.09Z" fill="#2563EB"/>
<path d="M246.66 157.75C246.627 157.746 246.593 157.746 246.56 157.75C246.321 157.666 246.101 157.537 245.91 157.37C245.819 157.525 245.715 157.672 245.6 157.81C245.507 157.937 245.37 158.024 245.216 158.053C245.062 158.083 244.903 158.053 244.77 157.97C244.639 157.881 244.549 157.743 244.519 157.588C244.489 157.432 244.522 157.271 244.61 157.14C245.2 156.335 245.573 155.391 245.69 154.4C243.69 150.34 239.18 148.57 233.31 149.71L221.94 151.91L227 178.15L233.08 176.97L231.66 169.65L237.25 168.57L243.74 174.9L250.27 173.64L242.74 166.34C244.158 165.445 245.284 164.155 245.981 162.629C246.677 161.104 246.913 159.408 246.66 157.75ZM235.71 163.85L230.71 164.85L229 155.65L234 154.65C237.72 153.93 239.92 155.26 240.48 158.15C241.04 161.04 239.42 163.13 235.71 163.85Z" fill="#2563EB"/>
<path d="M193.77 316.66H236.51C237.672 316.66 238.822 316.889 239.895 317.334C240.968 317.779 241.943 318.431 242.764 319.253C243.585 320.075 244.236 321.05 244.68 322.124C245.124 323.198 245.351 324.348 245.35 325.51V340.51C245.351 341.672 245.124 342.822 244.68 343.896C244.236 344.97 243.585 345.945 242.764 346.767C241.943 347.589 240.968 348.241 239.895 348.686C238.822 349.131 237.672 349.36 236.51 349.36H208.11L195.11 363.26L202.11 349.36H193.73C191.383 349.36 189.132 348.428 187.472 346.768C185.812 345.108 184.88 342.857 184.88 340.51V325.51C184.88 324.344 185.11 323.19 185.557 322.114C186.005 321.038 186.66 320.06 187.486 319.238C188.312 318.416 189.293 317.765 190.371 317.322C191.449 316.88 192.604 316.655 193.77 316.66Z" fill="#2563EB"/>
<path opacity="0.7" d="M193.77 316.66H236.51C237.672 316.66 238.822 316.889 239.895 317.334C240.968 317.779 241.943 318.431 242.764 319.253C243.585 320.075 244.236 321.05 244.68 322.124C245.124 323.198 245.351 324.348 245.35 325.51V340.51C245.351 341.672 245.124 342.822 244.68 343.896C244.236 344.97 243.585 345.945 242.764 346.767C241.943 347.589 240.968 348.241 239.895 348.686C238.822 349.131 237.672 349.36 236.51 349.36H208.11L195.11 363.26L202.11 349.36H193.73C191.383 349.36 189.132 348.428 187.472 346.768C185.812 345.108 184.88 342.857 184.88 340.51V325.51C184.88 324.344 185.11 323.19 185.557 322.114C186.005 321.038 186.66 320.06 187.486 319.238C188.312 318.416 189.293 317.765 190.371 317.322C191.449 316.88 192.604 316.655 193.77 316.66Z" fill="white"/>
<path d="M195.86 332.18C195.822 331.17 196.087 330.173 196.62 329.314C197.153 328.456 197.93 327.777 198.852 327.364C199.774 326.95 200.798 326.822 201.794 326.995C202.789 327.168 203.71 327.634 204.439 328.334C205.167 329.034 205.67 329.935 205.883 330.923C206.096 331.91 206.008 332.939 205.632 333.877C205.256 334.815 204.609 335.619 203.773 336.186C202.937 336.753 201.95 337.057 200.94 337.06C200.281 337.093 199.623 336.99 199.005 336.759C198.387 336.528 197.823 336.173 197.347 335.716C196.871 335.259 196.494 334.71 196.238 334.102C195.982 333.494 195.854 332.84 195.86 332.18ZM204.63 332.18C204.638 331.444 204.427 330.722 204.023 330.106C203.619 329.49 203.041 329.009 202.363 328.722C201.685 328.436 200.936 328.358 200.214 328.498C199.491 328.638 198.826 328.99 198.304 329.51C197.782 330.029 197.426 330.692 197.282 331.414C197.138 332.136 197.212 332.884 197.494 333.564C197.777 334.244 198.256 334.825 198.869 335.232C199.483 335.639 200.204 335.854 200.94 335.85C201.427 335.865 201.912 335.781 202.365 335.602C202.818 335.423 203.23 335.154 203.576 334.81C203.921 334.466 204.193 334.056 204.374 333.604C204.555 333.152 204.642 332.667 204.63 332.18Z" fill="#2563EB"/>
<path d="M207.22 333.34C207.2 332.593 207.403 331.858 207.803 331.227C208.203 330.596 208.782 330.098 209.466 329.798C210.15 329.497 210.908 329.407 211.643 329.539C212.378 329.671 213.057 330.019 213.594 330.539C214.131 331.058 214.501 331.726 214.656 332.457C214.812 333.187 214.746 333.948 214.468 334.641C214.19 335.334 213.711 335.929 213.093 336.349C212.476 336.769 211.747 336.996 211 337C210.507 337.025 210.015 336.948 209.553 336.774C209.091 336.601 208.67 336.334 208.315 335.991C207.961 335.648 207.681 335.235 207.492 334.779C207.304 334.323 207.211 333.833 207.22 333.34ZM213.41 333.34C213.431 333.007 213.384 332.673 213.271 332.359C213.159 332.045 212.983 331.758 212.755 331.515C212.526 331.271 212.251 331.077 211.945 330.945C211.639 330.812 211.309 330.744 210.975 330.744C210.641 330.744 210.311 330.812 210.005 330.945C209.699 331.077 209.423 331.271 209.195 331.515C208.967 331.758 208.791 332.045 208.678 332.359C208.566 332.673 208.519 333.007 208.54 333.34C208.519 333.673 208.566 334.007 208.678 334.321C208.791 334.635 208.967 334.922 209.195 335.165C209.423 335.409 209.699 335.603 210.005 335.735C210.311 335.868 210.641 335.936 210.975 335.936C211.309 335.936 211.639 335.868 211.945 335.735C212.251 335.603 212.526 335.409 212.755 335.165C212.983 334.922 213.159 334.635 213.271 334.321C213.384 334.007 213.431 333.673 213.41 333.34Z" fill="#2563EB"/>
<path d="M224 333.34C224.027 333.829 223.951 334.318 223.778 334.775C223.605 335.233 223.338 335.65 222.994 335.998C222.65 336.346 222.238 336.619 221.782 336.799C221.327 336.978 220.839 337.06 220.35 337.04C219.867 337.055 219.387 336.956 218.949 336.751C218.511 336.546 218.128 336.241 217.83 335.86V339.6H216.52V329.73H217.77V330.88C218.07 330.484 218.461 330.166 218.91 329.953C219.359 329.741 219.853 329.64 220.35 329.66C220.837 329.64 221.323 329.722 221.777 329.9C222.231 330.078 222.643 330.349 222.986 330.695C223.33 331.041 223.597 331.455 223.772 331.911C223.946 332.366 224.024 332.853 224 333.34ZM222.68 333.34C222.657 332.866 222.495 332.408 222.214 332.025C221.934 331.642 221.547 331.349 221.102 331.183C220.657 331.017 220.173 330.985 219.71 331.091C219.247 331.197 218.826 331.437 218.497 331.78C218.169 332.123 217.948 332.555 217.863 333.022C217.777 333.489 217.83 333.971 218.016 334.409C218.201 334.846 218.511 335.219 218.906 335.482C219.301 335.746 219.765 335.887 220.24 335.89C220.574 335.9 220.906 335.841 221.215 335.715C221.524 335.59 221.804 335.401 222.036 335.16C222.267 334.92 222.446 334.634 222.561 334.321C222.675 334.007 222.723 333.673 222.7 333.34H222.68Z" fill="#2563EB"/>
<path d="M224.92 336.19L225.46 335.19C226.219 335.673 227.1 335.93 228 335.93C229.21 335.93 229.71 335.57 229.71 334.93C229.71 333.31 225.15 334.72 225.15 331.84C225.15 330.55 226.31 329.67 228.15 329.67C229.069 329.656 229.976 329.884 230.78 330.33L230.22 331.33C229.597 330.941 228.874 330.743 228.14 330.76C226.99 330.76 226.43 331.18 226.43 331.76C226.43 333.46 231.01 332.07 231.01 334.88C231.01 336.18 229.81 337.02 227.89 337.02C226.839 337.052 225.803 336.762 224.92 336.19Z" fill="#2563EB"/>
<path d="M232.36 336.16C232.36 336.043 232.383 335.928 232.429 335.82C232.475 335.712 232.541 335.615 232.625 335.534C232.709 335.453 232.809 335.389 232.918 335.347C233.027 335.306 233.143 335.286 233.26 335.29C233.375 335.287 233.489 335.308 233.596 335.351C233.703 335.393 233.8 335.457 233.881 335.539C233.963 335.62 234.027 335.717 234.069 335.824C234.112 335.931 234.133 336.045 234.13 336.16C234.131 336.275 234.11 336.389 234.067 336.496C234.024 336.603 233.96 336.7 233.879 336.782C233.798 336.864 233.701 336.929 233.595 336.973C233.489 337.017 233.375 337.04 233.26 337.04C233.143 337.043 233.026 337.022 232.917 336.979C232.808 336.936 232.709 336.871 232.625 336.789C232.541 336.707 232.474 336.61 232.429 336.501C232.383 336.393 232.36 336.277 232.36 336.16ZM232.48 327.42H234L233.74 333.94H232.74L232.48 327.42Z" fill="#2563EB"/>
<path d="M443 160.78C443 164.04 425.17 166.84 399.63 168.07L397.58 168.17L394.82 168.28C390.99 168.43 387.01 168.54 382.91 168.63H381.07H380.07C376.92 168.68 373.7 168.7 370.43 168.7C364.51 168.7 358.76 168.62 353.25 168.48L349.25 168.35C339.2 168.02 330.08 167.45 322.4 166.71C307.33 165.25 297.82 163.12 297.82 160.71C297.82 157.12 319.42 154.1 349.13 153.1L351.46 153.02C353.533 152.96 355.637 152.91 357.77 152.87C360.34 152.82 362.96 152.79 365.61 152.77H370.44C377.92 152.77 385.14 152.89 391.93 153.13L395.15 153.24L399.34 153.42L400.43 153.48L403.22 153.62C426.75 155 443 157.67 443 160.78Z" fill="#263238"/>
<path opacity="0.4" d="M443 160.78C443 164.04 425.17 166.84 399.63 168.07L397.58 168.17L394.82 168.28C390.99 168.43 387.01 168.54 382.91 168.63H381.07H380.07C376.92 168.68 373.7 168.7 370.43 168.7C364.51 168.7 358.76 168.62 353.25 168.48L349.25 168.35C339.2 168.02 330.08 167.45 322.4 166.71C307.33 165.25 297.82 163.12 297.82 160.71C297.82 159.65 299.71 158.63 303.14 157.71C309.475 159.194 315.914 160.197 322.4 160.71C330.08 161.45 339.2 162.02 349.25 162.35L353.25 162.48C358.76 162.62 364.51 162.7 370.43 162.7C373.7 162.7 376.92 162.7 380.07 162.63H381.07H382.91C387.01 162.54 390.99 162.43 394.82 162.28L397.58 162.17L399.63 162.07C416.86 161.24 430.57 159.7 437.68 157.78C441.06 158.71 443 159.71 443 160.78Z" fill="white"/>
<path d="M365.5 152.84C365.427 154.031 364.979 155.169 364.22 156.09C363.39 157.09 362.68 157.85 361.87 158.68C361.39 159.17 360.87 159.68 360.42 160.12C360.1 160.45 359.77 160.76 359.42 161.06C357.727 162.624 355.936 164.08 354.06 165.42L353.73 165.65L352.86 166.23C351.662 167.031 350.413 167.753 349.12 168.39C348.64 168.63 348.12 168.86 347.64 169.08C346.442 169.584 345.209 169.999 343.95 170.32C342.83 170.62 341.76 170.88 340.7 171.1C339.21 171.43 337.7 171.73 336.27 172C333.54 172.53 330.82 173 328.08 173.4C325.75 173.75 323.42 174.08 321.08 174.4C319.2 174.63 317.32 174.83 315.42 174.99C315.211 175.015 314.999 175.015 314.79 174.99C314.157 174.903 313.572 174.604 313.132 174.14C312.692 173.677 312.423 173.077 312.37 172.44C312.36 172.314 312.36 172.186 312.37 172.06C312.395 171.507 312.585 170.974 312.914 170.528C313.244 170.083 313.698 169.746 314.22 169.56L314.46 169.48C317.05 168.55 319.65 167.67 322.26 166.82L326.21 165.54C330.21 164.24 334.21 163.02 338.1 161.73C339.1 161.41 340.03 161.08 340.92 160.73C341.687 160.476 342.424 160.141 343.12 159.73C343.57 159.47 344.02 159.18 344.48 158.87C345.488 158.192 346.46 157.461 347.39 156.68C348.71 155.59 350.03 154.39 351.32 153.14C353.393 153.08 355.497 153.03 357.63 152.99C360.23 152.89 362.85 152.86 365.5 152.84Z" fill="#FFB573"/>
<path d="M365.62 156.88C365.55 157.09 365.47 157.29 365.39 157.49C365.31 157.69 365.22 157.89 365.12 158.09C365.032 158.286 364.932 158.477 364.82 158.66L364.49 159.23V159.28C364.263 159.633 364.023 159.967 363.77 160.28C363.5 160.63 363.22 160.97 362.92 161.28L362.64 161.59C362.205 162.055 361.744 162.496 361.26 162.91C361.1 163.06 360.93 163.2 360.76 163.33C360.702 163.389 360.638 163.443 360.57 163.49C359.071 164.686 357.464 165.741 355.77 166.64L355.16 166.95L354.56 167.25L354.33 167.35L353.6 166.71L352.98 166.15L351.58 164.91L344.58 158.74L344.05 158.27C344.05 158.27 346.19 155.88 349.05 153.09L351.38 153.01C353.453 152.95 355.557 152.9 357.69 152.86C360.26 152.81 362.88 152.78 365.53 152.76H366.11C366.254 154.153 366.086 155.56 365.62 156.88Z" fill="#2563EB"/>
<path opacity="0.7" d="M365.63 156.88C365.56 157.087 365.48 157.291 365.39 157.49C365.31 157.69 365.22 157.89 365.12 158.09C365.032 158.286 364.932 158.477 364.82 158.66L364.49 159.23V159.28C364.263 159.633 364.023 159.967 363.77 160.28C363.5 160.63 363.22 160.97 362.92 161.28L362.64 161.59C362.205 162.055 361.744 162.496 361.26 162.91C361.1 163.06 360.93 163.2 360.76 163.33C360.702 163.389 360.638 163.443 360.57 163.49C359.071 164.686 357.464 165.741 355.77 166.64L355.16 166.95L354.56 167.25L354.33 167.35L353.6 166.71L352.98 166.15L351.58 164.91L344.58 158.74L344.05 158.27C344.05 158.27 346.19 155.88 349.05 153.09L351.38 153.01C353.453 152.95 355.557 152.9 357.69 152.86C360.26 152.81 362.88 152.78 365.53 152.76H366.12C366.264 154.153 366.097 155.56 365.63 156.88Z" fill="white"/>
<path opacity="0.1" d="M360.5 163.56C358.574 165.099 356.469 166.398 354.23 167.43L351.48 165C352.924 160.71 355.527 156.903 359 154C360.25 156.32 360.65 161.17 360.5 163.56Z" fill="black"/>
<path d="M315.28 169.53L306 168.11L306.07 176.33C306.07 176.33 312.43 178.24 315.8 173.92L315.28 169.53Z" fill="#EBB376"/>
<path d="M299.67 170.33L301.2 176.44L306.06 176.33L305.99 168.11L299.67 170.33Z" fill="#EBB376"/>
<path d="M399.23 153.47C399.15 153.68 399.06 153.89 398.98 154.11C398.74 154.72 398.51 155.34 398.29 155.96C398.15 156.34 398.02 156.72 397.89 157.11C397.76 157.5 397.62 157.89 397.5 158.28C397.13 159.44 396.77 160.61 396.42 161.8C396.408 161.864 396.391 161.928 396.37 161.99C395.99 163.31 395.65 164.66 395.32 165.99V166.15C395.15 166.85 394.97 167.55 394.81 168.26C394.73 168.58 394.66 168.89 394.59 169.21C394.32 170.44 394.06 171.68 393.82 172.91C393.73 173.37 393.64 173.83 393.56 174.28C393.48 174.73 393.37 175.28 393.29 175.71C393.29 175.81 393.29 175.91 393.24 176.01C393.19 176.27 393.14 176.53 393.1 176.79C392.97 177.52 392.85 178.24 392.73 178.95C392.73 179.06 392.73 179.16 392.68 179.27L392.56 180.02C392.32 181.48 392.11 182.91 391.92 184.3C391.915 184.38 391.915 184.46 391.92 184.54C391.71 186.07 391.53 187.54 391.37 188.97C391.3 189.56 391.23 190.14 391.17 190.71C391.08 191.51 391 192.28 390.93 193.03C390.87 193.58 390.82 194.12 390.77 194.64C390.72 195.16 390.68 195.64 390.64 196.07C390.6 196.5 390.56 196.99 390.52 197.42C390.42 198.64 390.34 199.74 390.27 200.69C390.27 201.11 390.22 201.49 390.19 201.85C390.11 203.18 390.07 204.11 390.05 204.53C390.05 204.7 390.05 204.79 390.05 204.79L372.32 203.16H372.06L369.06 202.88L364.55 202.46L359 202L357.69 201.88L351.06 201.27C351.06 200.64 351 200.03 350.99 199.41C350.99 199.24 350.99 199.07 350.99 198.9C350.8 193.44 350.9 188.43 351.19 183.9C351.35 181.527 351.557 179.27 351.81 177.13C352.17 174.05 352.62 171.22 353.13 168.61C353.24 168.02 353.36 167.44 353.48 166.88C353.56 166.49 353.64 166.12 353.73 165.75C354.401 162.749 355.229 159.785 356.21 156.87C356.69 155.47 357.21 154.2 357.64 153.05C360.21 153 362.83 152.97 365.48 152.95H370.31C377.79 152.95 385.01 153.07 391.8 153.31L395.02 153.42L399.23 153.47Z" fill="#2563EB"/>
<path opacity="0.7" d="M399.23 153.47C399.15 153.68 399.06 153.89 398.98 154.11C398.74 154.72 398.51 155.34 398.29 155.96C398.15 156.34 398.02 156.72 397.89 157.11C397.76 157.5 397.62 157.89 397.5 158.28V158.35C397.13 159.49 396.79 160.63 396.45 161.8C396.438 161.864 396.421 161.928 396.4 161.99C395.92 163.69 395.47 165.42 395.05 167.16C394.96 167.53 394.88 167.91 394.8 168.28C394.72 168.65 394.65 168.91 394.58 169.23C394.31 170.46 394.05 171.7 393.81 172.93C393.71 173.39 393.62 173.85 393.54 174.31C393.45 174.78 393.36 175.26 393.28 175.73C393.28 175.83 393.28 175.94 393.22 176.04C393.17 176.3 393.12 176.56 393.08 176.82C392.95 177.55 392.83 178.27 392.71 178.98C392.71 179.09 392.71 179.19 392.66 179.3L392.54 180.05C392.31 181.51 392.09 182.94 391.9 184.33C391.895 184.41 391.895 184.49 391.9 184.57C391.69 186.1 391.51 187.57 391.35 189C391.28 189.59 391.21 190.17 391.15 190.74C391.06 191.54 390.98 192.31 390.91 193.06C390.85 193.61 390.8 194.15 390.75 194.67C390.7 195.19 390.66 195.67 390.62 196.1C390.58 196.53 390.54 197.02 390.5 197.45C390.4 198.67 390.32 199.77 390.25 200.72C390.25 201.14 390.2 201.52 390.17 201.88C390.09 203.21 390.05 204.14 390.03 204.56C390.03 204.73 390.03 204.82 390.03 204.82L372.3 203.19H372.04L369.04 202.91L364.53 202.49L359 202L357.69 201.88L351.06 201.27C351.06 200.64 351 200.03 350.99 199.41C350.99 199.24 350.99 199.07 350.99 198.9C350.8 193.44 350.9 188.43 351.19 183.9C351.35 181.527 351.557 179.27 351.81 177.13C352.17 174.05 352.62 171.22 353.13 168.61C353.24 168.02 353.36 167.44 353.48 166.88C353.56 166.49 353.64 166.12 353.73 165.75C354.401 162.749 355.229 159.785 356.21 156.87C356.69 155.47 357.21 154.2 357.64 153.05C360.21 153 362.83 152.97 365.48 152.95H370.31C377.79 152.95 385.01 153.07 391.8 153.31L395.02 153.42L399.23 153.47Z" fill="white"/>
<path d="M303.5 286.2C303.5 286.2 316 281 316.43 275.85C316.435 275.727 316.465 275.606 316.519 275.495C316.573 275.384 316.649 275.285 316.743 275.205C316.837 275.125 316.947 275.066 317.065 275.03C317.183 274.995 317.308 274.985 317.43 275L326.97 275.58C327.195 275.599 327.411 275.677 327.595 275.808C327.78 275.938 327.927 276.115 328.02 276.32L331.84 285.15L329.19 285.51L328.08 284.3L327.08 285.8C312.72 287.8 306.5 288.45 303.54 287.95C303 286.74 303.5 286.2 303.5 286.2Z" fill="black"/>
<path d="M362.09 234.27C361.54 234.15 361.24 234.06 361.24 234.06L316.24 228.44L329.62 276.09L316 277.39C316 277.39 284.92 217.44 297.62 208.79C310.32 200.14 349.7 209.69 349.7 209.69L351.25 197.82L390.4 200.74C396.69 239.87 367.49 235.4 362.09 234.27Z" fill="#263238"/>
<path d="M349.12 371.93C349.12 371.93 362.6 370.64 364.51 365.8C364.55 365.687 364.612 365.583 364.693 365.495C364.775 365.406 364.873 365.335 364.982 365.286C365.091 365.236 365.209 365.209 365.329 365.207C365.449 365.204 365.569 365.225 365.68 365.27L374.68 368.61C374.888 368.692 375.071 368.828 375.209 369.004C375.348 369.179 375.438 369.389 375.47 369.61L376.55 379.17L373.91 378.74L373.19 377.26L371.83 378.41C357.53 376.1 351.37 374.95 348.69 373.6C348.44 372.28 349.12 371.93 349.12 371.93Z" fill="black"/>
<path d="M390.79 214.92C390.73 215.16 389.1 222.66 386.97 233.41C386.85 234.02 386.73 234.66 386.6 235.29C385.6 240.4 384.5 246.15 383.42 252.14C382.1 259.43 380.79 267.14 379.69 274.41C378.199 283.517 377.227 292.702 376.78 301.92C376.26 325.09 375.29 370.81 375.29 370.81L362.82 368.81C362.82 368.81 355.93 320.05 356.01 296.44C356.07 281.44 359.79 250.53 362.33 231.31C363.61 221.45 364.59 214.65 364.59 214.65L378.72 214.78L390.79 214.92Z" fill="#263238"/>
<path d="M389.81 204.55L390.64 204.62L390.6 201.91L389.87 201.86L389.81 204.55Z" fill="#263238"/>
<path d="M359.03 202.16L375.73 203.46L375.81 200.77L359.17 199.49L359.03 202.16Z" fill="#263238"/>
<path d="M357.88 199.39L350.82 198.84L350.57 201.5L357.72 202.06L357.88 199.39Z" fill="#263238"/>
<path d="M388.58 201.76L377.09 200.87L377.04 203.56L388.49 204.45L388.58 201.76Z" fill="#263238"/>
<g opacity="0.2">
<path d="M389.81 204.55L390.64 204.62L390.6 201.91L389.87 201.86L389.81 204.55Z" fill="white"/>
<path d="M359.03 202.16L375.73 203.46L375.81 200.77L359.17 199.49L359.03 202.16Z" fill="white"/>
<path d="M357.88 199.39L350.82 198.84L350.57 201.5L357.72 202.06L357.88 199.39Z" fill="white"/>
<path d="M388.58 201.76L377.09 200.87L377.04 203.56L388.49 204.45L388.58 201.76Z" fill="white"/>
</g>
<path d="M368.84 203.28H368.76L364.6 202.89C364.382 202.872 364.18 202.77 364.037 202.606C363.893 202.442 363.819 202.228 363.83 202.01L363.89 200.38C363.894 200.265 363.921 200.153 363.971 200.049C364.021 199.946 364.092 199.854 364.18 199.78C364.264 199.702 364.363 199.643 364.472 199.607C364.581 199.57 364.696 199.558 364.81 199.57L368.95 199.89C369.167 199.905 369.37 200.005 369.516 200.167C369.662 200.33 369.738 200.542 369.73 200.76V202.46C369.728 202.576 369.703 202.69 369.654 202.795C369.606 202.9 369.537 202.993 369.45 203.07C369.281 203.216 369.063 203.291 368.84 203.28ZM364.74 200.28C364.714 200.271 364.686 200.271 364.66 200.28C364.654 200.294 364.65 200.31 364.65 200.325C364.65 200.341 364.654 200.356 364.66 200.37L364.59 202C364.589 202.017 364.591 202.033 364.596 202.049C364.601 202.065 364.61 202.079 364.621 202.091C364.633 202.104 364.646 202.113 364.662 202.12C364.677 202.127 364.693 202.13 364.71 202.13L368.87 202.52C368.886 202.527 368.903 202.53 368.92 202.53C368.937 202.53 368.954 202.527 368.97 202.52C368.982 202.491 368.982 202.459 368.97 202.43V200.73C368.97 200.697 368.958 200.666 368.935 200.641C368.913 200.617 368.883 200.603 368.85 200.6L364.71 200.28H364.74Z" fill="white"/>
<path d="M368.78 201.9L367.51 201.78C367.414 201.77 367.325 201.722 367.263 201.648C367.201 201.573 367.172 201.477 367.18 201.38C367.19 201.286 367.237 201.2 367.31 201.14C367.382 201.08 367.476 201.052 367.57 201.06L368.84 201.18C368.935 201.18 369.027 201.218 369.095 201.285C369.162 201.353 369.2 201.445 369.2 201.54C369.2 201.635 369.162 201.727 369.095 201.795C369.027 201.862 368.935 201.9 368.84 201.9H368.78Z" fill="white"/>
<path opacity="0.1" d="M396.37 162C395.89 163.7 395.44 165.43 395.02 167.17C394.86 167.86 394.7 168.55 394.55 169.24C393.8 172.63 393.16 176.03 392.63 179.31L392.51 180.06C385.64 182.27 378.51 180.75 378.74 174.13C379.07 165.26 386.63 161.13 386.63 161.13C390 159.28 393.53 160 396.37 162Z" fill="black"/>
<path d="M329.16 416.01H338.41L308.33 178.31H299.08L329.16 416.01Z" fill="#263238"/>
<path opacity="0.4" d="M329.16 416.01H338.41L308.33 178.31H299.08L329.16 416.01Z" fill="white"/>
<path d="M309.82 213.54H339.23C339.596 213.52 339.95 213.397 340.249 213.185C340.548 212.972 340.781 212.679 340.92 212.34L342.79 208.34H306.26L308.13 212.34C308.269 212.679 308.502 212.972 308.801 213.185C309.1 213.397 309.454 213.52 309.82 213.54Z" fill="#263238"/>
<path opacity="0.4" d="M309.82 213.54H339.23C339.596 213.52 339.95 213.397 340.249 213.185C340.548 212.972 340.781 212.679 340.92 212.34L342.79 208.34H306.26L308.13 212.34C308.269 212.679 308.502 212.972 308.801 213.185C309.1 213.397 309.454 213.52 309.82 213.54Z" fill="white"/>
<path d="M306.75 210.26H342.29C343.345 210.26 344.2 209.405 344.2 208.35V207.92C344.2 206.865 343.345 206.01 342.29 206.01H306.75C305.695 206.01 304.84 206.865 304.84 207.92V208.35C304.84 209.405 305.695 210.26 306.75 210.26Z" fill="#263238"/>
<path opacity="0.1" d="M306.75 210.26H342.29C343.345 210.26 344.2 209.405 344.2 208.35V207.92C344.2 206.865 343.345 206.01 342.29 206.01H306.75C305.695 206.01 304.84 206.865 304.84 207.92V208.35C304.84 209.405 305.695 210.26 306.75 210.26Z" fill="white"/>
<path d="M315.19 247.52H344.59C344.958 247.502 345.313 247.378 345.613 247.163C345.913 246.949 346.144 246.653 346.28 246.31L348.15 242.36H311.63L313.49 246.31C313.628 246.653 313.861 246.95 314.162 247.165C314.464 247.379 314.82 247.502 315.19 247.52Z" fill="#263238"/>
<path opacity="0.4" d="M315.19 247.52H344.59C344.958 247.502 345.313 247.378 345.613 247.163C345.913 246.949 346.144 246.653 346.28 246.31L348.15 242.36H311.63L313.49 246.31C313.628 246.653 313.861 246.95 314.162 247.165C314.464 247.379 314.82 247.502 315.19 247.52Z" fill="white"/>
<path d="M312.12 244.24H347.66C348.715 244.24 349.57 243.385 349.57 242.33V241.9C349.57 240.845 348.715 239.99 347.66 239.99H312.12C311.065 239.99 310.21 240.845 310.21 241.9V242.33C310.21 243.385 311.065 244.24 312.12 244.24Z" fill="#263238"/>
<path opacity="0.1" d="M312.12 244.24H347.66C348.715 244.24 349.57 243.385 349.57 242.33V241.9C349.57 240.845 348.715 239.99 347.66 239.99H312.12C311.065 239.99 310.21 240.845 310.21 241.9V242.33C310.21 243.385 311.065 244.24 312.12 244.24Z" fill="white"/>
<path d="M320.55 292.49H350C350.369 292.475 350.725 292.353 351.027 292.14C351.328 291.927 351.562 291.632 351.7 291.29L353.56 287.29H317L318.87 291.29C319.006 291.63 319.236 291.924 319.534 292.137C319.832 292.349 320.184 292.472 320.55 292.49Z" fill="#263238"/>
<path opacity="0.4" d="M320.55 292.49H350C350.369 292.475 350.725 292.353 351.027 292.14C351.328 291.927 351.562 291.632 351.7 291.29L353.56 287.29H317L318.87 291.29C319.006 291.63 319.236 291.924 319.534 292.137C319.832 292.349 320.184 292.472 320.55 292.49Z" fill="white"/>
<path d="M317.48 289.22H353.02C354.075 289.22 354.93 288.365 354.93 287.31V286.88C354.93 285.825 354.075 284.97 353.02 284.97H317.48C316.425 284.97 315.57 285.825 315.57 286.88V287.31C315.57 288.365 316.425 289.22 317.48 289.22Z" fill="#263238"/>
<path opacity="0.1" d="M317.48 289.22H353.02C354.075 289.22 354.93 288.365 354.93 287.31V286.88C354.93 285.825 354.075 284.97 353.02 284.97H317.48C316.425 284.97 315.57 285.825 315.57 286.88V287.31C315.57 288.365 316.425 289.22 317.48 289.22Z" fill="white"/>
<path d="M325.91 337.47H355.32C355.687 337.453 356.041 337.33 356.341 337.118C356.64 336.905 356.873 336.611 357.01 336.27L358.88 332.27H322.35L324.22 336.27C324.357 336.611 324.59 336.905 324.889 337.118C325.189 337.33 325.543 337.453 325.91 337.47Z" fill="#263238"/>
<path opacity="0.4" d="M325.91 337.47H355.32C355.687 337.453 356.041 337.33 356.341 337.118C356.64 336.905 356.873 336.611 357.01 336.27L358.88 332.27H322.35L324.22 336.27C324.357 336.611 324.59 336.905 324.889 337.118C325.189 337.33 325.543 337.453 325.91 337.47Z" fill="white"/>
<path d="M322.84 334.2H358.38C359.435 334.2 360.29 333.345 360.29 332.29V331.86C360.29 330.805 359.435 329.95 358.38 329.95H322.84C321.785 329.95 320.93 330.805 320.93 331.86V332.29C320.93 333.345 321.785 334.2 322.84 334.2Z" fill="#263238"/>
<path opacity="0.1" d="M322.84 334.2H358.38C359.435 334.2 360.29 333.345 360.29 332.29V331.86C360.29 330.805 359.435 329.95 358.38 329.95H322.84C321.785 329.95 320.93 330.805 320.93 331.86V332.29C320.93 333.345 321.785 334.2 322.84 334.2Z" fill="white"/>
<path d="M331.28 382.45H360.68C361.047 382.434 361.402 382.312 361.702 382.099C362.002 381.886 362.234 381.591 362.37 381.25L364.24 377.25H327.71L329.58 381.25C329.718 381.592 329.952 381.887 330.253 382.1C330.555 382.313 330.911 382.435 331.28 382.45Z" fill="#263238"/>
<path opacity="0.4" d="M331.28 382.45H360.68C361.047 382.434 361.402 382.312 361.702 382.099C362.002 381.886 362.234 381.591 362.37 381.25L364.24 377.25H327.71L329.58 381.25C329.718 381.592 329.952 381.887 330.253 382.1C330.555 382.313 330.911 382.435 331.28 382.45Z" fill="white"/>
<path d="M328.2 379.18H363.74C364.795 379.18 365.65 378.325 365.65 377.27V376.84C365.65 375.785 364.795 374.93 363.74 374.93H328.2C327.145 374.93 326.29 375.785 326.29 376.84V377.27C326.29 378.325 327.145 379.18 328.2 379.18Z" fill="#263238"/>
<path opacity="0.1" d="M328.2 379.18H363.74C364.795 379.18 365.65 378.325 365.65 377.27V376.84C365.65 375.785 364.795 374.93 363.74 374.93H328.2C327.145 374.93 326.29 375.785 326.29 376.84V377.27C326.29 378.325 327.145 379.18 328.2 379.18Z" fill="white"/>
<path d="M364.87 416.01H374.12L344.04 178.31H334.79L364.87 416.01Z" fill="#263238"/>
<path opacity="0.7" d="M364.87 416.01H374.12L344.04 178.31H334.79L364.87 416.01Z" fill="white"/>
<path d="M267.76 416.01H258.51L288.58 178.31H297.83L267.76 416.01Z" fill="#263238"/>
<path opacity="0.4" d="M267.76 416.01H258.51L288.58 178.31H297.83L267.76 416.01Z" fill="white"/>
<path d="M322.8 213.54H293.4C293.032 213.522 292.677 213.4 292.375 213.187C292.074 212.975 291.84 212.681 291.7 212.34L289.84 208.34H326.36L324.49 212.34C324.353 212.681 324.12 212.975 323.821 213.188C323.521 213.4 323.167 213.523 322.8 213.54Z" fill="#263238"/>
<path opacity="0.5" d="M322.8 213.54H293.4C293.032 213.522 292.677 213.4 292.375 213.187C292.074 212.975 291.84 212.681 291.7 212.34L289.84 208.34H326.36L324.49 212.34C324.353 212.681 324.12 212.975 323.821 213.188C323.521 213.4 323.167 213.523 322.8 213.54Z" fill="white"/>
<path d="M325.87 206.02H290.33C289.275 206.02 288.42 206.875 288.42 207.93V208.36C288.42 209.415 289.275 210.27 290.33 210.27H325.87C326.925 210.27 327.78 209.415 327.78 208.36V207.93C327.78 206.875 326.925 206.02 325.87 206.02Z" fill="#263238"/>
<path opacity="0.2" d="M325.87 206.02H290.33C289.275 206.02 288.42 206.875 288.42 207.93V208.36C288.42 209.415 289.275 210.27 290.33 210.27H325.87C326.925 210.27 327.78 209.415 327.78 208.36V207.93C327.78 206.875 326.925 206.02 325.87 206.02Z" fill="white"/>
<path d="M317.44 247.52H288C287.632 247.501 287.278 247.376 286.978 247.162C286.679 246.948 286.447 246.652 286.31 246.31L284.44 242.36H321L319.13 246.31C318.993 246.652 318.761 246.948 318.462 247.162C318.162 247.376 317.808 247.501 317.44 247.52Z" fill="#263238"/>
<path opacity="0.5" d="M317.44 247.52H288C287.632 247.501 287.278 247.376 286.978 247.162C286.679 246.948 286.447 246.652 286.31 246.31L284.44 242.36H321L319.13 246.31C318.993 246.652 318.761 246.948 318.462 247.162C318.162 247.376 317.808 247.501 317.44 247.52Z" fill="white"/>
<path d="M320.51 239.99H284.97C283.915 239.99 283.06 240.845 283.06 241.9V242.33C283.06 243.385 283.915 244.24 284.97 244.24H320.51C321.565 244.24 322.42 243.385 322.42 242.33V241.9C322.42 240.845 321.565 239.99 320.51 239.99Z" fill="#263238"/>
<path opacity="0.2" d="M320.51 239.99H284.97C283.915 239.99 283.06 240.845 283.06 241.9V242.33C283.06 243.385 283.915 244.24 284.97 244.24H320.51C321.565 244.24 322.42 243.385 322.42 242.33V241.9C322.42 240.845 321.565 239.99 320.51 239.99Z" fill="white"/>
<path d="M312.07 292.49H282.67C282.303 292.474 281.948 292.352 281.648 292.139C281.348 291.926 281.116 291.631 280.98 291.29L279.11 287.29H315.63L313.77 291.29C313.632 291.632 313.398 291.927 313.097 292.14C312.795 292.353 312.439 292.475 312.07 292.49Z" fill="#263238"/>
<path opacity="0.5" d="M312.07 292.49H282.67C282.303 292.474 281.948 292.352 281.648 292.139C281.348 291.926 281.116 291.631 280.98 291.29L279.11 287.29H315.63L313.77 291.29C313.632 291.632 313.398 291.927 313.097 292.14C312.795 292.353 312.439 292.475 312.07 292.49Z" fill="white"/>
<path d="M315.14 284.97H279.6C278.545 284.97 277.69 285.825 277.69 286.88V287.31C277.69 288.365 278.545 289.22 279.6 289.22H315.14C316.195 289.22 317.05 288.365 317.05 287.31V286.88C317.05 285.825 316.195 284.97 315.14 284.97Z" fill="#263238"/>
<path opacity="0.2" d="M315.14 284.97H279.6C278.545 284.97 277.69 285.825 277.69 286.88V287.31C277.69 288.365 278.545 289.22 279.6 289.22H315.14C316.195 289.22 317.05 288.365 317.05 287.31V286.88C317.05 285.825 316.195 284.97 315.14 284.97Z" fill="white"/>
<path d="M306.71 337.47H277.31C276.942 337.453 276.586 337.331 276.284 337.119C275.983 336.906 275.749 336.612 275.61 336.27L273.75 332.27H310.27L308.4 336.27C308.264 336.611 308.032 336.906 307.732 337.119C307.432 337.332 307.077 337.454 306.71 337.47Z" fill="#263238"/>
<path opacity="0.5" d="M306.71 337.47H277.31C276.942 337.453 276.586 337.331 276.284 337.119C275.983 336.906 275.749 336.612 275.61 336.27L273.75 332.27H310.27L308.4 336.27C308.264 336.611 308.032 336.906 307.732 337.119C307.432 337.332 307.077 337.454 306.71 337.47Z" fill="white"/>
<path d="M309.78 329.95H274.24C273.185 329.95 272.33 330.805 272.33 331.86V332.29C272.33 333.345 273.185 334.2 274.24 334.2H309.78C310.835 334.2 311.69 333.345 311.69 332.29V331.86C311.69 330.805 310.835 329.95 309.78 329.95Z" fill="#263238"/>
<path opacity="0.2" d="M309.78 329.95H274.24C273.185 329.95 272.33 330.805 272.33 331.86V332.29C272.33 333.345 273.185 334.2 274.24 334.2H309.78C310.835 334.2 311.69 333.345 311.69 332.29V331.86C311.69 330.805 310.835 329.95 309.78 329.95Z" fill="white"/>
<path d="M301.35 382.45H271.94C271.573 382.433 271.219 382.31 270.919 382.098C270.62 381.885 270.387 381.591 270.25 381.25L268.38 377.25H304.91L303.04 381.25C302.904 381.591 302.672 381.886 302.372 382.099C302.072 382.312 301.717 382.434 301.35 382.45Z" fill="#263238"/>
<path opacity="0.5" d="M301.35 382.45H271.94C271.573 382.433 271.219 382.31 270.919 382.098C270.62 381.885 270.387 381.591 270.25 381.25L268.38 377.25H304.91L303.04 381.25C302.904 381.591 302.672 381.886 302.372 382.099C302.072 382.312 301.717 382.434 301.35 382.45Z" fill="white"/>
<path d="M304.42 374.93H268.88C267.825 374.93 266.97 375.785 266.97 376.84V377.27C266.97 378.325 267.825 379.18 268.88 379.18H304.42C305.475 379.18 306.33 378.325 306.33 377.27V376.84C306.33 375.785 305.475 374.93 304.42 374.93Z" fill="#263238"/>
<path opacity="0.2" d="M304.42 374.93H268.88C267.825 374.93 266.97 375.785 266.97 376.84V377.27C266.97 378.325 267.825 379.18 268.88 379.18H304.42C305.475 379.18 306.33 378.325 306.33 377.27V376.84C306.33 375.785 305.475 374.93 304.42 374.93Z" fill="white"/>
<path d="M303.46 416.01H294.21L324.29 178.31H333.54L303.46 416.01Z" fill="#263238"/>
<path opacity="0.7" d="M303.46 416.01H294.21L324.29 178.31H333.54L303.46 416.01Z" fill="white"/>
<path d="M345.52 179.52H286.9C286.534 179.5 286.18 179.377 285.881 179.165C285.582 178.952 285.349 178.659 285.21 178.32L283.34 174.32H349.08L347.22 178.32C347.074 178.657 346.838 178.947 346.538 179.159C346.238 179.37 345.886 179.495 345.52 179.52Z" fill="#263238"/>
<path opacity="0.5" d="M345.52 179.52H286.9C286.534 179.5 286.18 179.377 285.881 179.165C285.582 178.952 285.349 178.659 285.21 178.32L283.34 174.32H349.08L347.22 178.32C347.074 178.657 346.838 178.947 346.538 179.159C346.238 179.37 345.886 179.495 345.52 179.52Z" fill="white"/>
<path d="M348.59 172H283.84C282.785 172 281.93 172.855 281.93 173.91V174.34C281.93 175.395 282.785 176.25 283.84 176.25H348.59C349.645 176.25 350.5 175.395 350.5 174.34V173.91C350.5 172.855 349.645 172 348.59 172Z" fill="#263238"/>
<path opacity="0.2" d="M348.59 172H283.84C282.785 172 281.93 172.855 281.93 173.91V174.34C281.93 175.395 282.785 176.25 283.84 176.25H348.59C349.645 176.25 350.5 175.395 350.5 174.34V173.91C350.5 172.855 349.645 172 348.59 172Z" fill="white"/>
<path d="M349.62 178.53L341.93 173.11L338.33 180.5C338.33 180.5 343.17 185.04 348.11 182.68L349.62 178.53Z" fill="#EBB376"/>
<path d="M335.29 172.28L333.93 178.43L338.33 180.5L341.93 173.11L335.29 172.28Z" fill="#EBB376"/>
<path d="M402.19 161.43C400.68 163.76 399.14 165.99 397.53 168.17C396.32 169.78 395.08 171.37 393.78 172.93C393.39 173.41 392.99 173.88 392.59 174.35C391.8 175.26 391 176.17 390.16 177.07C389.16 178.19 388.03 179.29 386.86 180.37L386.19 180.97C385.317 181.778 384.399 182.536 383.44 183.24C382.014 184.309 380.45 185.18 378.79 185.83C378.299 186.021 377.794 186.175 377.28 186.29C376.79 186.41 376.37 186.47 375.92 186.55C375.127 186.658 374.33 186.725 373.53 186.75C372.02 186.8 370.61 186.75 369.22 186.68C366.46 186.53 363.8 186.16 361.17 185.77C357.81 185.24 354.51 184.58 351.24 183.77C350.03 183.49 348.83 183.18 347.63 182.86L345.72 182.33C345.111 182.152 344.581 181.771 344.218 181.251C343.854 180.731 343.678 180.103 343.72 179.47C343.734 179.267 343.767 179.066 343.82 178.87C343.963 178.35 344.255 177.884 344.661 177.529C345.066 177.173 345.566 176.944 346.1 176.87C346.269 176.85 346.441 176.85 346.61 176.87H346.66H347.36C348.87 176.92 350.36 176.98 351.89 177.02C355.26 177.14 358.62 177.23 361.89 177.28C364.4 177.28 366.89 177.28 369.3 177.2C370.5 177.15 371.67 177.05 372.73 176.9C373.524 176.844 374.302 176.651 375.03 176.33C375.725 175.931 376.376 175.458 376.97 174.92C377.57 174.4 378.2 173.82 378.82 173.19C379 173.02 379.17 172.84 379.34 172.66C379.69 172.3 380.03 171.92 380.34 171.54C381.2 170.6 382.03 169.62 382.86 168.61C383.23 168.15 383.61 167.69 383.98 167.22C385.78 164.95 387.57 162.56 389.3 160.15C390.48 158.52 391.64 156.87 392.76 155.25L392.82 155.15C393.377 154.335 394.144 153.686 395.04 153.27L399.23 153.45L400.32 153.51C400.434 153.573 400.545 153.643 400.65 153.72C401.86 154.552 402.697 155.823 402.985 157.262C403.272 158.702 402.987 160.197 402.19 161.43Z" fill="#FFB573"/>
<path d="M399.58 168.07C397.691 170.798 395.573 173.361 393.25 175.73C392.63 176.37 391.97 177.03 391.25 177.73L390.13 177.1L380.32 171.58L379.41 171.07C379.41 171.07 380.05 170.07 381 168.68C382.19 166.88 383.88 164.31 385.45 161.89C386.67 159.99 387.81 158.18 388.56 156.89C389.394 155.461 390.493 154.205 391.8 153.19L395.02 153.3L399.21 153.48L400.3 153.54L403.09 153.68C404.38 156.66 404.1 161.39 399.58 168.07Z" fill="#2563EB"/>
<path opacity="0.7" d="M399.58 168.07C397.691 170.798 395.573 173.361 393.25 175.73C392.63 176.37 391.97 177.03 391.25 177.73L390.13 177.1L380.32 171.58L379.41 171.07C379.41 171.07 380.05 170.07 381 168.68C382.19 166.88 383.88 164.31 385.45 161.89C386.67 159.99 387.81 158.18 388.56 156.89C389.394 155.461 390.493 154.205 391.8 153.19L395.02 153.3L399.21 153.48L400.3 153.54L403.09 153.68C404.38 156.66 404.1 161.39 399.58 168.07Z" fill="white"/>
<path d="M253.34 415.84C253.345 415.897 253.345 415.954 253.34 416.01C253.344 416.037 253.344 416.064 253.34 416.09C253.328 416.142 253.311 416.192 253.29 416.24C253.261 416.308 253.224 416.371 253.18 416.43C253.136 416.501 253.086 416.568 253.03 416.63C252.558 417.09 252.001 417.453 251.39 417.7L250.9 417.91C250.42 418.11 249.9 418.3 249.27 418.49C248.89 418.61 248.49 418.72 248.06 418.84C241.06 420.73 227.61 422.25 210.7 423.09L208.7 423.19L205.42 423.33L202.05 423.45L199.72 423.53C197.87 423.58 196 423.63 194.1 423.66H193.41H192.12H190.87C189.12 423.66 187.35 423.66 185.57 423.72H180.74C174.9 423.72 169.21 423.65 163.74 423.5L161.32 423.42C160.62 423.42 159.92 423.42 159.23 423.36L156.01 423.25L151.82 423.07L150.73 423.01L147.94 422.87C143.35 422.61 139.04 422.31 135.08 421.95C125.6 421.11 118.08 420.02 113.43 418.76L113.03 418.65L112.59 418.52C111.84 418.3 111.19 418.07 110.59 417.85C110.38 417.76 110.18 417.68 110 417.59C109.701 417.45 109.411 417.293 109.13 417.12C109.034 417.065 108.944 417.001 108.86 416.93L108.64 416.76L108.43 416.55C108.374 416.492 108.324 416.428 108.28 416.36C108.206 416.254 108.152 416.135 108.12 416.01V415.9C108.115 415.854 108.115 415.807 108.12 415.76C108.12 412.5 125.95 409.7 151.49 408.47L153.54 408.37L156.3 408.26L160.54 408.11L162.83 408.04L168.21 407.91H168.5H170.05H171.1C172.68 407.91 174.27 407.91 175.88 407.86H176.36C177.81 407.86 179.27 407.86 180.74 407.86C186.66 407.86 192.41 407.94 197.92 408.08L201.92 408.21L203.62 408.27H203.79L205.65 408.34L206.87 408.39L210.03 408.53L213.03 408.68C218.75 408.99 224.03 409.38 228.79 409.84C243.83 411.33 253.34 413.46 253.34 415.84Z" fill="#263238"/>
<path opacity="0.4" d="M108.1 415.84C108.1 412.58 125.93 409.78 151.47 408.55L153.52 408.45L156.28 408.34C160.11 408.19 164.09 408.08 168.19 407.99H170.03H171.08C174.23 407.94 177.45 407.92 180.72 407.92C186.64 407.92 192.39 408 197.9 408.14L201.9 408.27C211.95 408.6 221.07 409.17 228.75 409.91C243.82 411.37 253.33 413.5 253.33 415.91C253.33 416.97 251.44 417.99 248.01 418.91C241.675 417.426 235.236 416.423 228.75 415.91C221.07 415.17 211.95 414.6 201.9 414.27L197.9 414.14C192.39 414 186.64 413.92 180.72 413.92C177.45 413.92 174.23 413.92 171.08 413.99H170H168.16C164.06 414.08 160.08 414.19 156.25 414.34L153.49 414.45L151.44 414.55C134.21 415.38 120.5 416.92 113.44 418.84C110 417.91 108.1 416.91 108.1 415.84Z" fill="white"/>
<path d="M174.61 412.15C174.06 412.81 173.55 413.38 173.04 413.93C172.78 414.2 172.53 414.47 172.26 414.74C171.78 415.23 171.31 415.74 170.82 416.18C170.5 416.5 170.17 416.81 169.82 417.12C168.126 418.687 166.332 420.144 164.45 421.48L164.13 421.7C163.85 421.9 163.56 422.09 163.26 422.29C162.63 422.71 161.98 423.12 161.26 423.5C160.56 423.5 159.86 423.5 159.17 423.44L155.95 423.33L151.76 423.15L150.67 423.09L147.88 422.95C143.29 422.69 138.98 422.39 135.02 422.03L136.58 421.53C140.58 420.23 144.58 419.01 148.48 417.73C149.48 417.4 150.41 417.08 151.3 416.73C152.067 416.476 152.804 416.141 153.5 415.73C153.94 415.47 154.4 415.18 154.86 414.87C155.1 414.71 155.35 414.54 155.6 414.35C156.32 413.84 157.04 413.27 157.75 412.68C159.19 411.5 160.6 410.2 162 408.85L162.75 408.11C163.2 407.68 163.64 407.25 164.07 406.8L166.07 404.8L166.19 404.67C166.793 404.043 167.533 403.563 168.351 403.269C169.17 402.974 170.046 402.872 170.91 402.97C172.171 403.114 173.346 403.683 174.242 404.582C175.137 405.481 175.701 406.658 175.84 407.92C175.928 408.672 175.865 409.433 175.653 410.16C175.442 410.886 175.087 411.563 174.61 412.15Z" fill="#FFB573"/>
<path d="M172.37 400.67C166.79 400.54 154.37 414.41 154.37 414.41L164.62 423.49C164.62 423.49 173.77 419.49 176.01 412.94C178.25 406.39 172.37 400.67 172.37 400.67Z" fill="#2563EB"/>
<path opacity="0.7" d="M176 412.94C174.937 415.596 173.162 417.907 170.87 419.62C168.944 421.159 166.839 422.459 164.6 423.49L161.85 421.05L154.35 414.41C154.35 414.41 166.76 400.54 172.35 400.67C172.37 400.67 178.27 406.35 176 412.94Z" fill="white"/>
<path opacity="0.1" d="M170.9 419.62C168.974 421.159 166.869 422.459 164.63 423.49L161.88 421.05C163.341 416.775 165.953 412.985 169.43 410.1C170.65 412.38 171.05 417.23 170.9 419.62Z" fill="black"/>
<path d="M210.91 406.52C210.85 406.65 210.79 406.77 210.74 406.9C210.58 407.25 210.43 407.6 210.28 407.96C210.19 408.146 210.11 408.336 210.04 408.53C210.019 408.568 210.002 408.608 209.99 408.65C209.916 408.799 209.853 408.953 209.8 409.11C209.63 409.51 209.47 409.92 209.31 410.34C209.15 410.76 208.92 411.39 208.73 411.92C208.73 411.92 208.73 411.97 208.73 411.99C208.59 412.37 208.46 412.75 208.33 413.14C208.2 413.53 208.06 413.92 207.94 414.31C207.936 414.35 207.936 414.39 207.94 414.43C207.82 414.79 207.7 415.15 207.59 415.51C207.36 416.27 207.13 417.03 206.91 417.81L206.85 418.02C206.37 419.72 205.92 421.45 205.5 423.19C205.495 423.227 205.495 423.264 205.5 423.3L202.13 423.42L199.8 423.5C197.95 423.55 196.08 423.6 194.18 423.63H193.49H192.2H190.95C189.2 423.63 187.43 423.63 185.65 423.69H180.82C174.98 423.69 169.29 423.62 163.82 423.47L163.97 422.73C163.97 422.57 164.04 422.42 164.08 422.27C164.12 422.12 164.14 421.97 164.18 421.82C164.2 421.748 164.217 421.674 164.23 421.6C164.677 419.6 165.143 417.777 165.63 416.13C165.81 415.55 165.97 415 166.14 414.45C166.2 414.28 166.25 414.11 166.31 413.94C166.44 413.53 166.57 413.14 166.7 412.76L166.91 412.15C167.02 411.84 167.13 411.53 167.24 411.24C167.35 410.95 167.49 410.55 167.61 410.24L167.94 409.4L168.54 407.95C169 406.85 169.45 405.89 169.87 405.04C169.95 404.9 170.02 404.75 170.09 404.61L170.51 403.8L171 402.91C171.03 402.866 171.057 402.819 171.08 402.77C171.25 402.46 171.42 402.18 171.57 401.94L171.96 401.32L172.43 400.64C175.398 400.356 178.38 400.26 181.36 400.35C181.99 400.35 182.63 400.4 183.28 400.44C183.93 400.48 184.52 400.54 185.2 400.62C186.63 400.78 188.2 401 189.87 401.27L193.01 401.81C194.06 402 195.1 402.19 196.1 402.39L196.63 402.5C197.42 402.65 198.19 402.81 198.9 402.96C199.39 403.06 199.9 403.17 200.36 403.29C200.61 403.35 200.85 403.4 201.09 403.47L201.82 403.65C202.73 403.88 203.63 404.13 204.48 404.37L205.31 404.62L206.86 405.1L208.22 405.54C209.77 406.05 210.8 406.43 210.95 406.48L210.91 406.52Z" fill="#2563EB"/>
<path opacity="0.7" d="M210.92 406.52C210.86 406.65 210.8 406.77 210.75 406.9C210.59 407.25 210.43 407.6 210.29 407.96C210.197 408.147 210.117 408.337 210.05 408.53C210.046 408.57 210.046 408.61 210.05 408.65C209.976 408.799 209.913 408.953 209.86 409.11C209.69 409.51 209.53 409.92 209.37 410.34C209.21 410.76 208.97 411.39 208.79 411.92C208.79 411.92 208.79 411.97 208.79 411.99C208.65 412.37 208.52 412.75 208.39 413.14C208.26 413.53 208.12 413.92 208 414.31V414.38C207.88 414.74 207.76 415.1 207.65 415.46C207.42 416.22 207.19 416.98 206.97 417.76L206.91 417.97C206.43 419.67 205.98 421.4 205.56 423.14C205.555 423.177 205.555 423.214 205.56 423.25L202.19 423.37L199.86 423.45C198.01 423.5 196.14 423.55 194.24 423.58H193.55H192.26H191.01C189.26 423.58 187.49 423.58 185.71 423.64H180.88C175.04 423.64 169.35 423.57 163.88 423.42L164.03 422.69C164.1 422.37 164.16 422.07 164.23 421.77C164.25 421.698 164.267 421.624 164.28 421.55C164.727 419.55 165.193 417.727 165.68 416.08C165.86 415.5 166.02 414.95 166.19 414.4C166.25 414.23 166.3 414.06 166.36 413.89C166.49 413.48 166.62 413.09 166.75 412.71L166.96 412.1C167.07 411.79 167.18 411.48 167.29 411.19C167.4 410.9 167.54 410.5 167.66 410.19L167.99 409.35L168.59 407.9C169.05 406.8 169.5 405.84 169.91 404.99C169.99 404.85 170.06 404.7 170.13 404.56L170.55 403.75L171.04 402.86C171.07 402.816 171.097 402.769 171.12 402.72L171.61 401.89L172 401.27L172.47 400.59C175.438 400.306 178.42 400.209 181.4 400.3C182.03 400.3 182.67 400.35 183.32 400.39C183.97 400.43 184.56 400.49 185.24 400.57C186.67 400.73 188.24 400.95 189.91 401.22L193.05 401.76C194.1 401.95 195.14 402.14 196.14 402.34L196.67 402.45C197.46 402.6 198.23 402.76 198.94 402.91C199.43 403.01 199.94 403.12 200.4 403.24C200.65 403.3 200.89 403.35 201.13 403.42L201.86 403.59C202.77 403.82 203.67 404.07 204.52 404.32L205.35 404.57L206.9 405.05L208.26 405.49C209.81 406 210.84 406.38 210.99 406.43L210.92 406.52Z" fill="white"/>
<path d="M192.83 388.45C192.83 388.45 193.14 399.09 194.15 400.67C195.16 402.25 198.81 402.98 198.81 402.98C198.81 402.98 190.04 407.34 185.94 406.52C181.84 405.7 179.87 400.35 179.87 400.35C179.87 400.35 182.73 400.46 183.43 400.07C184.13 399.68 182.88 392.63 182.88 392.63L192.83 388.45Z" fill="#EBB376"/>
<path opacity="0.2" d="M183.72 395.28L183.36 395.79C183.14 394.14 182.88 392.63 182.88 392.63L192.82 388.45C192.82 388.45 193.08 397.02 193.82 399.92C189.8 400.34 185.1 397.36 183.72 395.28Z" fill="black"/>
<path d="M189.43 370.58C192.15 372 196.04 376.58 191.78 378.11C187.52 379.64 184.76 368.15 189.43 370.58Z" fill="#263238"/>
<path d="M177.34 388.28C179.427 390.828 181.7 393.218 184.14 395.43C185.894 396.916 188.047 397.851 190.33 398.12C198.33 399.12 203.51 390.6 200.28 383.57C199.906 382.765 199.489 381.98 199.03 381.22C195.52 375.44 188.77 369.37 182.09 371.35C180.406 371.85 178.877 372.768 177.644 374.019C176.412 375.27 175.517 376.813 175.042 378.504C174.568 380.195 174.53 381.978 174.932 383.688C175.333 385.398 176.162 386.977 177.34 388.28Z" fill="#EBB376"/>
<path d="M180.63 387.8L181 389C181.703 391.308 182.777 393.487 184.18 395.45C185.934 396.936 188.087 397.871 190.37 398.14C198.37 399.14 203.55 390.62 200.32 383.59C199.946 382.785 199.529 382 199.07 381.24C199.07 381.24 199.67 384.06 199.15 385.37C199.15 385.37 196.15 384.6 194.67 385.83C194.67 385.83 191.49 384.96 188.79 388.33C187.556 389.137 186.093 389.522 184.622 389.426C183.15 389.331 181.749 388.76 180.63 387.8Z" fill="#263238"/>
<path opacity="0.5" d="M180.63 387.8L181 389C181.703 391.308 182.777 393.487 184.18 395.45C185.934 396.936 188.087 397.871 190.37 398.14C198.37 399.14 203.55 390.62 200.32 383.59C199.946 382.785 199.529 382 199.07 381.24C199.07 381.24 199.67 384.06 199.15 385.37C199.15 385.37 196.15 384.6 194.67 385.83C194.67 385.83 191.49 384.96 188.79 388.33C187.556 389.137 186.093 389.522 184.622 389.426C183.15 389.331 181.749 388.76 180.63 387.8Z" fill="white"/>
<path d="M169 384.54C165.37 381.49 168.81 377.08 172.61 375.54C173.021 375.378 173.37 375.091 173.61 374.72L178.12 381.65C177.71 381.84 177.3 382.03 176.91 382.18C176.91 382.18 182.18 386.84 181.67 391.48C174.31 393.56 167.21 389.77 169 384.54Z" fill="#263238"/>
<path d="M178.93 395C179.702 395.525 180.572 395.89 181.487 396.074C182.402 396.257 183.345 396.256 184.26 396.07C184.437 396.037 184.61 395.99 184.78 395.93C186.3 394.5 181.78 389.47 181.57 389.21C181.086 389.063 180.577 389.022 180.076 389.091C179.575 389.16 179.096 389.337 178.67 389.61C178.24 389.927 177.895 390.345 177.666 390.827C177.436 391.31 177.33 391.841 177.355 392.375C177.381 392.908 177.538 393.427 177.813 393.885C178.088 394.343 178.471 394.726 178.93 395Z" fill="#EBB376"/>
<path d="M187.56 382.8C187.93 383.28 188.49 383.47 188.81 383.22C189.13 382.97 189.07 382.37 188.69 381.89C188.31 381.41 187.75 381.22 187.44 381.47C187.13 381.72 187.18 382.32 187.56 382.8Z" fill="#263238"/>
<path d="M193 378.47C193.37 378.95 193.93 379.14 194.25 378.89C194.57 378.64 194.51 378.05 194.13 377.56C193.75 377.07 193.19 376.89 192.88 377.15C192.57 377.41 192.59 378 193 378.47Z" fill="#263238"/>
<path d="M191.43 380.09C193.137 381.041 194.968 381.751 196.87 382.2C196.63 383.62 194.87 384.41 194.87 384.41L191.43 380.09Z" fill="#D58745"/>
<path d="M185.41 379.08C185.354 379.11 185.308 379.155 185.276 379.209C185.244 379.264 185.228 379.327 185.23 379.39C185.238 379.844 185.139 380.293 184.941 380.701C184.742 381.109 184.451 381.465 184.09 381.74C184.013 381.795 183.958 381.876 183.938 381.969C183.918 382.061 183.933 382.158 183.98 382.24C184.005 382.28 184.038 382.315 184.077 382.342C184.116 382.37 184.16 382.389 184.207 382.399C184.253 382.41 184.302 382.411 184.348 382.402C184.395 382.394 184.44 382.376 184.48 382.35C184.946 382.004 185.322 381.55 185.576 381.028C185.83 380.506 185.955 379.93 185.94 379.35C185.94 379.256 185.903 379.166 185.838 379.099C185.773 379.032 185.684 378.993 185.59 378.99C185.522 379.002 185.46 379.033 185.41 379.08Z" fill="#263238"/>
<path d="M193.85 374.56C193.907 374.518 193.949 374.458 193.97 374.39C194.002 374.301 193.999 374.203 193.959 374.117C193.92 374.031 193.848 373.964 193.76 373.93C193.229 373.723 192.655 373.649 192.089 373.713C191.523 373.778 190.981 373.979 190.51 374.3C190.448 374.361 190.409 374.443 190.403 374.53C190.396 374.618 190.422 374.704 190.475 374.774C190.527 374.844 190.604 374.892 190.689 374.91C190.775 374.927 190.864 374.913 190.94 374.87C191.317 374.621 191.749 374.467 192.198 374.422C192.647 374.377 193.101 374.441 193.52 374.61C193.575 374.63 193.634 374.636 193.691 374.627C193.749 374.618 193.803 374.595 193.85 374.56Z" fill="#263238"/>
<path d="M194.84 391C195.035 390.926 195.226 390.839 195.41 390.74L195.9 386.8C195.9 386.8 195.66 386.8 195.29 386.8C194.05 386.8 191.29 387.08 190.55 388.5C190.469 388.663 190.406 388.834 190.36 389.01C190.173 389.645 190.219 390.326 190.49 390.93C190.94 391.77 192.14 392.21 194.84 391Z" fill="#263238"/>
<path d="M190.36 389L195.17 387.26L195.29 386.79C194.05 386.79 191.29 387.07 190.55 388.49C190.469 388.653 190.406 388.824 190.36 389Z" fill="white"/>
<path d="M194.84 391C194 389.6 191.76 390.32 190.49 390.94C190.94 391.77 192.14 392.21 194.84 391Z" fill="#DE5753"/>
<path d="M169 384.54C167.52 383.4 165.36 380.33 168.26 377.13C171.16 373.93 174.59 372.35 172.97 370.03C171.35 367.71 174.22 365.74 176.24 367.25C176.24 367.25 180.99 359.48 184.37 365.45C184.37 365.45 187.68 363.17 189.71 365.62C191.74 368.07 192.16 370.69 189.49 371.62C186.82 372.55 186.57 372.84 187.03 374.39C187.49 375.94 185.17 377.22 185.17 377.22C185.17 377.22 186.61 376.3 185.79 375.22C185.645 375.904 185.304 376.532 184.809 377.025C184.313 377.519 183.685 377.858 183 378C180.41 378.81 181.61 381.33 181.61 381.33C181.61 381.33 180.22 381.87 179.92 379.89C179.92 379.89 178.84 384.31 175.92 385.41C173 386.51 171.2 386.25 169 384.54Z" fill="#263238"/>
<path opacity="0.1" d="M206.77 418.05C206.29 419.75 205.84 421.48 205.42 423.22C205.415 423.257 205.415 423.294 205.42 423.33L202.05 423.45L199.72 423.53C197.87 423.58 196 423.63 194.1 423.66H193.41H192.12H190.87C192.083 421.381 193.791 419.402 195.87 417.87C196.24 417.589 196.627 417.332 197.03 417.1C197.862 416.643 198.764 416.329 199.7 416.17C202.212 415.85 204.749 416.525 206.77 418.05Z" fill="black"/>
<path d="M213.48 414.74C213.43 415.719 213.123 416.667 212.59 417.49C211.32 419.49 210.03 421.35 208.68 423.19L205.4 423.33L202.03 423.45L199.7 423.53C197.85 423.58 195.98 423.63 194.08 423.66C194.19 423.54 194.28 423.42 194.38 423.3C196.18 421.03 197.97 418.64 199.7 416.23C200.19 415.56 200.7 414.88 201.14 414.23C201.83 413.23 202.49 412.31 203.14 411.36L203.21 411.26C203.92 410.234 204.95 409.472 206.138 409.094C207.327 408.716 208.608 408.743 209.78 409.17C210.23 409.334 210.657 409.556 211.05 409.83C211.84 410.373 212.478 411.109 212.904 411.969C213.329 412.828 213.527 413.782 213.48 414.74Z" fill="#FFB573"/>
<path d="M214.05 414.77C213.516 417.751 212.361 420.585 210.66 423.09L208.66 423.19L205.38 423.33L202.01 423.45L199.68 423.53C197.83 423.58 195.96 423.63 194.06 423.66H193.37H192.08C193.19 421.98 194.56 419.88 195.85 417.89C196.73 416.51 197.57 415.19 198.25 414.07L198.96 412.9C200.075 410.973 201.675 409.37 203.6 408.25C205.81 406.995 208.331 406.392 210.87 406.51C211.723 407.064 212.441 407.802 212.97 408.67C214.045 410.51 214.428 412.673 214.05 414.77Z" fill="#2563EB"/>
<path opacity="0.7" d="M214.05 414.77C213.516 417.751 212.361 420.585 210.66 423.09L208.66 423.19L205.38 423.33L202.01 423.45L199.68 423.53C197.83 423.58 195.96 423.63 194.06 423.66H193.37H192.08C193.19 421.98 194.56 419.88 195.85 417.89C196.73 416.51 197.57 415.19 198.25 414.07L198.96 412.9C200.075 410.973 201.675 409.37 203.6 408.25C205.81 406.995 208.331 406.392 210.87 406.51C211.723 407.064 212.441 407.802 212.97 408.67C214.045 410.51 214.428 412.673 214.05 414.77Z" fill="white"/>
</svg>
